<?xml version="1.0" encoding="UTF-8"?>
<svg width="23px" height="32px" viewBox="0 0 23 32" version="1.1" xmlns="http://www.w3.org/2000/svg" xmlns:xlink="http://www.w3.org/1999/xlink">
    <!-- Generator: Sketch 62 (91390) - https://sketch.com -->
    <title>xdpi/Icon/masculino Copy 2</title>
    <desc>Created with Sketch.</desc>
    <g id="Icon/masculino-Copy-2" stroke="none" stroke-width="1" fill="none" fill-rule="evenodd">
        <g id="002-people" fill="#FFFFFF" fill-rule="nonzero">
            <path d="M22.6815076,29.812 C22.6781851,29.7878125 22.7389747,30.1028125 21.332568,22.926375 C21.1169739,21.8290625 20.4479802,21.0339375 19.4436588,20.608 C19.3049748,20.5500625 19.6997998,20.672875 15.415237,19.389125 L14.2020282,18.55575 L14.2020282,17.7846875 C16.1636634,16.74725 17.4897761,14.6640625 17.4897761,12.2703125 L17.4897761,12.1836875 C18.4941589,11.9951875 19.2501533,11.204625 19.2501533,10.2604375 C19.2501533,9.8695 19.1200216,9.505125 18.8968596,9.1986875 C18.8995053,9.1615 18.8977825,8.95125 18.8985824,7.645125 C18.8984593,3.4295 15.5222342,0 11.3723561,0 C9.29541736,0 7.36165428,0.84075 5.92731386,2.36725 C5.75134382,2.5545625 5.75817343,2.8513125 5.94251128,3.0300625 C6.12691065,3.20875 6.418984,3.2019375 6.59501557,3.014625 C7.853509,1.67525 9.55020475,0.9375625 11.3724176,0.9375625 C15.0133977,0.9375625 17.9756011,3.9465625 17.9756011,7.6450625 L17.9756011,8.4824375 C17.8223964,8.41825 17.6597164,8.3691875 17.4897761,8.3373125 C17.4504597,8.1360625 17.7273972,6.903 16.6038962,6.3145 C11.8629802,3.83125 7.71297908,5.4296875 6.14881462,6.2323125 C5.5974008,6.5151875 5.25493603,7.0815625 5.25493603,7.71025 L5.25493603,8.3373125 C5.08505726,8.3691875 4.92237726,8.4183125 4.76911105,8.4824375 C4.80984258,7.9584375 4.57252913,6.5135 5.42684522,4.723375 C5.5380263,4.490375 5.44216569,4.21 5.21285089,4.097 C4.98341303,3.984125 4.70746001,4.0814375 4.59627894,4.314375 C4.09857906,5.3574375 3.84612973,6.4780625 3.84612973,7.645 C3.84674501,8.7185 3.84514528,9.1613125 3.84785251,9.1986875 C3.62469051,9.505125 3.49455882,9.8695 3.49455882,10.260375 C3.49455882,11.2045 4.25055318,11.995125 5.2548745,12.183625 L5.2548745,12.1885625 C5.2548745,14.457375 6.47171349,16.6265 8.50767455,17.7474375 L8.50767455,18.567 L7.32375304,19.3803125 C3.03672907,20.6649375 3.40066711,20.550375 3.26007566,20.6105 C2.63132117,20.874625 1.65641023,21.505375 1.37707317,22.926625 C-0.027549231,30.0935625 0.0315791638,29.78725 0.0281335966,29.812 C-0.148513252,31.0790625 0.510451481,32 1.89901508,32 L13.2895681,32 C13.5444786,32 13.751028,31.7901875 13.751028,31.53125 C13.751028,31.2723125 13.5444786,31.0625 13.2895681,31.0625 L5.15279957,31.0625 L5.15279957,26.648125 C5.15562986,26.4625625 5.17839522,23.5364375 3.86391132,21.394625 L6.45091703,20.6195 C8.8377722,26.8594375 14.0082765,26.9285 16.4318639,20.6713125 C16.4775792,20.685 16.4609666,20.68 16.4457692,20.6754375 C16.5210795,20.698 16.9524522,20.82725 18.8457299,21.3945625 C17.531246,23.536375 17.5539498,26.4625 17.5568416,26.6480625 L17.5568416,31.0624375 L15.4431092,31.0624375 C15.1881987,31.0624375 14.9816493,31.27225 14.9816493,31.5311875 C14.9816493,31.790125 15.1881987,32 15.4431092,32 L20.8105646,32 C22.1946982,32 22.8588312,31.0838125 22.6815076,29.812 Z M17.4897146,9.2989375 C18.6043556,9.6354375 18.6034327,10.8856875 17.4897146,11.2219375 L17.4897146,9.2989375 Z M5.2548745,11.2219375 C4.14054114,10.8855 4.14097184,9.63525 5.2548745,9.2989375 L5.2548745,11.2219375 Z M4.22981825,26.644125 L4.22981825,31.062375 C2.22917425,31.0029375 1.46087428,31.2201875 1.10105862,30.79925 C0.8899561,30.5523125 0.916474662,30.1359375 0.940347521,29.9555625 L2.2822729,23.1099375 C2.40366762,22.4920625 2.71321492,22.0859375 3.03722129,21.821375 C3.87295593,23.136 4.22981825,25.1269375 4.22981825,26.644125 Z M14.5021617,19.8936875 C14.0963231,20.32 13.3224856,21.1330625 12.9157856,21.560375 L12.0916798,20.9394375 C12.5402803,20.5300625 13.4746443,19.677375 13.7806845,19.3980625 L14.5021617,19.8936875 Z M11.3630653,20.344 L9.43065587,18.5805 L9.43065587,18.166875 C10.6223299,18.5714375 11.9930504,18.6039375 13.2789853,18.1783125 L13.2789853,18.5955 L11.3630653,20.344 Z M7.82089917,16.08925 C6.77676924,15.0768125 6.17785582,13.655125 6.17785582,12.1885625 C6.17785582,11.15625 6.17785582,8.7469375 6.17785582,7.7103125 C6.17785582,7.437375 6.32613827,7.191625 6.56486686,7.069125 C9.46443474,5.5815 12.9721452,5.4670625 16.1807682,7.1478125 C16.41882,7.2725 16.5666717,7.518125 16.5666717,7.7888125 C16.5666717,8.414125 16.5666717,11.6356875 16.5666717,12.2703125 C16.5666717,16.8556875 11.1251366,19.292625 7.82089917,16.08925 Z M8.94544618,19.3980625 C9.00543596,19.4528125 9.24305704,19.6696875 10.6345125,20.9395 L9.81028355,21.5604375 L8.46866581,20.150875 L8.22403054,19.8938125 L8.94544618,19.3980625 Z M9.99277556,23.97325 C8.95276801,23.361125 8.02068054,22.1044375 7.33968879,20.3529375 L7.36891458,20.3441875 L7.99403892,21.001 C9.43108657,22.45625 9.41921167,22.6278125 9.72777452,22.649375 L10.0647633,23.4409375 L9.99277556,23.97325 Z M10.8762559,24.3295625 L10.9419063,23.84375 L11.7773948,23.84375 L11.8475982,24.3633125 C11.50741,24.41575 11.1950324,24.401 10.8762559,24.3295625 Z M11.866918,22.906125 L10.8427232,22.906125 L10.5345295,22.18225 L11.3548206,21.5650625 L12.1751117,22.18225 L11.866918,22.906125 Z M12.7392003,24.0668125 L12.6522612,23.4235 L12.9816205,22.649875 C12.9816821,22.649875 12.9817436,22.649875 12.9817436,22.649875 C13.0151533,22.64875 13.040872,22.645 13.0698517,22.63825 C13.0992005,22.631375 13.1267035,22.622 13.1527299,22.610375 C13.1788177,22.5986875 13.2062592,22.583125 13.2296399,22.566625 C13.2444681,22.556125 13.2748629,22.532125 13.298059,22.50775 L15.3535244,20.3480625 L15.5427845,20.40475 C14.8262911,22.22275 13.836675,23.5008125 12.7392003,24.0668125 Z M21.6085826,30.7993125 C21.2480901,31.2210625 20.4733912,31.0031875 18.4798229,31.0624375 C18.4798229,25.679 18.4830839,26.7899375 18.4797614,26.63575 C18.4792076,26.6053125 18.4443213,23.751375 19.6724814,21.821375 C19.9964263,22.0859375 20.3060351,22.492125 20.4273683,23.10975 L21.7692321,29.9556875 C21.793105,30.136 21.8196851,30.552375 21.6085826,30.7993125 Z" id="Shape"></path>
        </g>
    </g>
</svg>