<?xml version="1.0" encoding="UTF-8"?>
<svg width="39px" height="32px" viewBox="0 0 39 32" version="1.1" xmlns="http://www.w3.org/2000/svg" xmlns:xlink="http://www.w3.org/1999/xlink">
    <!-- Generator: Sketch 62 (91390) - https://sketch.com -->
    <title>xdpi/Icon/niños Copy</title>
    <desc>Created with Sketch.</desc>
    <g id="Icon/niños-Copy" stroke="none" stroke-width="1" fill="none" fill-rule="evenodd">
        <g id="003-boy" transform="translate(-0.000000, 0.000000)" fill="#FFFFFF" fill-rule="nonzero">
            <path d="M7.0303459,13.4688407 C8.54083176,13.4688407 9.91265923,12.7132078 10.7320804,11.4850579 C11.1305146,11.8692066 11.6614817,12.1140485 12.2472996,12.1419099 C13.3451514,14.4983026 15.6686545,16 18.2705883,16 L19.9019131,16 C22.5035684,16 24.8281852,14.4974583 25.9257585,12.1402213 C26.5023883,12.10448 27.0230535,11.8562609 27.4122994,11.4723937 C28.2297716,12.7089864 29.6032696,13.4688407 31.1235005,13.4688407 C31.606856,13.4688407 32,13.071465 32,12.5829068 L32,6.50013191 C32,4.43220233 30.3358205,2.75010994 28.2899126,2.75010994 L27.0055124,2.75010994 C26.7877796,2.23312756 26.2802007,1.86980459 25.6902063,1.86980459 L25.4321011,1.86980459 C25.1731607,1.86980459 24.9222947,1.94269434 24.7048405,2.07299531 C23.4917185,0.796158497 21.7871665,0 19.9019131,0 L18.2705883,0 C16.3817153,0 14.674379,0.798972808 13.4609785,2.07974957 C13.2412968,1.94522717 12.9862544,1.86980459 12.7214669,1.86980459 L12.4636402,1.86980459 C11.8736458,1.86980459 11.3660668,2.23312756 11.1483342,2.75010994 L9.86393386,2.75010994 C7.81830447,2.75010994 6.1538463,4.43248381 6.1538463,6.50013191 L6.1538463,12.5829068 C6.15356804,13.071465 6.54699042,13.4688407 7.0303459,13.4688407 Z M25.78181,11.0522224 C25.7461708,11.0522224 25.7057984,11.0485639 25.6545672,11.0412467 C25.4081562,11.0046612 25.1695411,11.1442492 25.0765453,11.3772712 C24.2198144,13.5220305 22.1886634,14.9077797 19.9016346,14.9077797 L18.2703098,14.9077797 C15.9810537,14.9077797 13.9490673,13.5200605 13.0937285,11.3722055 C13.0101994,11.162542 12.8100078,11.0299896 12.592832,11.0299896 C12.5610909,11.0299896 12.5287929,11.0328039 12.4967734,11.0384325 C12.446656,11.0477196 12.4015502,11.0522224 12.3592287,11.0522224 C11.6536857,11.0522224 11.0801186,10.4722003 11.0801186,9.75934432 L11.0801186,9.14892793 C11.0801186,8.72031377 11.4250941,8.3716251 11.8491439,8.3716251 L12.1504058,8.3716251 C12.4488834,8.3716251 12.6908396,8.12734599 12.6908396,7.82537426 L12.6908396,7.76289731 C13.7449777,6.4109194 15.3712907,5.60885087 17.0761211,5.60885087 L21.0958234,5.60885087 C22.8009322,5.60885087 24.4269667,6.4109194 25.4813833,7.76289731 L25.4813833,7.82537426 C25.4813833,8.12706458 25.7233395,8.3716251 26.0218171,8.3716251 L26.1560206,8.3716251 C26.6421605,8.3716251 27.0375319,8.7712522 27.0375319,9.26290607 L27.0375319,9.78270275 C27.0378103,10.4826131 26.4742668,11.0522224 25.78181,11.0522224 Z M30.919411,6.50013191 L30.919411,12.370429 C29.663689,12.2958507 28.5655588,11.535715 28.0426662,10.3784849 C28.09167,10.1879584 28.1183994,9.9884263 28.1183994,9.78270275 L28.1183994,9.26262466 C28.1183994,8.82359769 27.9750076,8.41806062 27.7350005,8.08907184 C27.7350005,8.08907184 27.728875,7.07199267 27.7163456,6.94675743 C27.686832,6.64675564 27.4214876,6.42724223 27.1249591,6.45791781 C26.828152,6.4877491 26.6115331,6.75538671 26.6410467,7.05566991 C26.6499565,7.14460101 26.6544113,7.23550213 26.6544113,7.32527746 L26.6544113,7.34610313 C26.623784,7.33794168 26.5934351,7.32865459 26.5622509,7.32218174 L26.5622509,6.73174679 C26.5622509,6.38080663 26.5352431,6.03605791 26.4840119,5.69947057 C26.8696382,5.43661728 27.1193904,4.99139888 27.1193904,4.50087065 L27.1193904,3.8420488 L28.2899126,3.8420488 C29.7397006,3.8420488 30.919411,5.03445727 30.919411,6.50013191 L30.919411,6.50013191 Z M25.4321011,2.96202486 L25.6902063,2.96202486 C25.8823234,2.96202486 26.038523,3.11990576 26.038523,3.31380932 L26.038523,4.11559637 C25.8684019,3.70949641 25.6598574,3.32365923 25.4179012,2.96286916 C25.4226345,2.96258775 25.4273678,2.96202486 25.4321011,2.96202486 L25.4321011,2.96202486 Z M18.2705883,1.09222027 L19.9019131,1.09222027 C22.787846,1.09222027 25.1689843,3.31831216 25.4529835,6.16101174 C24.2529476,5.11466418 22.7040384,4.5166306 21.0961018,4.5166306 L17.0763995,4.5166306 C15.4681845,4.5166306 13.9192753,5.11466418 12.7192394,6.16101174 C13.0032386,3.31831216 15.3843769,1.09222027 18.2705883,1.09222027 Z M12.4633617,2.96202486 L12.7214669,2.96202486 C12.7323257,2.96202486 12.7429061,2.96315057 12.7534864,2.96399487 C12.5026205,3.33801205 12.2885074,3.73904635 12.1153235,4.16118759 L12.1153235,3.31380932 C12.1153235,3.11990576 12.2715231,2.96202486 12.4633617,2.96202486 Z M7.23443557,6.50013191 C7.23443557,5.03445727 8.41386742,3.8420488 9.86393386,3.8420488 L11.0347345,3.8420488 L11.0347345,4.50087065 C11.0347345,5.00209316 11.2908906,5.45181433 11.6865405,5.71157197 C11.6364229,6.04450077 11.6102504,6.38502806 11.6102504,6.73174679 L11.6102504,7.29488329 C11.5729408,7.29966754 11.5361879,7.30614039 11.4997135,7.31317606 C11.499992,7.22734068 11.5041684,7.14150529 11.5125214,7.05707703 C11.5423134,6.75707524 11.3256944,6.4894377 11.0288874,6.45932493 C10.7320804,6.42921217 10.4670145,6.64816283 10.4372224,6.94816455 C10.4249715,7.07255556 10.4185676,7.96524373 10.4185676,7.96524373 C10.1568429,8.28775965 9.99952957,8.70005098 9.99952957,9.14892793 L9.99952957,9.75934432 C9.99952957,9.9884263 10.032106,10.2099098 10.092247,10.4198547 C9.56127988,11.5526005 8.47178098,12.2964136 7.23443557,12.370429 L7.23443557,6.50013191 Z" id="Shape"></path>
            <path d="M17.2307692,9.23076926 C17.2307692,9.57075484 16.9553702,9.84615385 16.6153846,9.84615385 C16.2756122,9.84615385 16,9.57075484 16,9.23076926 C16,8.89099677 16.2756122,8.61538462 16.6153846,8.61538462 C16.9553702,8.61538462 17.2307692,8.89099677 17.2307692,9.23076926 Z" id="Path"></path>
            <path d="M22.1538462,9.23076926 C22.1538462,9.57075484 21.878234,9.84615385 21.5384615,9.84615385 C21.1984759,9.84615385 20.9230769,9.57075484 20.9230769,9.23076926 C20.9230769,8.89099677 21.1984759,8.61538462 21.5384615,8.61538462 C21.878234,8.61538462 22.1538462,8.89099677 22.1538462,9.23076926 L22.1538462,9.23076926 Z" id="Path"></path>
            <path d="M21.2504371,11 L16.7496494,11 C16.5370728,11 16.3337947,11.0773867 16.1917326,11.2127581 C16.0494121,11.3479092 15.9812222,11.5291394 16.0044688,11.7097082 C16.1715856,13.0155802 17.4594437,14 18.9999141,14 C20.5406429,14 21.828501,13.0155802 21.9956177,11.7097082 C22.018606,11.5291394 21.9504162,11.3479092 21.808354,11.2125377 C21.6662919,11.0773867 21.4627555,11 21.2504371,11 L21.2504371,11 Z M18.9998674,13 C18.0435474,13 17.2293366,12.5815226 17,12 L21,12 C20.7706635,12.5815226 19.9564526,13 18.9998674,13 Z" id="Shape"></path>
            <path d="M36.4622595,23.3224632 L36.4622595,22.7320282 C36.4622595,19.019999 33.2152605,16 29.2238423,16 L27.4508538,16 C23.4594356,16 20.212134,19.019999 20.212134,22.7320282 L20.212134,23.2948833 C19.2259299,23.4139272 18.4615385,24.1999543 18.4615385,25.1492093 L18.4615385,25.7593442 C18.4615385,27.0367439 19.5466959,28.0825286 20.9048069,28.1419099 C22.0976932,30.4983026 24.6229688,32 27.4508538,32 L29.2238423,32 C32.0514247,32 34.5779107,30.4974583 35.770797,28.1402213 C37.0986471,28.0647987 38.1538462,27.0364625 38.1538462,25.7829842 L38.1538462,25.2629061 C38.1538462,24.3099924 37.427281,23.5118639 36.4622595,23.3224632 L36.4622595,23.3224632 Z M27.4508538,17.0922203 L29.2238423,17.0922203 C32.3603889,17.0922203 34.9483046,19.3185936 35.2569662,22.1612931 C33.9527196,21.1146641 32.2693034,20.5166306 30.5217341,20.5166306 L26.152962,20.5166306 C24.4053926,20.5166306 22.7219764,21.1146641 21.4177299,22.1612931 C21.7260888,19.3185936 24.3140045,17.0922203 27.4508538,17.0922203 Z M36.979419,25.7829842 C36.979419,26.4828945 36.3672402,27.0522224 35.6143479,27.0522224 C35.5756139,27.0522224 35.5317356,27.0488453 35.4760555,27.0415281 C35.2082461,27.0049426 34.9492124,27.1442492 34.8478383,27.3775526 C33.9167092,29.5223119 31.7091735,30.9077797 29.2238423,30.9077797 L27.4508538,30.9077797 C24.9624965,30.9077797 22.7540531,29.5200605 21.8244369,27.3724869 C21.733654,27.1628234 21.5160779,27.0299896 21.2800426,27.0299896 C21.2455451,27.0299896 21.2104424,27.0328039 21.1756424,27.0387139 C21.1211726,27.048001 21.0724525,27.0522224 21.0261533,27.0522224 C20.2596436,27.0522224 19.6359657,26.4724817 19.6359657,25.7593442 L19.6359657,25.1492093 C19.6359657,24.7205952 20.0108987,24.3719065 20.4717728,24.3719065 L20.7991962,24.3719065 C21.1235935,24.3719065 21.3865611,24.1273459 21.3865611,23.8256556 L21.3865611,23.7628973 C22.5325429,22.4112008 24.2997819,21.6091323 26.152962,21.6091323 L30.5214315,21.6091323 C32.3746116,21.6091323 34.1418506,22.4112008 35.2878324,23.7628973 L35.2878324,23.8256556 C35.2878324,24.1273459 35.5508,24.3719065 35.8751973,24.3719065 L36.021055,24.3719065 C36.549411,24.3719065 36.979419,24.7715336 36.979419,25.2629061 L36.979419,25.7829842 Z" id="Shape"></path>
            <path d="M25.8461538,24 C25.8461538,24.3399856 25.5705894,24.6153846 25.2308758,24.6153846 C24.890949,24.6153846 24.6153846,24.3399856 24.6153846,24 C24.6153846,23.6602275 24.890949,23.3846154 25.2308758,23.3846154 C25.5705894,23.3846154 25.8461538,23.6602275 25.8461538,24 L25.8461538,24 Z" id="Path"></path>
            <path d="M32,24 C32,24.3399856 31.724601,24.6153846 31.3846154,24.6153846 C31.0446298,24.6153846 30.7692308,24.3399856 30.7692308,24 C30.7692308,23.6602275 31.0446298,23.3846154 31.3846154,23.3846154 C31.724601,23.3846154 32,23.6602275 32,24 L32,24 Z" id="Path"></path>
            <path d="M31.0773655,25.8461538 L25.5380047,25.8461538 C25.2763751,25.8461538 25.02619,25.9416633 24.8513464,26.1079908 C24.6765029,26.2745896 24.5922601,26.4976258 24.6208709,26.7198481 C24.8265504,28.3266857 26.4112686,29.5384615 28.3075261,29.5384615 C30.2037837,29.5384615 31.7888197,28.3266857 31.9944993,26.7201194 C32.0231101,26.4976258 31.9391852,26.2745896 31.7643416,26.1082621 C31.5891802,25.9416633 31.338995,25.8461538 31.0773655,25.8461538 L31.0773655,25.8461538 Z M28.3075261,28.4854158 C27.1605526,28.4854158 26.1842899,27.8214625 25.9096266,26.8994709 L30.7057435,26.8994709 C30.4307624,27.8214625 29.4544997,28.4854158 28.3075261,28.4854158 Z" id="Shape"></path>
            <path d="M18.0010237,23.322053 L18.0010237,22.7319098 C18.0010237,19.0199459 14.753722,16 10.7623038,16 L8.98931524,16 C4.9978971,16 1.75059545,19.0199459 1.75059545,22.7319098 L1.75059545,23.2950364 C0.764391421,23.4137968 0,24.2000914 0,25.1490484 L0,25.7591726 C0,27.0365498 1.08515732,28.0825975 2.44326838,28.1416963 C3.63615473,30.498329 6.16143028,32 8.98931524,32 L10.7623038,32 C13.5901889,32 16.1163722,30.4972034 17.3092585,28.1400077 C18.6368061,28.0645865 19.6923077,27.0359869 19.6923077,25.7828121 L19.6923077,25.2627432 C19.6923077,24.3098463 18.9657424,23.5117318 18.0010237,23.322053 Z M18.5178805,25.7828121 C18.5178805,26.4827101 17.905399,27.052028 17.1528095,27.052028 C17.1140755,27.052028 17.0701971,27.048651 17.0145169,27.0413339 C16.7473129,27.004749 16.4873714,27.1440532 16.3862999,27.3773525 C15.4551706,29.5220741 13.2476349,30.9075175 10.7620012,30.9075175 L8.98901265,30.9075175 C6.50095808,30.9075175 4.29251453,29.5198227 3.36289841,27.3722869 C3.27211558,27.1626271 3.05453947,27.0297956 2.81850405,27.0297956 C2.78400662,27.0297956 2.74920651,27.0326099 2.71410382,27.0385197 C2.65963413,27.0478067 2.61061144,27.052028 2.56461481,27.052028 C1.79810518,27.052028 1.17442712,26.4722975 1.17442712,25.7591726 L1.17442712,25.1490484 C1.17442712,24.7204419 1.5493602,24.3717593 2.01023436,24.3717593 L2.33765771,24.3717593 C2.662055,24.3717593 2.92502257,24.127203 2.92502257,23.825518 L2.92502257,23.7627608 C4.07100444,22.411088 5.83824342,21.6090337 7.69142348,21.6090337 L12.0601957,21.6090337 C12.4593374,21.6090337 12.8581767,21.6450558 13.2458193,21.7165371 C13.5638618,21.7753544 13.872826,21.5828613 13.9360714,21.2870863 C13.9990141,20.9913111 13.7923319,20.7036972 13.4739868,20.6451613 C13.0115997,20.5598903 12.535595,20.5165512 12.0601957,20.5165512 L7.69142348,20.5165512 C5.94385409,20.5165512 4.26043797,21.1145741 2.95588876,22.1611848 C3.26455037,19.3185352 5.85246608,17.0922011 8.98931524,17.0922011 L10.7623038,17.0922011 C13.8979426,17.0922011 16.4852531,19.3171281 16.7951251,22.1583706 C16.5245923,21.9405495 16.2371134,21.740458 15.9323857,21.5603475 C15.6585242,21.398811 15.2956954,21.4742323 15.1216951,21.7289197 C14.9479972,21.9836071 15.0290966,22.3210328 15.3029581,22.4825694 C15.8879021,22.8278749 16.3987068,23.2592958 16.8262939,23.7647307 L16.8262939,23.825518 C16.8262939,24.127203 17.0892615,24.3714779 17.4136588,24.3714779 L17.5595165,24.3714779 C18.0878725,24.3714779 18.5178805,24.7713793 18.5178805,25.2627432 L18.5178805,25.7828121 Z" id="Shape"></path>
            <path d="M7.38461538,24 C7.38461538,24.3399856 7.10905091,24.6153846 6.76933732,24.6153846 C6.42941057,24.6153846 6.15384615,24.3399856 6.15384615,24 C6.15384615,23.6602275 6.42941057,23.3846154 6.76933732,23.3846154 C7.10905091,23.3846154 7.38461538,23.6602275 7.38461538,24 L7.38461538,24 Z" id="Path"></path>
            <path d="M13.5384615,24 C13.5384615,24.3399856 13.2630625,24.6153846 12.9230769,24.6153846 C12.5833044,24.6153846 12.3076923,24.3399856 12.3076923,24 C12.3076923,23.6602275 12.5833044,23.3846154 12.9230769,23.3846154 C13.2630625,23.3846154 13.5384615,23.6602275 13.5384615,24 L13.5384615,24 Z" id="Path"></path>
            <path d="M12.6159226,25.8461538 L7.07649162,25.8461538 C6.81485878,25.8461538 6.5646704,25.9416633 6.3898247,26.1079908 C6.21466103,26.2745896 6.13073508,26.4976258 6.15934624,26.7198481 C6.36502835,28.3266857 7.95008453,29.5384615 9.84604819,29.5384615 C11.7423297,29.5384615 13.3273858,28.3266857 13.533068,26.7198481 C13.5613612,26.4976258 13.4774353,26.2745896 13.3025896,26.1079908 C13.1277439,25.9416633 12.8775555,25.8461538 12.6159226,25.8461538 L12.6159226,25.8461538 Z M9.84604819,28.4854158 C8.699378,28.4854158 7.72310293,27.8214625 7.44811828,26.8994709 L12.244296,26.8994709 C11.9693113,27.8217338 10.9930363,28.4854158 9.84604819,28.4854158 Z" id="Shape"></path>
        </g>
    </g>
</svg>