<?xml version="1.0" encoding="UTF-8"?>
<svg width="23px" height="32px" viewBox="0 0 23 32" version="1.1" xmlns="http://www.w3.org/2000/svg" xmlns:xlink="http://www.w3.org/1999/xlink">
    <!-- Generator: Sketch 62 (91390) - https://sketch.com -->
    <title>xdpi/Icon/women</title>
    <desc>Created with Sketch.</desc>
    <g id="Icon/women" stroke="none" stroke-width="1" fill="none" fill-rule="evenodd">
        <g id="001-woman" fill="#FF596A" fill-rule="nonzero">
            <path d="M21.3332455,22.9255113 C20.9180127,20.8127014 18.9669293,20.4530769 18.9607768,20.4502019 L18.9607768,20.4502644 C18.9397968,20.4440144 19.1397533,20.4949518 14.2023656,19.2517034 L14.2023656,19.0815161 L17.8369597,19.0815161 C18.5861506,19.0815161 19.1956181,18.4623294 19.1956181,17.7013303 L19.1956181,10.6597141 C19.2567125,10.3979019 19.2568355,10.1257147 19.1956181,9.86334007 L19.1956181,7.29340577 C19.1956181,7.03440609 18.9889553,6.82459385 18.7341184,6.82459385 C18.4791585,6.82459385 18.2726188,7.03440609 18.2726188,7.29340577 L18.2726188,8.63884159 C18.0289795,8.49109178 17.7507015,8.38515441 17.4508283,8.33271698 C17.3425442,7.84415508 16.9431233,7.45790557 16.4365873,7.39034315 C15.9085791,7.31984324 15.50842,7.00715613 15.247246,6.46103181 C15.1249957,6.20534463 14.8855401,6.03740733 14.6068314,6.01165737 C14.3278767,5.9860324 14.0637496,6.10709475 13.8984317,6.33571946 C13.1051273,7.4324681 10.8997608,9.89240253 7.09154285,9.89227753 C6.80182125,9.89227753 6.60537167,9.87834005 6.53695578,9.87521505 C5.83716951,9.83240261 5.24548281,10.4004019 5.24548281,11.1127135 L5.24548281,12.1898997 C5.24548281,13.911585 5.94859143,15.5807079 7.17441714,16.7692065 C7.58097487,17.1633935 8.02943118,17.4922056 8.50766563,17.7543927 L8.50766563,18.1440173 L4.88968327,18.1440173 C4.64942783,18.1440173 4.45396265,17.945455 4.45396265,17.7014553 L4.45396265,7.16709343 C4.45396265,3.75191018 7.19508956,0.937788686 10.5062464,0.937788686 C10.5169517,0.937788686 10.5276571,0.937851186 10.5383009,0.937913686 C11.7246275,0.944351178 13.0943604,1.28666325 14.0277574,1.8097251 C14.619321,2.14141219 14.9847185,1.87778752 15.5688991,1.87778752 C16.9947429,1.87778752 18.1373867,3.36716066 18.2743415,4.70672149 C18.2752029,4.72634647 18.2772332,4.80490887 18.2774793,5.10590849 C18.2777869,5.55847043 18.780939,5.59322039 18.7393481,5.57434541 C18.994308,5.57415791 19.2006631,5.36403317 19.2004785,5.1051585 C19.200417,5.0219086 19.2010938,4.69547151 19.1934032,4.6197216 C19.0078435,2.75491142 17.4419687,0.940163683 15.5689607,0.940163683 C14.8374275,0.940163683 14.7234215,1.12853845 14.4736912,0.988788622 C13.4152752,0.395601861 11.8724723,0.00753984426 10.5432844,0.000144088311 C6.71199463,-0.0248976153 3.53090186,3.21741085 3.53090186,7.16703093 L3.53090186,17.7013928 C3.53090186,18.4624544 4.14043084,19.0815786 4.88962174,19.0815786 L8.50766563,19.0815786 L8.50766563,19.2517659 L3.76789647,20.4450769 C3.76162092,20.4466394 3.75546841,20.4484519 3.74925437,20.4502644 L3.40299122,20.5540143 C3.39259348,20.5571393 3.38238032,20.5605767 3.37222868,20.5643892 C2.75427077,20.798639 1.67333663,21.4168257 1.37672422,22.9257613 C-0.0278933739,30.0933774 0.0312322286,29.7873153 0.0278483492,29.8118777 C-0.141345622,31.0275637 0.457724087,32 1.89882605,32 L6.88943296,32 C7.1443929,32 7.35093259,31.7901253 7.35093259,31.5311881 C7.35093259,31.2721884 7.14433137,31.0623762 6.88943296,31.0623762 L5.15276451,31.0623762 L5.15276451,26.6405067 C5.15276451,26.381507 4.94616329,26.1716948 4.69126488,26.1716948 C4.43636647,26.1716948 4.22976525,26.3815695 4.22976525,26.6405067 L4.22976525,31.0623762 L1.89882605,31.0623762 C1.28579015,31.0623762 0.929806031,30.8618764 0.923899623,30.2076897 C0.92131557,29.8885651 0.908949028,30.1996272 2.28194273,23.1090736 C2.48860547,22.0576374 3.24019586,21.6184504 3.68053086,21.4483881 L4.00058433,21.3525133 L6.72245389,20.6672016 C9.75028769,24.2906971 9.5710036,24.0986973 9.74598093,24.2720721 C10.7565919,25.2735084 12.1986167,25.202821 13.1477026,24.0705724 L15.997852,20.6697641 L18.7093238,21.3524508 C18.7877683,21.3890757 20.1375055,21.6302629 20.4280885,23.1088861 C21.7892694,30.1380648 21.7887772,29.8870651 21.7861931,30.2073147 C21.7815172,30.8480639 21.4402991,31.0624387 20.8112667,31.0624387 L18.4968777,31.0624387 L18.4968777,26.6405067 C18.4968777,26.381507 18.290338,26.1716948 18.0353781,26.1716948 C17.7804182,26.1716948 17.5738785,26.3815695 17.5738785,26.6405067 L17.5738785,31.0623762 L9.04311841,31.0623762 C8.78815848,31.0623762 8.58161878,31.2722509 8.58161878,31.5311881 C8.58161878,31.7901878 8.78822,32 9.04311841,32 L20.8113282,32 C21.951511,32 22.6987331,31.3626883 22.7094764,30.2148147 C22.71313,29.6787529 22.6816907,29.9348776 21.3332455,22.9255113 Z M17.4810371,9.29990327 C17.8664302,9.41634063 18.1636579,9.6743403 18.2726803,9.99296491 L18.2726803,10.5300892 C18.1636579,10.8487763 17.8664302,11.106776 17.4810371,11.2231509 L17.4810371,9.29990327 Z M17.4810371,12.2715246 L17.4810371,12.1849622 C17.7694667,12.1308372 18.0372854,12.0270874 18.2726803,11.8842751 L18.2726803,17.7013928 C18.2726803,17.945455 18.0772151,18.1438923 17.8370212,18.1438923 L14.2023656,18.1438923 L14.2023656,17.7815802 C16.1591092,16.742394 17.4810371,14.6617091 17.4810371,12.2715246 Z M7.81175545,16.0908323 C6.76749025,15.0782711 6.16860512,13.6564603 6.16860512,12.1897747 C6.1960453,11.1690259 6.10209651,11.0453386 6.26243087,10.8919638 C6.31921852,10.8375889 6.39557114,10.8060264 6.48152168,10.8110264 C9.79058661,11.0134011 12.6367368,9.53565298 14.5158359,7.06140606 C15.0224949,7.96515493 15.7655333,8.24652958 16.3164289,8.32009199 C16.454122,8.33846697 16.5580379,8.45784182 16.5580379,8.59790415 C16.5580379,9.89484003 16.5580379,10.9839637 16.5580379,12.2715871 C16.5580379,16.9363313 11.0606489,19.2407659 7.81175545,16.0908323 Z M12.4447786,23.4626981 C11.80178,24.2300097 10.901668,24.2279472 10.2602076,23.4588231 L9.29727852,22.3042621 L13.4156444,22.3042621 L12.4447786,23.4626981 Z M14.2015657,21.3665757 L8.51535627,21.3665757 L7.72223645,20.4155769 L9.08034108,20.0735774 C9.28632705,20.0217649 9.43078794,19.8293902 9.43078794,19.6138904 L9.43084947,18.1635172 C10.7007271,18.5935167 12.0417893,18.5888292 13.2793663,18.1768922 C13.2880413,19.6753278 13.2595552,19.6410154 13.3050838,19.7732027 C13.3554113,19.9193275 13.4753237,20.0346399 13.6297516,20.0735149 L14.9967774,20.4177019 L14.2015657,21.3665757 Z" id="Shape"></path>
        </g>
    </g>
</svg>