<?xml version="1.0" encoding="UTF-8"?>
<svg width="13px" height="19px" viewBox="0 0 13 19" version="1.1" xmlns="http://www.w3.org/2000/svg" xmlns:xlink="http://www.w3.org/1999/xlink">
    <!-- Generator: Sketch 62 (91390) - https://sketch.com -->
    <title>iconos_header/Icon/bolsa/inactive</title>
    <desc>Created with Sketch.</desc>
    <g id="Symbols" stroke="none" stroke-width="1" fill="none" fill-rule="evenodd">
        <g id="btn/bolsa/inactive" transform="translate(-8.000000, 0.000000)" fill="#FFFFFF">
            <g id="Icon/bolsa/inactive" transform="translate(8.000000, 0.000000)">
                <g id="negocio">
                    <path d="M12.5926642,4.84183515 L10.1031654,4.84183515 L10.1031654,3.74901054 C10.1031654,1.67859483 8.53509959,0 6.60101269,0 C4.66679949,0 3.09873362,1.67859483 3.09873362,3.74901054 L3.09873362,4.84183515 L0.403545447,4.84183515 C0.181052153,4.84251139 0.000631716133,5.03537872 0,5.27382545 L0,16.8403189 C0.000505379375,18.0329584 0.903491986,18.9995942 2.01747447,19 L10.9826519,19 C12.0967607,18.9995942 12.9997473,18.0329584 13,16.8403189 L13,5.27382545 C12.9974731,5.0345672 12.8159156,4.84224087 12.5926642,4.84183515 Z M3.90165511,3.74468253 C3.90165511,2.15129554 5.10850106,0.859382101 6.59684332,0.859382101 C8.08556462,0.859382101 9.29215789,2.15129554 9.29215789,3.74468253 L9.29215789,4.83750713 L3.90165511,4.83750713 L3.90165511,3.74468253 Z M12.1891188,16.8403189 C12.1870973,17.5552534 11.6463414,18.1341259 10.9787352,18.1361546 L2.01355777,18.1361546 C1.34569894,18.1341259 0.804943008,17.5552534 0.803047827,16.8403189 L0.803047827,5.70568051 L3.09469059,5.70568051 L3.09469059,7.46353218 C3.09469059,7.70211419 3.27549007,7.89552249 3.4981097,7.89552249 C3.720982,7.89552249 3.90165511,7.70211419 3.90165511,7.46353218 L3.90165511,5.70568051 L9.29620093,5.70568051 L9.29620093,7.46353218 C9.29620093,7.70211419 9.47687404,7.89552249 9.69974634,7.89552249 C9.92236594,7.89552249 10.1031654,7.70211419 10.1031654,7.46353218 L10.1031654,5.70568051 L12.1891188,5.70568051 L12.1891188,16.8403189 Z" id="Shape" fill-rule="nonzero"></path>
                </g>
            </g>
        </g>
    </g>
</svg>