<?xml version="1.0" encoding="UTF-8"?>
<svg width="12px" height="11px" viewBox="0 0 12 11" version="1.1" xmlns="http://www.w3.org/2000/svg" xmlns:xlink="http://www.w3.org/1999/xlink">
    <!-- Generator: Sketch 62 (91390) - https://sketch.com -->
    <title>iconos_header/call</title>
    <desc>Created with Sketch.</desc>
    <g id="Symbols" stroke="none" stroke-width="1" fill="none" fill-rule="evenodd">
        <g id="header" transform="translate(-786.000000, -10.000000)" fill="#969696" fill-rule="nonzero">
            <g id="Group-5" transform="translate(786.000000, 9.000000)">
                <g id="Group-4">
                    <g id="call" transform="translate(-0.000000, 1.000000)">
                        <path d="M10.6986947,6.82640833 C9.98653487,6.82640833 9.28727932,6.72682292 8.62464654,6.5310375 C8.2999489,6.43202083 7.90079406,6.52285833 7.70262521,6.70483125 L6.39471684,7.58758542 C4.87791632,6.863675 3.94359653,6.0285875 3.14498392,4.68262708 L4.10326452,3.54371875 C4.3522327,3.32141875 4.44153288,2.99668958 4.33454229,2.69200208 C4.11462394,2.09643958 4.00290784,1.47154583 4.00290784,0.834545833 C4.00293813,0.374372917 3.5842148,0 3.06955738,0 L0.93338075,0 C0.418723335,0 0,0.374372917 0,0.83451875 C0,6.10899792 4.79936972,10.4 10.6986947,10.4 C11.2133521,10.4 11.6320755,10.0256271 11.6320755,9.56548125 L11.6320755,7.6609 C11.6320755,7.20078125 11.2133218,6.82640833 10.6986947,6.82640833 Z" id="Path"></path>
                    </g>
                </g>
            </g>
        </g>
    </g>
</svg>