<?xml version="1.0" encoding="UTF-8"?>
<svg width="13px" height="10px" viewBox="0 0 13 10" version="1.1" xmlns="http://www.w3.org/2000/svg" xmlns:xlink="http://www.w3.org/1999/xlink">
    <!-- Generator: Sketch 62 (91390) - https://sketch.com -->
    <title>iconos_header/Icon/devoluciones</title>
    <desc>Created with Sketch.</desc>
    <g id="Symbols" stroke="none" stroke-width="1" fill="none" fill-rule="evenodd">
        <g id="header" transform="translate(-1070.000000, -11.000000)" fill="#969696">
            <g id="Group-5" transform="translate(786.000000, 9.000000)">
                <g id="Group-2" transform="translate(284.000000, 0.000000)">
                    <g id="Icon/devoluciones/inactive" transform="translate(0.000000, 2.000000)">
                        <g id="exchange-alt-solid">
                            <path d="M0,2.75029585 L0,2.35748038 C0,2.03205732 0.272822266,1.76825718 0.609375,1.76825718 L9.75,1.76825718 L9.75,0.589810775 C9.75,0.0652302678 10.4075918,-0.196851302 10.7902793,0.173156318 L12.8215293,2.13723366 C13.0594902,2.36734987 13.0594902,2.74042636 12.8215293,2.97051802 L10.7902793,4.93459536 C10.4090391,5.30315448 9.75,5.044731 9.75,4.51796546 L9.75,3.33951905 L0.609375,3.33951905 C0.272822266,3.33951905 0,3.07571891 0,2.75029585 Z M12.390625,6.4820428 L3.25,6.4820428 L3.25,5.30359639 C3.25,4.78031709 2.59334766,4.51600138 2.2097207,4.88694194 L0.178470703,6.85101928 C-0.0594902344,7.08113549 -0.0594902344,7.45421198 0.178470703,7.68430364 L2.2097207,9.64838098 C2.59129102,10.0173084 3.25,9.75805015 3.25,9.23175108 L3.25,8.05330467 L12.390625,8.05330467 C12.7271777,8.05330467 13,7.78950453 13,7.46408147 L13,7.071266 C13,6.74584294 12.7271777,6.4820428 12.390625,6.4820428 Z" id="Shape" fill-rule="nonzero"></path>
                        </g>
                    </g>
                </g>
            </g>
        </g>
    </g>
</svg>