<?xml version="1.0" encoding="UTF-8"?>
<svg width="13px" height="10px" viewBox="0 0 13 10" version="1.1" xmlns="http://www.w3.org/2000/svg" xmlns:xlink="http://www.w3.org/1999/xlink">
    <!-- Generator: Sketch 62 (91390) - https://sketch.com -->
    <title>iconos_header/Icono/envios</title>
    <desc>Created with Sketch.</desc>
    <g id="Symbols" stroke="none" stroke-width="1" fill="none" fill-rule="evenodd">
        <g id="header" transform="translate(-936.000000, -11.000000)" fill="#969696">
            <g id="Group-5" transform="translate(786.000000, 9.000000)">
                <g id="Group-3" transform="translate(150.000000, 0.000000)">
                    <g id="Icono/envios" transform="translate(0.000000, 2.000000)">
                        <g id="truck-solid" transform="translate(6.500000, 5.000000) scale(-1, 1) translate(-6.500000, -5.000000) ">
                            <path d="M12.168,6.875 L11.856,6.875 L11.856,4.76367188 C11.856,4.515625 11.75655,4.27734375 11.58105,4.1015625 L9.633,2.15039062 C9.4575,1.97460938 9.2196,1.875 8.97195,1.875 L8.112,1.875 L8.112,0.9375 C8.112,0.419921875 7.69275,0 7.176,0 L0.936,0 C0.41925,0 0,0.419921875 0,0.9375 L0,7.1875 C0,7.70507812 0.41925,8.125 0.936,8.125 L1.248,8.125 C1.248,9.16015625 2.0865,10 3.12,10 C4.1535,10 4.992,9.16015625 4.992,8.125 L7.488,8.125 C7.488,9.16015625 8.3265,10 9.36,10 C10.3935,10 11.232,9.16015625 11.232,8.125 L12.168,8.125 C12.3396,8.125 12.48,7.984375 12.48,7.8125 L12.48,7.1875 C12.48,7.015625 12.3396,6.875 12.168,6.875 Z M3.12,9.0625 C2.60325,9.0625 2.184,8.64257812 2.184,8.125 C2.184,7.60742188 2.60325,7.1875 3.12,7.1875 C3.63675,7.1875 4.056,7.60742188 4.056,8.125 C4.056,8.64257812 3.63675,9.0625 3.12,9.0625 Z M9.36,9.0625 C8.84325,9.0625 8.424,8.64257812 8.424,8.125 C8.424,7.60742188 8.84325,7.1875 9.36,7.1875 C9.87675,7.1875 10.296,7.60742188 10.296,8.125 C10.296,8.64257812 9.87675,9.0625 9.36,9.0625 Z M10.92,5 L8.112,5 L8.112,2.8125 L8.97195,2.8125 L10.92,4.76367188 L10.92,5 Z" id="Shape" fill-rule="nonzero"></path>
                        </g>
                    </g>
                </g>
            </g>
        </g>
    </g>
</svg>