<?xml version="1.0" encoding="UTF-8"?>
<svg width="20px" height="19px" viewBox="0 0 20 19" version="1.1" xmlns="http://www.w3.org/2000/svg" xmlns:xlink="http://www.w3.org/1999/xlink">
    <!-- Generator: Sketch 62 (91390) - https://sketch.com -->
    <title>iconos_header/icon/like</title>
    <desc>Created with Sketch.</desc>
    <g id="Symbols" stroke="none" stroke-width="1" fill="none" fill-rule="evenodd">
        <g id="header" transform="translate(-1158.000000, -46.000000)" stroke="#FFFFFF">
            <path d="M1177.5,52 C1177.5,54.035236 1176.49484,55.8186976 1174.98651,56.7723518 L1167.99713,64.2698234 L1160.67421,56.5374826 C1159.35636,55.5420327 1158.5,53.8787282 1158.5,52 C1158.5,50.4759225 1159.06345,49.0945416 1159.97949,48.0952216 C1160.88047,47.1123375 1162.1239,46.5 1163.5,46.5 C1165.19018,46.5 1166.67843,47.4231059 1167.58079,48.8218885 C1167.74349,49.0740859 1167.88424,49.3372603 1168.00165,49.6078595 C1168.1186,49.3368544 1168.25898,49.0736945 1168.42135,48.8215225 C1169.32189,47.4228817 1170.81003,46.5 1172.5,46.5 C1173.8761,46.5 1175.11953,47.1123375 1176.02051,48.0952216 C1176.93655,49.0945416 1177.5,50.4759225 1177.5,52 Z" id="icon/like"></path>
        </g>
    </g>
</svg>