<?xml version="1.0" encoding="UTF-8"?>
<svg width="10px" height="12px" viewBox="0 0 10 12" version="1.1" xmlns="http://www.w3.org/2000/svg" xmlns:xlink="http://www.w3.org/1999/xlink">
    <!-- Generator: Sketch 62 (91390) - https://sketch.com -->
    <title>iconos_header/apoyar</title>
    <desc>Created with Sketch.</desc>
    <g id="Symbols" stroke="none" stroke-width="1" fill="none" fill-rule="evenodd">
        <g id="header" transform="translate(-1219.000000, -10.000000)" fill="#969696" fill-rule="nonzero">
            <g id="Group-5" transform="translate(786.000000, 9.000000)">
                <g id="Group" transform="translate(433.000000, 1.000000)">
                    <g id="apoyar">
                        <path d="M7.92656522,8.52335156 L6.89330435,8.15210156 L6.52236957,7.35225 C6.85654348,6.98554688 7.08856522,6.50034375 7.16680435,5.99425781 L7.21306522,5.6953125 L7.60869565,5.6953125 C7.96830435,5.6953125 8.26086957,5.37989062 8.26086957,4.9921875 L8.26086957,3.515625 C8.26086957,1.57710938 6.79804348,0 5,0 C3.19734783,0 1.73913043,1.57258594 1.73913043,3.515625 L1.73913043,4.9921875 C1.73913043,5.29771875 1.9208913,5.55825 2.17391304,5.655 L2.17391304,5.9296875 C2.17391304,6.31739063 2.46647826,6.6328125 2.82608696,6.6328125 L3.017,6.6328125 C3.11123913,6.85352344 3.23321739,7.05794531 3.38165217,7.24157813 C3.41243478,7.27973437 3.44454348,7.31671875 3.47743478,7.35269531 L3.10669565,8.15210156 L2.07341304,8.523375 C0.872,8.95528125 0,10.3188516 0,11.765625 C0,11.8950703 0.097326087,12 0.217391304,12 L9.7826087,12 C9.90265217,12 10,11.8950703 10,11.765625 C10,10.3188516 9.12802174,8.95528125 7.92656522,8.52335156 Z M7.82608696,4.9921875 C7.82608696,5.12142188 7.72856522,5.2265625 7.60869565,5.2265625 L7.27691304,5.2265625 C7.33217391,4.76507813 7.369,4.27399219 7.38380435,3.7903125 C7.38423913,3.77667187 7.38458696,3.76340625 7.38497826,3.75 L7.82608696,3.75 L7.82608696,4.9921875 Z M2.39130435,5.2265625 C2.27143478,5.2265625 2.17391304,5.12142188 2.17391304,4.9921875 L2.17391304,3.75 L2.61517391,3.75 C2.6158913,3.77444531 2.61665217,3.79900781 2.6175,3.82373437 C2.61752174,3.82457812 2.61756522,3.82539844 2.61758696,3.82624219 C2.61758696,3.8263125 2.61758696,3.82638281 2.61758696,3.82645312 C2.63280435,4.29689062 2.66915217,4.77522656 2.72315217,5.22653906 L2.39130435,5.22653906 L2.39130435,5.2265625 Z M2.82608696,6.1640625 C2.70621739,6.1640625 2.60869565,6.05892188 2.60869565,5.9296875 L2.60869565,5.6953125 L2.78691304,5.6953125 L2.83317391,5.99435156 C2.842,6.0511875 2.85284783,6.1078125 2.8653913,6.1640625 L2.82608696,6.1640625 Z M2.60906522,3.28125 L2.18217391,3.28125 C2.29228261,1.71044531 3.50819565,0.46875 5,0.46875 C6.48517391,0.46875 7.70643478,1.71028125 7.81780435,3.28125 L7.39095652,3.28125 C7.37530435,1.98686719 6.39763043,0.9375 5.19458696,0.9375 L4.80545652,0.9375 C3.60243478,0.9375 2.62469565,1.98686719 2.60906522,3.28125 Z M4.80543478,1.40625 L5.19456522,1.40625 C6.16867391,1.40625 6.95708696,2.26525781 6.95652204,3.31429687 C6.95652204,3.38805469 6.95597826,3.45227344 6.95482609,3.51070312 C6.95482609,3.51145313 6.95480435,3.51222656 6.95480435,3.513 L6.6828913,3.47111719 C5.94419565,3.35739844 5.24671739,2.98141406 4.71893478,2.41239844 C4.67815217,2.36845312 4.62286957,2.34375 4.56521739,2.34375 C3.9813913,2.34375 3.42252174,2.63053125 3.05308696,3.11503125 C3.14413043,2.16067969 3.89245652,1.40625 4.80543478,1.40625 Z M3.31608696,6.1640625 C3.20726087,5.77375781 3.08273913,4.62532031 3.05521739,3.88938281 L3.34780435,3.46877344 C3.61652174,3.08261719 4.03458696,2.8426875 4.47930435,2.81514844 C5.06445652,3.41552344 5.82145652,3.81199219 6.62141304,3.93513281 L6.94145652,3.98444531 C6.92006522,4.4739375 6.87634783,4.96514063 6.81371739,5.41689844 C6.81369565,5.41703906 6.81367391,5.41720313 6.81365217,5.41736719 C6.79373913,5.56260938 6.77804348,5.65607813 6.73795652,5.91714844 C6.62282609,6.66164063 6.10756522,7.33488281 5.42736957,7.51823438 C5.14743478,7.59358594 4.85252174,7.5935625 4.57273913,7.51823438 C4.14802174,7.40376563 3.75858696,7.0869375 3.50726087,6.6328125 L3.95043478,6.6328125 C4.04017391,6.90560156 4.28180435,7.1015625 4.56521739,7.1015625 L5,7.1015625 C5.36032609,7.1015625 5.65217391,6.7869375 5.65217391,6.3984375 C5.65217391,6.01073438 5.3596087,5.6953125 5,5.6953125 L4.56521739,5.6953125 C4.2755,5.6953125 4.03743478,5.8970625 3.95006522,6.1640625 L3.31608696,6.1640625 Z M4.54693478,7.9925625 C4.69604348,8.02642969 4.84806522,8.04375 5,8.04375 C5.11893478,8.04375 5.2378913,8.03301562 5.3555,8.01220312 L4.97136957,8.45017969 L4.54693478,7.9925625 Z M4.6725,8.79091406 L3.98297826,9.57705469 C3.79315217,9.18532031 3.63004348,8.777625 3.49626087,8.36025 L3.75519565,7.80192187 L4.6725,8.79091406 Z M6.20795652,7.72251562 L6.50369565,8.36022656 C6.36969565,8.77830469 6.20654348,9.18614062 6.01691304,9.57740625 L5.27891304,8.78175 L6.20795652,7.72251562 Z M4.34782609,6.3984375 C4.34782609,6.26903906 4.44517391,6.1640625 4.56521739,6.1640625 L5,6.1640625 C5.11986957,6.1640625 5.2173913,6.26920312 5.2173913,6.3984375 C5.2173913,6.52785938 5.12002174,6.6328125 5,6.6328125 L4.56521739,6.6328125 C4.44534783,6.6328125 4.34782609,6.52767188 4.34782609,6.3984375 Z M0.443478261,11.53125 C0.529630435,10.3701797 1.24634783,9.31483594 2.21091304,8.96805469 L3.126,8.63927344 C3.29365217,9.13907812 3.50134783,9.62486719 3.74476087,10.0863047 C3.74517391,10.0871016 3.74556522,10.0878984 3.74597826,10.0886719 C3.74597826,10.0886953 3.746,10.0886953 3.746,10.0887187 C3.92384783,10.4259609 4.12402174,10.7555156 4.34104348,11.0683828 L4.60847826,11.53125 L0.443478261,11.53125 Z M5,11.3223281 L4.70517391,10.8120234 C4.70186957,10.8063047 4.69834783,10.80075 4.6946087,10.7953594 C4.51856522,10.5421875 4.35434783,10.2774141 4.20478261,10.0064062 L4.98006522,9.12248437 L5.79697826,10.0032187 C5.64641304,10.2761953 5.48163043,10.5420703 5.30543478,10.7953125 C5.29478261,10.8106172 5.3098913,10.7865 5,11.3223281 Z M5.39152174,11.53125 L5.65893478,11.0684062 C5.87691304,10.7543438 6.07852174,10.4221406 6.25815217,10.0809375 C6.25923913,10.078875 6.26026087,10.0767656 6.26134783,10.0747031 C6.26147826,10.0744453 6.2616087,10.0742109 6.26173913,10.0739531 C6.50206522,9.61692187 6.70758696,9.13535156 6.874,8.63927344 L7.78906522,8.96805469 C8.75365217,9.31483594 9.47036957,10.3701797 9.55652174,11.53125 L5.39152174,11.53125 Z" id="Shape"></path>
                        <path d="M8.72097893,10.2876974 C8.53722774,9.93737788 8.2680761,9.62615736 7.94261405,9.38768765 C7.82223956,9.29945961 7.64962397,9.32090775 7.55704725,9.43555967 C7.46444302,9.55021159 7.48696169,9.71462109 7.60730868,9.80282293 C7.86724939,9.99328968 8.08220777,10.2418942 8.22900525,10.5217675 C8.29700117,10.6513729 8.46224801,10.7035397 8.59785491,10.639012 C8.73368177,10.5743796 8.78880987,10.4170933 8.72097893,10.2876974 Z" id="Path"></path>
                    </g>
                </g>
            </g>
        </g>
    </g>
</svg>