<?xml version="1.0" encoding="UTF-8"?>
<svg width="26px" height="17px" viewBox="0 0 26 17" version="1.1" xmlns="http://www.w3.org/2000/svg" xmlns:xlink="http://www.w3.org/1999/xlink">
    <!-- Generator: Sketch 62 (91390) - https://sketch.com -->
    <title>iconos_header/Icon/pedidos/inactive</title>
    <desc>Created with Sketch.</desc>
    <g id="Symbols" stroke="none" stroke-width="1" fill="none" fill-rule="evenodd">
        <g id="header" transform="translate(-1077.000000, -47.000000)" fill="#FFFFFF">
            <g id="Icon/pedidos/inactive" transform="translate(1077.000000, 47.000000)">
                <g id="load-carriage">
                    <path d="M24.1799457,7.20688974 L23.5066358,4.42309794 C23.6907181,4.38268087 23.8288434,4.21387396 23.8288434,4.0116311 L23.8288434,3.56279159 C23.8288434,2.58826762 23.0617911,1.79546304 22.1190354,1.79546304 L19.0522481,1.79546304 L19.0522481,0.869649523 C19.0522481,0.390103528 18.6748412,0 18.2109028,0 L2.57827066,0 C2.11433225,0 1.73692527,0.390103528 1.73692527,0.869649523 L1.73692527,8.50007873 C1.73692527,8.73245068 1.91917953,8.92088874 2.14403934,8.92088874 C2.36884838,8.92088874 2.55115342,8.73250317 2.55115342,8.50007873 L2.55115342,0.869649523 C2.55115342,0.854165059 2.56329016,0.841620018 2.57827066,0.841620018 L18.210852,0.841620018 C18.2258325,0.841620018 18.2379692,0.854165059 18.2379692,0.869649523 L18.2379692,8.50018371 C18.2379692,8.73255566 18.4202235,8.92099372 18.6450833,8.92099372 C18.8698923,8.92099372 19.0521974,8.73260815 19.0521974,8.50018371 L19.0521974,8.02315723 L23.8545388,8.02315723 C23.854945,8.02315723 23.8552497,8.0232622 23.8556052,8.0232622 C23.8560114,8.0232622 23.8563669,8.02320971 23.8567224,8.02320971 C24.4476649,8.02362963 24.9494354,8.42454604 25.1217873,8.97700024 L23.8559099,8.97700024 C23.6311008,8.97700024 23.4487958,9.16538581 23.4487958,9.39781025 L23.4487958,10.2954893 C23.4487958,11.0225243 24.021,11.6139783 24.7243725,11.6139783 L25.1857718,11.6139783 L25.1857718,13.4654479 L24.1212932,13.4654479 C23.7716128,12.421795 22.8117946,11.6700373 21.6847025,11.6700373 C20.5576105,11.6700373 19.5977414,12.421795 19.2481118,13.4654479 L19.0520958,13.4654479 L19.0520958,10.2954368 C19.0520958,10.0630648 18.8698415,9.87462678 18.6449817,9.87462678 C18.4201727,9.87462678 18.2378677,10.0630124 18.2378677,10.2954368 L18.2378677,13.4653429 L9.79150741,13.4653429 C9.44182703,12.42169 8.48200875,11.6699324 7.35491671,11.6699324 C6.22782466,11.6699324 5.2679556,12.42169 4.91832601,13.4653429 L2.57827066,13.4653429 C2.56329016,13.4653429 2.55115342,13.4527979 2.55115342,13.4373134 L2.55115342,12.5115524 L4.31524671,12.5115524 C4.54005574,12.5115524 4.72236079,12.3231668 4.72236079,12.0907424 C4.72236079,11.8583179 4.54010652,11.6699324 4.31524671,11.6699324 L0.407114076,11.6699324 C0.182305044,11.6699324 0,11.8583179 0,12.0907424 C0,12.3231668 0.182254262,12.5115524 0.407114076,12.5115524 L1.73697605,12.5115524 L1.73697605,13.4373134 C1.73697605,13.9168594 2.11438304,14.3069629 2.57832144,14.3069629 L4.77735699,14.3069629 C4.77725542,14.3163061 4.77664605,14.3255968 4.77664605,14.3349924 C4.77664605,15.8044944 5.93329284,17 7.35491671,17 C8.77654058,17 9.93318737,15.8044944 9.93318737,14.3349924 C9.93318737,14.3255443 9.93257799,14.3163061 9.93247643,14.3069629 L19.1071428,14.3069629 C19.1070412,14.3163061 19.1064318,14.3255968 19.1064318,14.3349924 C19.1064318,15.8044944 20.2630786,17 21.6847025,17 C23.1063264,17 24.2629732,15.8044944 24.2629732,14.3349924 C24.2629732,14.3255443 24.2623638,14.3163061 24.2622622,14.3069629 L25.5928859,14.3069629 C25.817695,14.3069629 26,14.1185773 26,13.8861529 L26,9.39770527 C26,8.28954251 25.2090297,7.36882049 24.1799457,7.20688974 Z M19.0522481,2.63703056 L22.1190354,2.63703056 C22.612884,2.63703056 23.014666,3.05232915 23.014666,3.56279159 L23.014666,3.59082109 L19.0522481,3.59082109 L19.0522481,2.63703056 Z M19.0522481,7.1815897 L19.0522481,4.43238862 L22.6696576,4.43238862 L23.3345885,7.1815897 L19.0522481,7.1815897 Z M7.35491671,16.1585375 C6.38219997,16.1585375 5.59082342,15.3405903 5.59082342,14.3350974 C5.59082342,13.3296045 6.38219997,12.5116573 7.35491671,12.5116573 C8.32763345,12.5116573 9.11901,13.3296045 9.11901,14.3350974 C9.11901,15.3405903 8.32763345,16.1585375 7.35491671,16.1585375 Z M21.6848041,16.1585375 C20.7120873,16.1585375 19.9207108,15.3405903 19.9207108,14.3350974 C19.9207108,13.3296045 20.7120873,12.5116573 21.6848041,12.5116573 C22.6575208,12.5116573 23.4488974,13.3296045 23.4488974,14.3350974 C23.4488974,15.3405903 22.6575208,16.1585375 21.6848041,16.1585375 Z M25.1858734,10.7723583 L24.7244741,10.7723583 C24.4700595,10.7723583 24.2630747,10.5584102 24.2630747,10.2954368 L24.2630747,9.81851528 L25.1858226,9.81851528 L25.1858226,10.7723583 L25.1858734,10.7723583 Z" id="Shape" fill-rule="nonzero"></path>
                    <path d="M7.5483871,13.6 C7.08590209,13.6 6.70967742,13.9812892 6.70967742,14.45 C6.70967742,14.9187108 7.08590209,15.3 7.5483871,15.3 C8.0108721,15.3 8.38709677,14.9187108 8.38709677,14.45 C8.38709677,13.9812892 8.0108721,13.6 7.5483871,13.6 Z" id="Path" fill-rule="nonzero"></path>
                    <path d="M21.8064516,13.6 C21.3439666,13.6 20.9677419,13.9812892 20.9677419,14.45 C20.9677419,14.9187108 21.3439666,15.3 21.8064516,15.3 C22.2689366,15.3 22.6451613,14.9187108 22.6451613,14.45 C22.6451613,13.9812892 22.2689366,13.6 21.8064516,13.6 Z" id="Path" fill-rule="nonzero"></path>
                    <path d="M17.1671174,11.9 L10.5103019,11.9 C10.2641383,11.9 10.0645161,12.0902613 10.0645161,12.325 C10.0645161,12.5597387 10.2640827,12.75 10.5103019,12.75 L17.1671174,12.75 C17.4132811,12.75 17.6129032,12.5597387 17.6129032,12.325 C17.6129032,12.0902613 17.4133367,11.9 17.1671174,11.9 Z" id="Path" fill-rule="nonzero"></path>
                    <path d="M6.31297837,9.35 L1.23540872,9.35 C1.01635089,9.35 0.838709677,9.54026132 0.838709677,9.775 C0.838709677,10.0097387 1.0163014,10.2 1.23540872,10.2 L6.31297837,10.2 C6.53203621,10.2 6.70967742,10.0097387 6.70967742,9.775 C6.70967742,9.54026132 6.53203621,9.35 6.31297837,9.35 Z" id="Path" fill-rule="nonzero"></path>
                    <path d="M14.9662469,4.37873619 C14.7922013,4.2070788 14.5098916,4.2070788 14.335846,4.37879103 L10.3716098,8.288576 L8.30936397,6.25462788 C8.13526276,6.08291565 7.85300861,6.08291565 7.678963,6.25462788 C7.50486179,6.42634012 7.50486179,6.70466639 7.678963,6.87637863 L10.0564371,9.22122954 C10.1434599,9.30711307 10.2575626,9.35 10.3716098,9.35 C10.4856569,9.35 10.5998153,9.30711307 10.6867825,9.22122954 L14.9661913,5.00054177 C15.1402925,4.8287747 15.1402925,4.55044842 14.9662469,4.37873619 Z" id="Path" fill-rule="nonzero"></path>
                </g>
            </g>
        </g>
    </g>
</svg>