<?xml version="1.0" encoding="UTF-8"?>
<svg width="16px" height="19px" viewBox="0 0 16 19" version="1.1" xmlns="http://www.w3.org/2000/svg" xmlns:xlink="http://www.w3.org/1999/xlink">
    <!-- Generator: Sketch 62 (91390) - https://sketch.com -->
    <title>Icon/user/inactiveiconos_header/</title>
    <desc>Created with Sketch.</desc>
    <g id="Symbols" stroke="none" stroke-width="1" fill="none" fill-rule="evenodd">
        <g id="btn/cuenta/inactive" transform="translate(-20.000000, 0.000000)" fill="#FFFFFF">
            <g id="Icon/user/inactive" transform="translate(20.000000, 0.000000)">
                <g id="perfil">
                    <path d="M7.63636364,9.14814815 C10.247299,9.14814815 12.3636364,7.10027443 12.3636364,4.57407407 C12.3636364,2.04799509 10.247299,0 7.63636364,0 C5.0256791,0 2.90909091,2.04799509 2.90909091,4.57407407 C2.91109739,7.09942503 5.02643155,9.14620669 7.63636364,9.14814815 Z M7.63636364,0.775248275 C9.80474415,0.775248275 11.5624228,2.47596512 11.5624228,4.57407407 C11.5624228,6.67218303 9.80474415,8.37289987 7.63636364,8.37289987 C5.46823392,8.37289987 3.71030444,6.67218303 3.71030444,4.57407407 C3.71394118,2.47754255 5.46961335,0.778645826 7.63636364,0.775248275 Z" id="Shape" fill-rule="nonzero"></path>
                    <path d="M7.63636364,10.5555556 C5.57469516,10.5555556 3.65745796,11.3661579 2.23478468,12.8408499 C0.791855805,14.3358165 0,16.3765402 0,18.5927224 C0.00062904805,18.8174009 0.180287471,18.9993624 0.401966825,19 L14.8708863,19 C15.0926914,18.9993624 15.2720982,18.8174009 15.2727273,18.5927224 C15.2727273,16.3807482 14.4809973,14.3358165 13.0381942,12.8449303 C11.6153951,11.3702384 9.69828372,10.5555556 7.63636364,10.5555556 L7.63636364,10.5555556 Z M0.8119856,18.1853172 C0.900430896,16.3441518 1.6037156,14.6617406 2.80546438,13.41517 C4.07552866,12.0993598 5.79171951,11.3744463 7.63246348,11.3744463 C9.47320745,11.3744463 11.1893983,12.0993598 12.4593368,13.41517 C13.6651115,14.6617406 14.3644961,16.3441518 14.4529414,18.1853172 L0.8119856,18.1853172 Z" id="Shape" fill-rule="nonzero"></path>
                </g>
            </g>
        </g>
    </g>
</svg>