<?xml version="1.0" encoding="UTF-8"?>
<svg width="35px" height="29px" viewBox="0 0 35 29" version="1.1" xmlns="http://www.w3.org/2000/svg" xmlns:xlink="http://www.w3.org/1999/xlink">
    <!-- Generator: Sketch 62 (91390) - https://sketch.com -->
    <title>iconos_content/Group 52</title>
    <desc>Created with Sketch.</desc>
    <g id="Page-1" stroke="none" stroke-width="1" fill="none" fill-rule="evenodd">
        <g id="Group-52" transform="translate(-9.000000, -8.000000)">
            <rect id="Rectangle-Copy-13" x="0" y="0" width="53" height="44"></rect>
            <g id="asistencia" transform="translate(9.000000, 8.000000)" fill="#FF596A">
                <g id="chat">
                    <path d="M25.4495117,0.0518164063 L1.97086914,0.0518164063 C0.884091797,0.0518164063 0,0.935908203 0,2.02261719 L0,16.1084766 C0,17.1951855 0.884091797,18.0793457 1.97086914,18.0793457 L3.49330078,18.0793457 L3.49330078,23.3231934 C3.49330078,23.6570605 3.69441406,23.9581836 4.00298828,24.0860156 C4.10511719,24.1283984 4.21244141,24.1489062 4.31880859,24.1489062 C4.53373047,24.1489062 4.74482422,24.0649609 4.90280273,23.9070508 L10.7305078,18.0794141 L11.8997266,18.0794141 C12.355752,18.0794141 12.7253711,17.7097949 12.7253711,17.2537695 C12.7253711,16.7976758 12.3556152,16.4280566 11.8997266,16.4280566 C11.8997266,16.4280566 10.3486523,16.4291504 10.3324512,16.430791 C10.1402246,16.4438477 9.95155273,16.5230078 9.80458008,16.6699121 L5.14458984,21.3299023 C5.14458984,21.3299023 5.1431543,17.201543 5.14048828,17.1801465 C5.10323242,16.7586426 4.74967773,16.4280566 4.31853516,16.4280566 L1.97086914,16.4280566 C1.79463867,16.4280566 1.65135742,16.284707 1.65135742,16.1085449 L1.65135742,2.02261719 C1.65135742,1.84638672 1.79470703,1.70310547 1.97086914,1.70310547 L25.4495117,1.70310547 C25.6257422,1.70310547 25.7690234,1.84645508 25.7690234,2.02261719 L25.7690234,7.42676758 C25.7690234,7.88279297 26.1387793,8.25241211 26.594668,8.25241211 C27.0505566,8.25241211 27.4203125,7.88279297 27.4203125,7.42676758 L27.4203125,2.02261719 C27.4203125,0.935908203 26.5362207,0.0518164063 25.4495117,0.0518164063 Z" id="Path" fill-rule="nonzero"></path>
                    <path d="M33.0291309,10.1508203 L16.5945117,10.1508203 C15.5078027,10.1508203 14.6236426,11.0349121 14.6236426,12.1216895 L14.6236426,21.7309668 C14.6236426,22.8176758 15.5077344,23.7018359 16.5945117,23.7018359 L26.8835547,23.7018359 L31.0521094,27.8703906 C31.2100879,28.0283691 31.42125,28.1122461 31.6361035,28.1122461 C31.7424707,28.1122461 31.8497949,28.0916699 31.9519238,28.0493555 C32.2603613,27.9215234 32.4616113,27.6205371 32.4616113,27.2865332 L32.4616113,23.7017676 L33.0290625,23.7017676 C34.1157715,23.7017676 34.9999316,22.8176758 34.9999316,21.7308984 L34.9999316,12.1216211 C34.9999316,11.0349121 34.1159082,10.1508203 33.0291309,10.1508203 Z M33.3487109,21.7309668 C33.3487109,21.9071289 33.2053613,22.0504785 33.0291992,22.0504785 L31.6363086,22.0504785 C31.2018164,22.0504785 30.8464844,22.3862598 30.813877,22.8124805 C30.8117578,22.8305273 30.8103906,25.2932422 30.8103906,25.2932422 L27.8125586,22.2953418 C27.8094141,22.2921973 27.8061328,22.2892578 27.8029883,22.2861133 C27.7912305,22.2746289 27.7800879,22.2646484 27.7695605,22.2556934 C27.6242285,22.1282715 27.4343945,22.0504102 27.2260352,22.0504102 L16.5945117,22.0504102 C16.4182812,22.0504102 16.275,21.9070605 16.275,21.7308984 L16.275,12.1216211 C16.275,11.9453906 16.4183496,11.8021094 16.5945117,11.8021094 L33.0291992,11.8021094 C33.2053613,11.8021094 33.3487109,11.945459 33.3487109,12.1216211 L33.3487109,21.7309668 L33.3487109,21.7309668 Z" id="Shape" fill-rule="nonzero"></path>
                </g>
            </g>
        </g>
    </g>
</svg>