<?xml version="1.0" encoding="UTF-8"?>
<svg width="35px" height="29px" viewBox="0 0 35 29" version="1.1" xmlns="http://www.w3.org/2000/svg" xmlns:xlink="http://www.w3.org/1999/xlink">
    <!-- Generator: Sketch 62 (91390) - https://sketch.com -->
    <title>mdpi/Group 49</title>
    <desc>Created with Sketch.</desc>
    <g id="Page-1" stroke="none" stroke-width="1" fill="none" fill-rule="evenodd">
        <g id="Group-49" transform="translate(-9.000000, -8.000000)">
            <rect id="Rectangle" x="0" y="0" width="53" height="44"></rect>
            <g id="compra" transform="translate(9.000000, 8.000000)" fill="#FF596A">
                <g id="money-(1)">
                    <path d="M16.0827734,6.18460937 C14.4803613,6.18460937 13.176748,7.48829102 13.176748,9.09077148 L13.176748,11.1420996 C13.176748,12.7444434 14.4804297,14.048125 16.0827734,14.048125 C17.6851855,14.048125 18.9888672,12.7445117 18.9888672,11.1420996 L18.9888672,9.09077148 C18.9888672,7.48829102 17.6851855,6.18460937 16.0827734,6.18460937 Z M16.0827734,13.0224609 C15.1027734,13.0224609 14.2959277,12.2687305 14.2103418,11.3108105 C14.7164746,11.7383984 15.3698535,11.9968652 16.0827734,11.9968652 C16.7956934,11.9968652 17.4490723,11.7383984 17.9552734,11.3107422 C17.8696875,12.2687305 17.0628418,13.0224609 16.0827734,13.0224609 Z M16.0827734,10.9711328 C15.0458984,10.9711328 14.2024121,10.1275781 14.2024121,9.09077148 C14.2024121,8.05382812 15.0459668,7.21027344 16.0827734,7.21027344 C17.1196484,7.21027344 17.9632031,8.05382812 17.9632031,9.09077148 C17.9632031,10.1275781 17.1196484,10.9711328 16.0827734,10.9711328 Z" id="Shape" fill-rule="nonzero"></path>
                    <path d="M16.0827734,7.89420898 C15.7995605,7.89420898 15.5699414,8.12375977 15.5699414,8.40704102 L15.5699414,9.77457031 C15.5699414,10.0577832 15.7995605,10.2874023 16.0827734,10.2874023 C16.3659863,10.2874023 16.5956055,10.0578516 16.5956055,9.77457031 L16.5956055,8.40704102 C16.5956055,8.12369141 16.3659863,7.89420898 16.0827734,7.89420898 Z" id="Path" fill-rule="nonzero"></path>
                    <path d="M25.31375,0.0306933594 C22.7686621,0.0306933594 20.698125,2.10116211 20.698125,4.64611328 L20.698125,6.69607422 C20.698125,6.69655273 20.698125,6.69696289 20.698125,6.69744141 C20.698125,9.24239258 22.7686621,11.3128613 25.3136133,11.3128613 C27.8557617,11.3128613 29.924248,9.24683594 29.9287598,6.70571289 C29.9287598,6.70297852 29.9291699,6.7003125 29.9291699,6.69757813 L29.9291699,4.64611328 C29.9291699,2.10116211 27.8587012,0.0306933594 25.31375,0.0306933594 Z M25.3136133,10.2872656 C23.6885059,10.2872656 22.3129785,9.20144531 21.8722656,7.7175 C22.7181445,8.6643457 23.9472461,9.26173828 25.31375,9.26173828 C26.6799805,9.26173828 27.9089453,8.66455078 28.7546875,7.71797852 C28.3139063,9.20165039 26.9385156,10.2872656 25.3136133,10.2872656 Z M25.31375,8.23607422 C23.3342676,8.23607422 21.7238574,6.6255957 21.7238574,4.64618164 C21.7238574,2.66676758 23.3343359,1.05642578 25.31375,1.05642578 C27.2931641,1.05642578 28.9035059,2.66683594 28.9035059,4.64618164 C28.9035059,6.6255957 27.2931641,8.23607422 25.31375,8.23607422 Z" id="Shape" fill-rule="nonzero"></path>
                    <path d="M25.3140234,2.76575195 L25.3140234,2.76575195 C25.0307422,2.76575195 24.8011914,2.99523437 24.801123,3.27844727 L24.8005762,6.01384766 C24.8005762,6.29699219 25.030127,6.52667969 25.3133398,6.52674805 L25.3134082,6.52674805 C25.5966211,6.52674805 25.8261719,6.29719727 25.8262402,6.01405273 L25.8267871,3.27865234 C25.8268555,2.99543945 25.5972363,2.76582031 25.3140234,2.76575195 Z" id="Path" fill-rule="nonzero"></path>
                    <path d="M34.7046875,17.3844727 C34.0009961,16.1661035 32.4400781,15.7433008 31.2178809,16.4369434 C30.9957129,16.5464551 28.1586621,17.9407129 25.820498,18.9246094 C25.5594336,19.0344629 25.4369336,19.3351758 25.5467188,19.5962402 C25.6565039,19.8573047 25.9571484,19.9797363 26.2183496,19.8700195 C28.6696484,18.8384766 31.6562012,17.3645117 31.6860742,17.3497461 C31.6958496,17.3448926 31.7054883,17.3397656 31.7149219,17.3343652 C32.4497168,16.9107422 33.3925293,17.1631934 33.8166309,17.8976465 C34.3077246,18.7470117 33.5408691,19.6795703 33.1655078,20.0604687 C30.6194629,22.1143262 23.5739355,27.3811426 21.2058301,27.3811426 C18.5809668,27.3811426 11.2151758,25.8207031 9.41383789,25.4303711 L9.41383789,17.0536816 C12.9854785,16.5288867 14.877666,17.1871191 18.8428516,18.5689355 C20.0491211,18.9892773 21.4156934,19.4654004 23.0766895,19.9964844 C23.3242871,20.1043555 24.0112305,20.4909961 23.7494141,21.3649707 C23.5902734,21.8962598 23.0772363,22.4035547 22.3258984,22.2629395 C21.3162988,22.0734473 15.3747754,21.2675586 15.1223242,21.2333789 C14.8417773,21.1950977 14.5833105,21.392041 14.5453027,21.6727246 C14.5072949,21.9534082 14.7039648,22.2117383 14.9846484,22.2497461 C15.0461719,22.2580859 21.1525781,23.0862598 22.1368164,23.2710352 C22.2895996,23.2996777 22.4378711,23.3132129 22.5812207,23.3132129 C23.6699805,23.3132129 24.4706738,22.5317969 24.7320801,21.6593262 C25.0070898,20.7411914 24.7212793,19.5789453 23.4650391,19.0471094 C23.4632617,19.0462891 23.461416,19.0454687 23.4595703,19.0447168 C23.457998,19.0440332 23.4564941,19.0432812 23.4548535,19.0425977 C23.4479492,19.0397266 23.4409082,19.0376758 23.4339355,19.0350781 C23.4268262,19.0324805 23.4200586,19.0294727 23.4127441,19.0271484 C21.7535937,18.4971582 20.3866113,18.0207617 19.1804785,17.6004883 C15.2261621,16.2225684 13.1422266,15.4976172 9.41390625,16.0180371 L9.41390625,15.5892871 C9.41390625,15.3060059 9.18428711,15.0764551 8.90107422,15.0764551 L7.36298828,15.0764551 L7.36298828,14.5638965 C7.36298828,14.2806152 7.13336914,14.0510645 6.85015625,14.0510645 L0.512832031,14.0510645 C0.229619141,14.0510645 0,14.2806152 0,14.5638965 L0,25.8425781 C0,26.1258594 0.229619141,26.3554102 0.512832031,26.3554102 C0.796044922,26.3554102 1.02566406,26.1258594 1.02566406,25.8425781 L1.02566406,15.0766602 L6.33732422,15.0766602 L6.33732422,27.3811426 L5.31227539,27.3811426 L5.31227539,26.868584 C5.31227539,26.5853027 5.08265625,26.355752 4.79944336,26.355752 C4.51623047,26.355752 4.28661133,26.5853027 4.28661133,26.868584 L4.28661133,27.3811426 L0.512832031,27.3811426 C0.229619141,27.3811426 0,27.6106934 0,27.8939746 C0,28.1772559 0.229619141,28.4068066 0.512832031,28.4068066 L6.85015625,28.4068066 C7.13336914,28.4068066 7.36298828,28.1772559 7.36298828,27.8939746 L7.36298828,27.3553711 L8.90100586,27.3553711 C9.18421875,27.3553711 9.41383789,27.1258203 9.41383789,26.8425391 L9.41383789,26.480166 C11.559502,26.9437793 18.5428223,28.4068066 21.2058301,28.4068066 C22.607334,28.4068066 25.0924707,27.1580859 28.8030859,24.5895508 C31.4791504,22.7370801 33.8085645,20.8594531 33.8317383,20.8407227 C33.845957,20.8292383 33.8594922,20.817002 33.8723437,20.8041504 C34.9865332,19.6885937 35.2976367,18.4101367 34.7046875,17.3844727 Z M8.38810547,25.8347168 C8.38810547,25.8351953 8.38810547,25.8356738 8.38810547,25.836084 L8.38810547,26.3298437 L7.36298828,26.3298437 L7.36298828,26.3298437 L7.36298828,16.1020508 L8.38817383,16.1020508 L8.38817383,25.8347168 L8.38810547,25.8347168 Z" id="Shape" fill-rule="nonzero"></path>
                </g>
            </g>
        </g>
    </g>
</svg>