<?xml version="1.0" encoding="UTF-8"?>
<svg width="28px" height="28px" viewBox="0 0 28 28" version="1.1" xmlns="http://www.w3.org/2000/svg" xmlns:xlink="http://www.w3.org/1999/xlink">
    <!-- Generator: Sketch 62 (91390) - https://sketch.com -->
    <title>iconos_content/descarga_app</title>
    <desc>Created with Sketch.</desc>
    <g id="Page-1" stroke="none" stroke-width="1" fill="none" fill-rule="evenodd">
        <g id="descarga_app" transform="translate(-12.000000, -8.000000)">
            <rect id="Rectangle-Copy-13" x="0" y="0" width="53" height="44"></rect>
            <g id="descarga" transform="translate(9.000000, 8.000000)" fill="#FF596A">
                <g id="download-app" transform="translate(3.964844, 0.546875)">
                    <g id="Icon/download-app" fill-rule="nonzero">
                        <polygon id="Path" points="7.3828125 1.84570312 7.99804688 1.84570312 7.99804688 2.4609375 7.3828125 2.4609375"></polygon>
                        <polygon id="Path" points="8.61328125 1.84570312 12.3046875 1.84570312 12.3046875 2.4609375 8.61328125 2.4609375"></polygon>
                        <path d="M17.5566904,19.4003906 C17.5552021,20.645649 16.5483325,21.6547584 15.3058382,21.65625 L7.0821248,21.65625 L8.62981074,18.9699727 C8.58085877,19.1082515 8.55500199,19.2536765 8.55328177,19.4003906 C8.55328177,20.1479167 9.15792627,20.7539062 9.90379306,20.7539062 L11.7044748,20.7539062 C12.4503416,20.7539062 13.0549861,20.1479167 13.0549861,19.4003906 C13.0549861,18.6528646 12.4503416,18.046875 11.7044748,18.046875 L9.90379306,18.046875 C9.46890213,18.0476897 9.06116267,18.2589021 8.80897857,18.613998 C9.18007291,17.7378274 8.80646929,16.7235484 7.95634078,16.2992115 C7.10621226,15.8748746 6.07340249,16.1871503 5.5992634,17.0118867 L4.06868393,19.6701914 C4.05757594,19.5806842 4.05186341,19.4905871 4.05157746,19.4003906 L4.05157746,3.15820313 C4.05306577,1.91294477 5.05993529,0.903835377 6.30242961,0.90234375 L15.3058382,0.90234375 C16.1094737,0.904215568 16.8516587,1.33368211 17.2550762,2.03027344 L18.0343212,1.57910156 C17.4696177,0.604012612 16.430767,0.00278081491 15.3058382,0 L6.30242961,0 C4.56289649,0.00198905256 3.15322123,1.41480026 3.15123659,3.15820313 L3.15123659,11.8658203 C2.86475696,11.9994337 2.63409328,12.2294929 2.49938981,12.515959 L0.456066223,16.9586484 C0.153580755,17.6103198 -0.00210852503,18.3207209 2.15657941e-05,19.0394531 L2.15657941e-05,27.0703125 L0.900384439,27.0703125 L0.900384439,19.0394531 C0.898375727,18.451769 1.02564193,17.8708651 1.27312556,17.338084 L3.15123659,13.2540762 L3.15123659,19.4003906 C3.15092859,19.9392579 3.28873211,20.4691718 3.55143811,20.9393379 C3.62054866,21.0944503 3.7707341,21.1975094 3.94002051,21.2059878 C4.10930692,21.2144662 4.2689958,21.1269266 4.35319164,20.9794922 L6.37895858,17.4630586 C6.62925854,17.0351549 7.17724315,16.8899543 7.60584795,17.1379671 C8.03445275,17.38598 8.18296283,17.9342084 7.93834896,18.3654023 L5.91258202,21.8818359 C5.83061087,22.0239896 5.83216259,22.1995506 5.91663355,22.3402266 L6.88089862,23.9463984 C7.09123479,24.2977692 7.20247925,24.6997639 7.20277047,25.1095195 L7.20277047,27.0658008 L8.10311134,27.0658008 L8.10311134,25.1095195 C8.10303969,24.5360472 7.94743578,23.9733794 7.6529409,23.4816914 L7.0987811,22.5585938 L15.3058382,22.5585938 C17.0453714,22.5566047 18.4550466,21.1437935 18.4570312,19.4003906 L18.4570312,17.1445313 L17.5566904,17.1445313 L17.5566904,19.4003906 Z M9.90379306,18.9492188 L11.7044748,18.9492188 C11.953097,18.9492188 12.1546452,19.1512153 12.1546452,19.4003906 C12.1546452,19.649566 11.953097,19.8515625 11.7044748,19.8515625 L9.90379306,19.8515625 C9.6551708,19.8515625 9.45362263,19.649566 9.45362263,19.4003906 C9.45362263,19.1512153 9.6551708,18.9492188 9.90379306,18.9492188 Z" id="Shape"></path>
                        <path d="M25.7750797,4.99924146 C23.6924957,1.92602663 19.7056234,0.951301901 16.5062598,2.73316737 C13.3068962,4.51503283 11.9121169,8.48703458 13.2636283,11.9674158 L11.7516974,14.6098803 C11.6626365,14.7652113 11.669628,14.959823 11.7695901,15.1079364 C11.8720838,15.2556858 12.0479945,15.3293055 12.2213801,15.2970133 L15.1423589,14.7343943 C16.1342047,15.6510472 17.355294,16.2629174 18.6672155,16.500649 C19.0794538,16.5737154 19.4969435,16.6107402 19.9152294,16.6113281 C22.5840163,16.6105565 25.0307076,15.0790016 26.2624334,12.6381702 C27.4941593,10.1973387 27.3062964,7.25271922 25.7750797,4.99924146 Z M26.0792552,10.353345 C25.678398,12.6973526 24.0591073,14.6238678 21.865634,15.3664073 C19.6721607,16.1089468 17.2603158,15.5470606 15.5896757,13.9043008 C15.505784,13.8240235 15.3954868,13.7795278 15.2810271,13.7797867 C15.2541106,13.7790228 15.2271789,13.7805654 15.2005101,13.7843984 L13.0220772,14.2040568 L14.1493156,12.239502 C14.2203169,12.1112935 14.2302132,11.9565531 14.1761546,11.8198436 C13.6772392,10.6558702 13.5261756,9.364998 13.7422573,8.11209233 C14.3425797,4.59987113 17.5909682,2.25437478 20.9977361,2.8732796 C24.404504,3.49218443 26.6795776,6.84112376 26.0792552,10.353345 L26.0792552,10.353345 Z" id="Shape"></path>
                        <path d="M22.9174805,6.50390625 L21.5332031,6.50390625 L21.5332031,6.06445312 C21.5332031,5.09364009 20.7068537,4.30664062 19.6875,4.30664062 C18.6681463,4.30664062 17.8417969,5.09364009 17.8417969,6.06445312 L17.8417969,6.50390625 L16.4575195,6.50390625 C16.2026811,6.50390625 15.9960938,6.70065612 15.9960938,6.94335938 L15.9960938,12.2167969 C15.9983742,12.9440051 16.6168024,13.5329844 17.3803711,13.5351562 L21.9946289,13.5351562 C22.7581976,13.5329844 23.3766258,12.9440051 23.3789062,12.2167969 L23.3789062,6.94335938 C23.3789062,6.70065612 23.1723189,6.50390625 22.9174805,6.50390625 Z M18.7646484,6.06445312 C18.7646484,5.57904661 19.1778232,5.18554688 19.6875,5.18554688 C20.1971768,5.18554688 20.6103516,5.57904661 20.6103516,6.06445312 L20.6103516,6.50390625 L18.7646484,6.50390625 L18.7646484,6.06445312 Z M22.4560547,12.2167969 C22.4560547,12.4595001 22.2494673,12.65625 21.9946289,12.65625 L17.3803711,12.65625 C17.1255327,12.65625 16.9189453,12.4595001 16.9189453,12.2167969 L16.9189453,11.7773437 L22.4560547,11.7773437 L22.4560547,12.2167969 Z M22.4560547,10.8984375 L16.9189453,10.8984375 L16.9189453,7.3828125 L17.8417969,7.3828125 L17.8417969,8.26171875 L18.7646484,8.26171875 L18.7646484,7.3828125 L20.6103516,7.3828125 L20.6103516,8.26171875 L21.5332031,8.26171875 L21.5332031,7.3828125 L22.4560547,7.3828125 L22.4560547,10.8984375 Z" id="Shape"></path>
                        <path d="M9.19556656,6.15234375 L8.48962421,6.85828611 C7.50525738,6.20675333 6.1874121,6.40665077 5.44053395,7.32078754 C4.6936558,8.2349243 4.76051254,9.56616634 5.59521998,10.4008738 C6.42992741,11.2355812 7.76116945,11.302438 8.67530621,10.5555598 C9.58944298,9.80868165 9.78934042,8.49083637 9.13780764,7.50646954 L9.84375,6.80052719 L9.19556656,6.15234375 Z M8.60285003,8.76845611 C8.60285003,9.52796494 7.98714647,10.1436685 7.22763764,10.1436685 C6.46812881,10.1436685 5.85242526,9.52796494 5.85242526,8.76845611 C5.85242526,8.00894728 6.46812881,7.39324372 7.22763764,7.39324372 C7.43185064,7.39403434 7.63323449,7.44105003 7.81668695,7.53076496 L6.4451418,8.90231011 L7.09332523,9.55049355 L8.46532879,8.1794068 C8.55504372,8.36285926 8.60205941,8.56424311 8.60285003,8.76845611 L8.60285003,8.76845611 Z" id="Shape"></path>
                        <polygon id="Path" points="10.4589844 7.3828125 12.3046875 7.3828125 12.3046875 7.99804688 10.4589844 7.99804688"></polygon>
                        <polygon id="Path" points="10.4589844 9.22851562 12.3046875 9.22851562 12.3046875 9.84375 10.4589844 9.84375"></polygon>
                    </g>
                </g>
            </g>
        </g>
    </g>
</svg>