<?xml version="1.0" encoding="UTF-8"?>
<svg width="588px" height="176px" viewBox="0 0 588 176" version="1.1" xmlns="http://www.w3.org/2000/svg" xmlns:xlink="http://www.w3.org/1999/xlink">
    <!-- Generator: Sketch 62 (91390) - https://sketch.com -->
    <title>download-on-the-app-store-apple</title>
    <desc>Created with Sketch.</desc>
    <g id="Symbols" stroke="none" stroke-width="1" fill="none" fill-rule="evenodd">
        <g id="BTN/APPSTORE-LARGE" transform="translate(1.000000, 1.000000)" fill-rule="nonzero">
            <g id="download-on-the-app-store-apple">
                <path d="M20.55177,173.742242 C9.21589434,173.739866 0.021569071,164.563526 0,153.230673 L0,20.5332925 C0.0167696004,9.19493173 9.21039707,0.00957000396 20.55177,0 L565.823389,0 C577.162781,0.0143445636 586.353614,9.19691451 586.375171,20.5332925 L586.375171,153.230673 C586.38385,164.544404 577.148809,173.742242 565.827734,173.742242 L20.55177,173.742242 Z" id="Path" stroke="#FFFFFF"></path>
                <path d="M130.933332,85.9565508 C130.807301,71.9534188 142.402167,65.1408495 142.932367,64.8236827 C136.36571,55.2521965 126.187607,53.9444265 122.61093,53.8401525 C114.062541,52.9407891 105.77056,58.9539243 101.415967,58.9539243 C96.9744548,58.9539243 90.2687282,53.9270475 83.0414933,54.0747691 C73.7412633,54.2181458 65.0407677,59.6012921 60.2689674,67.9605928 C50.4211537,85.0050504 57.7657279,110.052539 67.2006809,123.829744 C71.9203304,130.581487 77.4352799,138.11094 84.6538229,137.84591 C91.7159135,137.559157 94.353876,133.349093 102.87619,133.349093 C111.320277,133.349093 113.797441,137.84591 121.159399,137.676465 C128.738652,137.559157 133.510452,130.898654 138.064957,124.090429 C143.519064,116.361117 145.709399,108.740424 145.796317,108.349397 C145.622481,108.28857 131.081093,102.735979 130.933332,85.9565508 Z M117.026446,44.7770023 C120.824764,40.0281896 123.423614,33.5675451 122.702194,27.011316 C117.204628,27.2546221 110.329411,30.812973 106.370295,35.4575117 C102.867498,39.550267 99.7384484,46.2585623 100.546786,52.5671405 C106.722313,53.0276841 113.062984,49.4519542 117.026446,44.7770023 L117.026446,44.7770023 Z" id="Shape" fill="#FFFFFF"></path>
                <g id="Group" transform="translate(184.169306, 77.971026)" fill="#FFFFFF">
                    <path d="M49.0535191,58.906005 L39.1839759,58.906005 L33.7776739,41.9223739 L14.9859942,41.9223739 L9.83610042,58.906005 L0.227311336,58.906005 L18.8495009,1.08606066 L30.3487573,1.08606066 L49.0535191,58.906005 L49.0535191,58.906005 Z M32.1479607,34.7969825 L27.2588211,19.6989733 C26.7416588,18.1565867 25.7681768,14.524375 24.3427209,8.80668292 L24.1688849,8.80668292 C23.5952258,11.2658119 22.6782405,14.8980236 21.4222749,19.6989733 L16.6157074,34.7969825 L32.1479607,34.7969825 Z M96.8497481,37.5472098 C96.8497481,44.6378432 94.9245136,50.2425718 91.0696986,54.3570508 C87.6190525,58.0196758 83.3296473,59.8488159 78.2145208,59.8488159 C72.6908795,59.8488159 68.7187251,57.8806438 66.3067496,53.93561 L66.3067496,75.8114305 L57.0412868,75.8114305 L57.0412868,30.91712 C57.0412868,26.4637504 56.9239474,21.8974172 56.6979605,17.2137758 L64.8465266,17.2137758 L65.3636889,23.8221419 L65.537525,23.8221419 C68.6274612,18.8430574 73.3166893,16.3535151 79.6095553,16.3535151 C84.5291162,16.3535151 88.6359935,18.2956188 91.9214953,22.1841708 C95.2026513,26.0814123 96.8497481,31.1995288 96.8497481,37.5472098 Z M87.4104492,37.8861004 C87.4104492,33.8281031 86.4978098,30.4826449 84.6638392,27.8453811 C82.6603784,25.1038434 79.9702651,23.7309021 76.5978453,23.7309021 C74.3119009,23.7309021 72.2345598,24.4955782 70.3788597,26.0032068 C68.5188137,27.5238696 67.3019611,29.5094207 66.732648,31.9685497 C66.4784951,32.8882102 66.3340765,33.8347038 66.3024037,34.788293 L66.3024037,41.7442391 C66.3024037,44.7725305 67.2324267,47.3315887 69.0924727,49.4257586 C70.9525187,51.511239 73.3688402,52.558324 76.3414371,52.558324 C79.8311963,52.558324 82.547385,51.2071065 84.4900031,48.5263952 C86.4369672,45.8369944 87.4104492,42.2916777 87.4104492,37.8861004 L87.4104492,37.8861004 Z M144.815467,37.5472098 C144.815467,44.6378432 142.890233,50.2425718 139.035418,54.3570508 C135.580426,58.0196758 131.295366,59.8488159 126.175894,59.8488159 C120.652253,59.8488159 116.680098,57.8806438 114.268123,53.93561 L114.268123,75.8114305 L105.00266,75.8114305 L105.00266,30.91712 C105.00266,26.4637504 104.885321,21.8974172 104.659334,17.2137758 L112.8079,17.2137758 L113.325062,23.8221419 L113.498898,23.8221419 C116.584489,18.8430574 121.273717,16.3535151 127.570929,16.3535151 C132.486144,16.3535151 136.593021,18.2956188 139.887215,22.1841708 C143.164025,26.0814123 144.815467,31.1995288 144.815467,37.5472098 L144.815467,37.5472098 Z M135.371822,37.8861004 C135.371822,33.8281031 134.454837,30.4826449 132.620867,27.8453811 C130.617406,25.1038434 127.935984,23.7309021 124.563564,23.7309021 C122.27762,23.7309021 120.200279,24.4955782 118.335887,26.0032068 C116.475841,27.5238696 115.263334,29.5094207 114.694021,31.9685497 C114.411538,33.1155639 114.259431,34.0496854 114.259431,34.788293 L114.259431,41.7442391 C114.259431,44.7725305 115.1938,47.3315887 117.045154,49.4257586 C118.9052,51.5068943 121.321522,52.558324 124.30281,52.558324 C127.796915,52.558324 130.513104,51.2071065 132.451376,48.5263952 C134.39834,45.8369944 135.371822,42.2916777 135.371822,37.8861004 L135.371822,37.8861004 Z M198.443897,42.68705 C198.443897,47.6096528 196.722919,51.6111683 193.302695,54.7002861 C189.539144,58.0718128 184.284948,59.7619209 177.5488,59.7619209 C171.325469,59.7619209 166.336373,58.5627696 162.572822,56.1601224 L164.715352,48.4395002 C168.77877,50.8464921 173.242012,52.0456434 178.10073,52.0456434 C181.594835,52.0456434 184.311024,51.2548987 186.249296,49.6864437 C188.191914,48.1136439 189.174088,46.0107844 189.174088,43.3865549 C189.174088,41.0360447 188.361404,39.0678726 186.766458,37.4646595 C185.16282,35.8657912 182.51182,34.3755417 178.787382,33.0069452 C168.661431,29.2313567 163.594109,23.7091783 163.594109,16.4447549 C163.594109,11.700287 165.384621,7.81607973 168.956952,4.77909888 C172.529284,1.74646279 177.266317,0.230144746 183.15936,0.230144746 C188.422247,0.230144746 192.807262,1.14688718 196.288329,2.97602728 L193.963272,10.5272043 C190.686462,8.75454591 186.988099,7.86821674 182.850801,7.86821674 C179.582682,7.86821674 177.0186,8.67199565 175.18463,10.270864 C173.641835,11.700287 172.859572,13.4425321 172.859572,15.5106335 C172.859572,17.7916277 173.750482,19.685939 175.52361,21.1718438 C177.062059,22.5404404 179.869512,24.0306899 183.928584,25.6295582 C188.908988,27.6368331 192.568237,29.9743091 194.910678,32.6593651 C197.270503,35.3444211 198.443897,38.694224 198.443897,42.68705 Z M229.156385,24.1653772 L218.943516,24.1653772 L218.943516,44.4075714 C218.943516,49.5561011 220.742719,52.1238489 224.349818,52.1238489 C226.005606,52.1238489 227.378911,51.9848169 228.465387,51.6937186 L228.721795,58.7278702 C226.896516,59.4099961 224.493233,59.7532314 221.51629,59.7532314 C217.85704,59.7532314 214.997437,58.6366304 212.933134,56.4034285 C210.877522,54.1702265 209.843197,50.4293961 209.843197,45.163558 L209.843197,24.1479982 L203.758935,24.1479982 L203.758935,17.1963968 L209.843197,17.1963968 L209.843197,9.56266957 L218.943516,6.81678703 L218.943516,17.1963968 L229.156385,17.1963968 L229.156385,24.1653772 L229.156385,24.1653772 Z M275.144719,37.7166551 C275.144719,44.1251626 273.310748,49.3866559 269.651499,53.5011349 C265.82276,57.737267 260.729363,59.8488159 254.38,59.8488159 C248.252278,59.8488159 243.380522,57.8198173 239.747348,53.7661647 C236.114174,49.7038227 234.297587,44.5857062 234.297587,38.4118152 C234.297587,31.9511707 236.175017,26.6592642 239.916838,22.5447851 C243.667352,18.4259613 248.71729,16.3665494 255.066652,16.3665494 C261.185682,16.3665494 266.100897,18.3998928 269.820989,22.4578901 C273.375937,26.3942344 275.144719,31.4775929 275.144719,37.7166551 Z M265.540276,37.9295479 C265.540276,34.1105119 264.714555,30.8345697 263.058766,28.0930319 C261.116148,24.7823318 258.334771,23.1269817 254.732018,23.1269817 C251.020618,23.1269817 248.174052,24.7823318 246.23578,28.0930319 C244.575645,30.8345697 243.749924,34.1669936 243.749924,38.1033379 C243.749924,41.9267186 244.575645,45.2113503 246.23578,47.9441986 C248.23924,51.2548987 251.033655,52.9102488 254.653792,52.9102488 C258.195702,52.9102488 260.972733,51.2201407 262.98054,47.8616483 C264.684133,45.0549393 265.540276,41.7572734 265.540276,37.9295479 Z M305.274857,25.3601837 C304.311181,25.1862505 303.333659,25.1004491 302.354411,25.1038434 C299.094984,25.1038434 296.574361,26.3290631 294.801233,28.7968816 C293.262784,30.969257 292.489214,33.7151395 292.489214,37.0301844 L292.489214,58.906005 L283.223751,58.906005 L283.223751,30.3436129 C283.232014,25.9669859 283.142176,21.5907233 282.954305,17.2181206 L291.024645,17.2181206 L291.363625,25.1950831 L291.620033,25.1950831 C292.602207,22.4535453 294.140656,20.2420672 296.252765,18.5867171 C298.186054,17.1402527 300.535061,16.3569498 302.949799,16.3535151 C303.805942,16.3535151 304.579513,16.4143417 305.266165,16.5229604 L305.274857,25.3601837 L305.274857,25.3601837 Z M346.713031,36.0873735 C346.736527,37.4955057 346.622999,38.9025853 346.374051,40.2887476 L318.577663,40.2887476 C318.681964,44.4075714 320.029194,47.5618605 322.61066,49.7342359 C324.953101,51.6719948 327.982194,52.645219 331.702286,52.645219 C335.817855,52.645219 339.572715,51.9935064 342.94948,50.6770469 L344.401012,57.1029334 C340.454933,58.8234547 335.796126,59.6793706 330.420245,59.6793706 C323.953543,59.6793706 318.87753,57.7763697 315.183513,53.9790575 C311.498188,50.1774005 309.65118,45.0679735 309.65118,38.6681555 C309.65118,32.3856458 311.367811,27.150221 314.80542,22.9749154 C318.403827,18.5172011 323.266891,16.2883439 329.385921,16.2883439 C335.396303,16.2883439 339.946462,18.5172011 343.036398,22.9749154 C345.483141,26.5071979 346.713031,30.8867067 346.713031,36.0873735 L346.713031,36.0873735 Z M337.877813,33.6847263 C337.943001,30.934499 337.334575,28.5666098 336.07861,26.5636796 C334.474972,23.9828976 332.006499,22.6968514 328.699268,22.6968514 C325.670174,22.6968514 323.201702,23.9524844 321.324273,26.4724399 C319.781477,28.47537 318.864492,30.882362 318.582008,33.6760368 L337.877813,33.6847263 Z" id="Shape"></path>
                </g>
                <g id="Group" transform="translate(189.687655, 28.413400)" fill="#FFFFFF">
                    <path d="M6.79491512,30.2016336 C4.2177953,30.2016336 1.98834763,30.0756359 0.132647521,29.8627431 L0.132647521,1.90861611 C2.72805747,1.50779168 5.35081653,1.31022893 7.97700043,1.3175242 C18.6027306,1.3175242 23.4962161,6.54446527 23.4962161,15.0645217 C23.4962161,24.8923481 17.7161666,30.2016336 6.79491512,30.2016336 Z M8.350748,4.90214945 C6.91660037,4.90214945 5.69540194,4.98904446 4.6828068,5.19759251 L4.6828068,26.4477689 C5.23039044,26.5346639 6.2820987,26.5737667 7.75970534,26.5737667 C14.7218402,26.5737667 18.6853027,22.6113539 18.6853027,15.1905195 C18.6853027,8.57346392 15.0999336,4.90214945 8.350748,4.90214945 L8.350748,4.90214945 Z M38.7459858,30.4145264 C32.757333,30.4145264 28.8764426,25.9437778 28.8764426,19.8741609 C28.8764426,13.5482036 32.8399052,9.03835226 39.0849662,9.03835226 C44.9867009,9.03835226 48.9545094,13.2962081 48.9545094,19.5396151 C48.9545094,25.9437778 44.8650157,30.4145264 38.7459858,30.4145264 Z M38.9198219,12.3664314 C35.6299742,12.3664314 33.5222118,15.442515 33.5222118,19.7438183 C33.5222118,23.9625714 35.6734332,27.038655 38.8763629,27.038655 C42.0792926,27.038655 44.230514,23.7496786 44.230514,19.6569233 C44.230514,15.4859625 42.1227516,12.3664314 38.9198219,12.3664314 Z M83.1046064,9.45979309 L76.6944011,29.9496381 L72.5179894,29.9496381 L69.8626434,21.0515884 C69.2024089,18.8750656 68.6526748,16.666561 68.2155466,14.4345328 L68.1286285,14.4345328 C67.7939941,16.6677347 67.1594924,18.9052814 66.4858776,21.0515884 L63.6610414,29.9496381 L59.4411706,29.9496381 L53.4090588,9.45979309 L58.0895951,9.45979309 L60.4103068,19.2007245 C60.9578904,21.5208214 61.418556,23.7105759 61.8009954,25.7786773 L61.8879134,25.7786773 C62.2225478,24.0538112 62.7701315,21.8988148 63.5741233,19.244172 L66.4858776,9.46413784 L70.1972778,9.46413784 L72.9830009,19.035624 C73.6566157,21.3557209 74.2041994,23.6323704 74.6300977,25.783022 L74.751783,25.783022 C75.0473043,23.6758179 75.5123158,21.4382712 76.1424716,19.035624 L78.6326734,9.46413784 L83.1046064,9.45979309 L83.1046064,9.45979309 Z M106.702854,29.9496381 L102.148349,29.9496381 L102.148349,18.1840528 C102.148349,14.5605306 100.75766,12.7444247 98.0153958,12.7444247 C95.3165907,12.7444247 93.4608906,15.0645217 93.4608906,17.762612 L93.4608906,29.9496381 L88.9063855,29.9496381 L88.9063855,15.3165172 C88.9063855,13.5047561 88.8629264,11.5626525 88.7368953,9.45544834 L92.7438168,9.45544834 L92.956766,12.618427 L93.0827972,12.618427 C94.3083415,10.4286725 96.7941974,9.03835226 99.5799205,9.03835226 C103.882363,9.03835226 106.7072,12.3273286 106.7072,17.6800617 L106.702854,29.9496381 L106.702854,29.9496381 Z M119.26251,29.9496381 L114.703659,29.9496381 L114.703659,0.0577522513 L119.26251,0.0577522513 L119.26251,29.9496381 Z M135.868201,30.4145264 C129.883894,30.4145264 125.998658,25.9437778 125.998658,19.8741609 C125.998658,13.5482036 129.962121,9.03835226 136.202836,9.03835226 C142.108916,9.03835226 146.072382,13.2962081 146.072382,19.5396151 C146.076725,25.9437778 141.982885,30.4145264 135.868201,30.4145264 Z M136.037691,12.3664314 C132.747844,12.3664314 130.640081,15.442515 130.640081,19.7438183 C130.640081,23.9625714 132.795649,27.038655 135.989887,27.038655 C139.197162,27.038655 141.344044,23.7496786 141.344044,19.6569233 C141.348384,15.4859625 139.244967,12.3664314 136.037691,12.3664314 L136.037691,12.3664314 Z M164.029646,29.9496381 L163.699357,27.5904384 L163.577672,27.5904384 C162.186983,29.4890945 160.157447,30.4145264 157.584673,30.4145264 C153.912386,30.4145264 151.304845,27.8424339 151.304845,24.3840123 C151.304845,19.3267223 155.68986,16.7111823 163.28215,16.7111823 L163.28215,16.3331889 C163.28215,13.6350987 161.852349,12.2838811 159.027512,12.2838811 C157.006668,12.2838811 155.23354,12.792217 153.673361,13.8045439 L152.747684,10.8110106 C154.642497,9.62923837 157.006668,9.03835226 159.783699,9.03835226 C165.137851,9.03835226 167.841002,11.8624403 167.841002,17.5149612 L167.841002,25.0617934 C167.841002,27.1298948 167.932265,28.7331079 168.136523,29.9539828 L164.029646,29.9496381 L164.029646,29.9496381 Z M163.403836,19.7438183 C158.345206,19.7438183 155.807199,20.9690381 155.807199,23.8756764 C155.807199,26.0263281 157.115316,27.0777578 158.931903,27.0777578 C161.248268,27.0777578 163.403836,25.3094442 163.403836,22.906797 L163.403836,19.7438183 L163.403836,19.7438183 Z M189.957296,29.9496381 L189.744347,26.6606617 L189.618316,26.6606617 C188.310199,29.1458592 186.111173,30.4145264 183.03862,30.4145264 C178.09733,30.4145264 174.438081,26.0697756 174.438081,19.9567111 C174.438081,13.5482036 178.232053,9.03400751 183.412368,9.03400751 C186.154632,9.03400751 188.09725,9.95943944 189.192418,11.8189928 L189.283681,11.8189928 L189.283681,0.0577522513 L193.842533,0.0577522513 L193.842533,24.4274598 C193.842533,26.4086662 193.890337,28.2638748 194.012023,29.9496381 L189.957296,29.9496381 Z M189.283681,17.8929545 C189.283681,15.0254189 187.384522,12.5793242 184.485806,12.5793242 C181.10904,12.5793242 179.044737,15.5728575 179.044737,19.7872659 C179.044737,23.9191239 181.187266,26.7475567 184.394542,26.7475567 C187.258491,26.7475567 189.283681,24.2580145 189.283681,21.3079287 L189.283681,17.8929545 Z M222.747126,30.4145264 C216.762819,30.4145264 212.881929,25.9437778 212.881929,19.8741609 C212.881929,13.5482036 216.845391,9.03835226 223.086106,9.03835226 C228.992187,9.03835226 232.955653,13.2962081 232.955653,19.5396151 C232.959995,25.9437778 228.870502,30.4145264 222.747126,30.4145264 Z M222.916616,12.3664314 C219.631114,12.3664314 217.523352,15.442515 217.523352,19.7438183 C217.523352,23.9625714 219.674573,27.038655 222.873157,27.038655 C226.080433,27.038655 228.227335,23.7496786 228.227335,19.6569233 C228.236,15.4859625 226.128238,12.3664314 222.916616,12.3664314 Z M257.449153,29.9496381 L252.890302,29.9496381 L252.890302,18.1840528 C252.890302,14.5605306 251.499613,12.7444247 248.757349,12.7444247 C246.058544,12.7444247 244.20719,15.0645217 244.20719,17.762612 L244.20719,29.9496381 L239.648338,29.9496381 L239.648338,15.3165172 C239.648338,13.5047561 239.604879,11.5626525 239.478848,9.45544834 L243.48577,9.45544834 L243.698719,12.618427 L243.82475,12.618427 C245.045949,10.4286725 247.53615,9.03400751 250.317528,9.03400751 C254.61997,9.03400751 257.449153,12.3229839 257.449153,17.6757169 L257.449153,29.9496381 Z M288.092107,12.8747673 L283.081282,12.8747673 L283.081282,22.8242467 C283.081282,25.3572364 283.959154,26.6215589 285.732282,26.6215589 C286.536274,26.6215589 287.209889,26.5346639 287.753127,26.4086662 L287.879158,29.8670878 C286.99694,30.2059784 285.814854,30.3754237 284.345939,30.3754237 C280.756224,30.3754237 278.609349,28.3942173 278.609349,23.2065848 L278.609349,12.8747673 L275.619368,12.8747673 L275.619368,9.45979309 L278.609349,9.45979309 L278.609349,5.70592836 L283.081282,4.35471084 L283.081282,9.45544834 L288.092107,9.45544834 L288.092107,12.8747673 L288.092107,12.8747673 Z M312.203171,29.9496381 L307.653011,29.9496381 L307.653011,18.2709478 C307.653011,14.6039781 306.266669,12.7487695 303.520059,12.7487695 C301.160234,12.7487695 298.961207,14.3519825 298.961207,17.5975114 L298.961207,29.9496381 L294.411048,29.9496381 L294.411048,0.0577522513 L298.961207,0.0577522513 L298.961207,12.3664314 L299.052471,12.3664314 C300.486619,10.1332295 302.56396,9.03400751 305.21496,9.03400751 C309.55217,9.03400751 312.203171,12.4055342 312.203171,17.762612 L312.203171,29.9496381 L312.203171,29.9496381 Z M336.905277,20.7995928 L323.237415,20.7995928 C323.324333,24.6794553 325.892762,26.8692097 329.695426,26.8692097 C331.71627,26.8692097 333.576316,26.5303192 335.219067,25.9003303 L335.927449,29.0633089 C333.989177,29.9061906 331.707578,30.3276314 329.052232,30.3276314 C322.642027,30.3276314 318.848055,26.2783236 318.848055,20.0001586 C318.848055,13.7176489 322.733291,8.99490475 328.539416,8.99490475 C333.776228,8.99490475 337.061729,12.8747673 337.061729,18.7358362 C337.09118,19.4275163 337.038664,20.1202508 336.905277,20.7995928 L336.905277,20.7995928 Z M332.728865,17.5540639 C332.728865,14.3910853 331.133919,12.1578834 328.222165,12.1578834 C325.605932,12.1578834 323.537283,14.4345328 323.241761,17.5540639 L332.728865,17.5540639 L332.728865,17.5540639 Z" id="Shape"></path>
                </g>
            </g>
        </g>
    </g>
</svg>