<?xml version="1.0" encoding="UTF-8"?>
<svg width="589px" height="176px" viewBox="0 0 589 176" version="1.1" xmlns="http://www.w3.org/2000/svg" xmlns:xlink="http://www.w3.org/1999/xlink">
    <!-- Generator: Sketch 62 (91390) - https://sketch.com -->
    <title>google-play-download-android-app</title>
    <desc>Created with Sketch.</desc>
    <defs>
        <path d="M83.3206799,45.7129018 L56.8151441,30.3865725 C56.8151441,30.3865725 8.52765401,2.46076888 5.68886972,0.819361027 C2.85018119,-0.822046828 0.0218360656,0.172466767 0.0218360656,3.60261782 L0.0218360656,124.062022 C0.0218360656,126.633484 2.04330026,127.741952 4.5096264,126.316943 C6.97480328,124.889632 56.8151441,96.0683059 56.8151441,96.0683059 L83.3195306,80.7430317 C83.3195306,80.7430317 105.80838,67.7396322 108.797526,66.0117991 C111.786865,64.2817598 111.499548,61.9105816 108.976908,60.5501276 C106.455417,59.1883308 83.3206799,45.7129018 83.3206799,45.7129018 L83.3206799,45.7129018 Z" id="path-1"></path>
        <path d="M83.3206799,45.7129018 L56.8151441,30.3865725 C56.8151441,30.3865725 8.52765401,2.46076888 5.68886972,0.819361027 C2.85018119,-0.822046828 0.0218360656,0.172466767 0.0218360656,3.60261782 L0.0218360656,124.062022 C0.0218360656,126.633484 2.04330026,127.741952 4.5096264,126.316943 C6.97480328,124.889632 56.8151441,96.0683059 56.8151441,96.0683059 L83.3195306,80.7430317 C83.3195306,80.7430317 105.80838,67.7396322 108.797526,66.0117991 C111.786865,64.2817598 111.499548,61.9105816 108.976908,60.5501276 C106.455417,59.1883308 83.3206799,45.7129018 83.3206799,45.7129018 L83.3206799,45.7129018 Z" id="path-3"></path>
        <path d="M83.3206799,45.7129018 L56.8151441,30.3865725 C56.8151441,30.3865725 8.52765401,2.46076888 5.68886972,0.819361027 C2.85018119,-0.822046828 0.0218360656,0.172466767 0.0218360656,3.60261782 L0.0218360656,124.062022 C0.0218360656,126.633484 2.04330026,127.741952 4.5096264,126.316943 C6.97480328,124.889632 56.8151441,96.0683059 56.8151441,96.0683059 L83.3195306,80.7430317 C83.3195306,80.7430317 105.80838,67.7396322 108.797526,66.0117991 C111.786865,64.2817598 111.499548,61.9105816 108.976908,60.5501276 C106.455417,59.1883308 83.3206799,45.7129018 83.3206799,45.7129018 L83.3206799,45.7129018 Z" id="path-5"></path>
        <path d="M56.8151441,30.3865725 C56.8151441,30.3865725 8.52765401,2.46076888 5.68886972,0.819361027 C2.85018119,-0.822046828 0.0218360656,0.172466767 0.0218360656,3.60261782 L0.0218360656,124.062022 C0.0218360656,126.633484 2.04330026,127.741952 4.5096264,126.316943 C6.97480328,124.889632 56.8151441,96.0683059 56.8151441,96.0683059 L83.3195306,80.7430317 C83.3195306,80.7430317 105.80838,67.7396322 108.797526,66.0117991 C111.786865,64.2817598 111.499548,61.9105816 108.976908,60.5501276 C106.455417,59.1883308 83.3206799,45.7129018 83.3206799,45.7129018 L56.8151441,30.3865725 Z" id="path-7"></path>
    </defs>
    <g id="Symbols" stroke="none" stroke-width="1" fill="none" fill-rule="evenodd">
        <g id="BTN/PLAYSTORE-LARGE" transform="translate(0.000000, 1.000000)">
            <g id="google-play-download-android-app">
                <path d="M561.588302,174 L26.4793823,174 C12.1509749,174 0.531021006,163.470208 0.531021006,150.483985 L0.531021006,23.5139351 C0.531021006,10.5297918 12.1509749,0 26.4793823,0 L561.587155,0 C575.914414,0 587.531021,10.5297918 587.531021,23.5139351 L587.531021,150.483985 C587.531021,163.469168 575.915562,174 561.588302,174 Z" id="Path" stroke="#FFFFFF" fill-rule="nonzero"></path>
                <g id="Group-8" transform="translate(44.531021, 24.000000)">
                    <g id="Clipped">
                        <mask id="mask-2" fill="white">
                            <use xlink:href="#path-1"></use>
                        </mask>
                        <g id="a"></g>
                        <polygon id="Path" fill="#FFFFFF" fill-rule="nonzero" mask="url(#mask-2)" points="0.0229853322 -1.98116163 0.0229853322 128.437095 65.6851838 63.2285423"></polygon>
                    </g>
                    <g id="Clipped">
                        <mask id="mask-4" fill="white">
                            <use xlink:href="#path-3"></use>
                        </mask>
                        <g id="d"></g>
                        <polygon id="Path" fill="#FFFFFF" fill-rule="nonzero" mask="url(#mask-4)" points="83.3206799 45.7129018 56.8151441 30.3865725 0.0229853322 -2.45539728 0.0229853322 -1.98116163 65.6851838 63.2285423"></polygon>
                    </g>
                    <g id="Clipped">
                        <mask id="mask-6" fill="white">
                            <use xlink:href="#path-5"></use>
                        </mask>
                        <g id="g"></g>
                        <polygon id="Path" fill="#FFFFFF" fill-rule="nonzero" mask="url(#mask-6)" points="0.0229853322 128.437095 0.0229853322 128.911331 56.8151441 96.06821 83.3195306 80.7418807 65.6851838 63.2285423"></polygon>
                    </g>
                    <g id="Clipped">
                        <mask id="mask-8" fill="white">
                            <use xlink:href="#path-7"></use>
                        </mask>
                        <g id="j"></g>
                        <polygon id="Path" fill="#FFFFFF" fill-rule="nonzero" mask="url(#mask-8)" points="83.3206799 45.7129018 65.6851838 63.2285423 83.3195306 80.7418807 113.610655 63.2273912"></polygon>
                    </g>
                </g>
                <g id="Group-20" transform="translate(179.531021, 74.000000)" fill="#FFFFFF" fill-rule="nonzero">
                    <path d="M262.001669,55.776559 C259.690518,55.776559 257.581835,55.3465724 255.672389,54.4876849 C253.762944,53.6277117 252.158366,52.3051771 250.862697,50.5222528 L250.475082,50.5222528 C250.733462,52.6113797 250.862697,54.5920146 250.862697,56.4628002 L250.862697,71.1854987 L245.490832,71.1854987 L245.490832,19.3449653 L249.861126,19.3449653 L250.604227,24.2420352 L250.862697,24.2420352 C252.245421,22.2821214 253.854485,20.8694633 255.688454,19.9986319 C257.522603,19.1278004 259.627965,18.6923846 262.000502,18.6923846 C266.706807,18.6923846 270.339385,20.3146069 272.896082,23.5568797 C275.453857,26.7991526 276.733282,31.3487585 276.733282,37.2013541 C276.733282,43.077838 275.432318,47.6415596 272.833619,50.8979482 C270.232856,54.1509888 266.622894,55.776559 262.001669,55.776559 L262.001669,55.776559 Z M261.224106,23.2951959 C257.59799,23.2951959 254.975598,24.3082705 253.356931,26.3312526 C251.738263,28.3551395 250.906852,31.5768722 250.862697,35.9950933 L250.862697,37.2014446 C250.862697,42.2298088 251.694108,45.8260605 253.356931,47.9923715 C255.019753,50.1586824 257.6863,51.2389876 261.353341,51.2389876 C264.420516,51.2389876 266.822221,49.9892033 268.560431,47.4863771 C270.296486,44.9846368 271.165501,41.5349714 271.165501,37.1362951 C271.165501,32.6768127 270.296397,29.2520308 268.560431,26.8697312 C266.823208,24.4852599 264.376361,23.2951959 261.224106,23.2951959 L261.224106,23.2951959 Z M289.178694,55.1228924 L283.804586,55.1228924 L283.804586,4.32800837 L289.178694,4.32800837 L289.178694,55.1228924 Z M320.079838,55.1228924 L319.010419,50.0304646 L318.75195,50.0304646 C316.981342,52.2736882 315.217285,53.7927571 313.457626,54.5843233 C311.698954,55.3802329 309.501961,55.7766495 306.869876,55.7766495 C303.351546,55.7766495 300.594445,54.862385 298.596688,53.0348514 C296.598932,51.2074987 295.601669,48.6079437 295.601669,45.2332002 C295.601669,38.0092078 301.333237,34.2218509 312.79413,33.8722153 L318.818721,33.675681 L318.818721,31.4562551 C318.818721,28.6483122 318.218766,26.5743868 317.020112,25.2377365 C315.823612,23.8977382 313.904474,23.2289606 311.273556,23.2289606 C308.315064,23.2289606 304.969046,24.1432251 301.236222,25.9706683 L299.584258,21.8249892 C301.334314,20.8672917 303.248068,20.1170772 305.333058,19.5729885 C307.415894,19.0289903 309.503038,18.7565388 311.59772,18.7565388 C315.828099,18.7565388 318.963033,19.7022922 321.003958,21.5959706 C323.042638,23.4896491 324.062517,26.5255247 324.062517,30.7049549 L324.062517,55.1218971 L320.079928,55.1218971 L320.079928,55.1228924 L320.079838,55.1228924 Z M307.938218,51.3051325 C311.282172,51.3051325 313.909948,50.3799192 315.821548,48.5308501 C317.730007,46.6816 318.687422,44.0909125 318.687422,40.759602 L318.687422,37.5281874 L313.310173,37.7551248 C309.036805,37.9103977 305.957693,38.5770942 304.066646,39.7660723 C302.178739,40.951793 301.234157,42.7966093 301.234157,45.2994355 C301.234157,47.2571776 301.821099,48.7491009 302.999381,49.7696857 C304.176406,50.793709 305.82092,51.3051325 307.938218,51.3051325 Z M327.182374,19.3449653 L332.944097,19.3449653 L340.715513,39.7486086 C342.420336,44.406797 343.478896,47.7686011 343.890294,49.8370068 L344.148853,49.8370068 C344.42985,48.7251222 345.018945,46.8281863 345.91282,44.137603 C346.808849,41.4491008 349.740238,33.1869694 354.702948,19.3449653 L360.468979,19.3449653 L345.217106,60.0861976 C343.707211,64.112436 341.942167,66.9691505 339.921705,68.6586939 C337.904563,70.343894 335.426484,71.1854987 332.493929,71.1854987 C330.852645,71.1854987 329.233978,71.0009085 327.634696,70.631728 L327.634696,66.29051 C328.821413,66.551108 330.150379,66.6824928 331.618362,66.6824928 C335.310173,66.6824928 337.94118,64.5933659 339.518923,60.4141167 L341.492986,55.3225937 L327.182374,19.3449653 L327.182374,19.3449653 Z M162.437927,22.6697609 C164.143917,24.0931867 167.706493,27.0835482 167.706493,32.7744464 C167.706493,38.3088954 164.588701,40.933334 161.470909,43.3992421 C160.505955,44.3709648 159.39238,45.4220432 159.39238,47.0703253 C159.39238,48.7131782 160.504878,49.6123316 161.324442,50.2866288 L163.997451,52.3778369 C167.262786,55.1477759 170.228728,57.6940351 170.228728,62.8593036 C170.228728,69.8932767 163.47405,77 150.709948,77 C139.945847,77 134.752757,71.8379889 134.752757,66.297025 C134.752757,63.6041795 136.08271,59.7896769 140.468171,57.1674101 C145.06678,54.3236349 151.305596,53.9533687 154.644074,53.7232643 C153.601669,52.3779274 152.417016,50.9554969 152.417016,48.6394326 C152.417016,47.3690176 152.789643,46.6197984 153.159129,45.717478 C152.339475,45.7934858 151.524218,45.8684077 150.781207,45.8684077 C142.916096,45.8684077 138.462966,39.9560917 138.462966,34.121955 C138.462966,30.6788046 140.023478,26.8599588 143.211272,24.094363 C147.443626,20.577467 152.490249,19.9769154 156.502006,19.9769154 L171.788342,19.9769154 L167.037792,22.6708467 L162.438016,22.6708467 L162.438016,22.6697609 L162.437927,22.6697609 Z M157.166219,55.8981714 C156.572905,55.819992 156.200188,55.819992 155.461395,55.819992 C154.793771,55.819992 150.77995,55.9730933 147.666466,57.0230858 C146.033888,57.617032 141.282172,59.4129862 141.282172,64.7291844 C141.282172,70.0399535 146.406426,73.8621473 154.348988,73.8621473 C161.469832,73.8621473 165.259556,70.4124819 165.259556,65.7770054 C165.259556,61.9527304 162.809567,59.9406971 157.166219,55.8981714 Z M159.320134,41.677124 C161.024958,39.95392 161.171514,37.561848 161.171514,36.2132536 C161.171514,30.8264768 157.981476,22.4449951 151.822445,22.4449951 C149.890294,22.4449951 147.814009,23.4168083 146.626125,24.9152465 C145.365995,26.486435 144.991214,28.5049833 144.991214,30.452953 C144.991214,35.4662061 147.886076,43.7738516 154.272434,43.7738516 C156.128122,43.7738516 158.128032,42.8758745 159.320134,41.677124 L159.320134,41.677124 Z M115.709903,54.7005066 C103.929064,54.7005066 97.630029,45.4351636 97.630029,37.065626 C97.630029,27.276825 105.557514,18.9128071 116.825721,18.9128071 C127.713673,18.9128071 134.531981,27.5016812 134.531981,36.5443397 C134.532968,45.3569842 127.792291,54.7005066 115.709903,54.7005066 Z M124.971828,48.649205 C126.753116,46.2560471 127.19781,43.2689431 127.19781,40.3525082 C127.19781,33.7755769 124.085403,21.2257044 114.895723,21.2257044 C112.451119,21.2257044 110.006426,22.1986034 108.228369,23.7708777 C105.337725,26.3821959 104.816567,29.6712497 104.816567,32.8874627 C104.816567,40.2786721 108.447978,52.4539351 117.416881,52.4539351 C120.306358,52.4539351 123.271133,51.0369337 124.971828,48.649205 L124.971828,48.649205 Z M75.5447699,54.7005066 C63.7616871,54.7005066 57.4615749,45.4351636 57.4615749,37.065626 C57.4615749,27.276825 65.3922009,18.9128071 76.6572671,18.9128071 C87.5485392,18.9128071 94.3655911,27.5016812 94.3655911,36.5443397 C94.3667578,45.3569842 87.6250032,54.7005066 75.5447699,54.7005066 Z M84.8087591,48.649205 C86.5868161,46.2560471 87.0326765,43.2689431 87.0326765,40.3525082 C87.0326765,33.7755769 83.9180254,21.2257044 74.7283463,21.2257044 C72.2847295,21.2257044 69.8379716,22.1986034 68.0609018,23.7708777 C65.1703476,26.3821959 64.652331,29.6712497 64.652331,32.8874627 C64.652331,40.2786721 68.2816781,52.4539351 77.2517477,52.4539351 C80.1423019,52.4539351 83.1051019,51.0369337 84.8087591,48.649205 L84.8087591,48.649205 Z M51.8010858,53.5289016 L41.1455776,56.0078397 C36.8226698,56.6853943 32.9500201,57.2815121 28.8543503,57.2815121 C8.28876809,57.2815121 0.468978994,42.0321887 0.468978994,30.0881159 C0.468978994,15.5175234 11.568104,2 30.5688668,2 C34.5934573,2 38.4641327,2.59937529 41.9652321,3.57661761 C47.5524881,5.15441153 50.1598922,7.1055482 51.8000088,8.23381065 L45.6139644,14.1677527 L43.007727,14.7660422 L44.8697867,11.7604791 C42.3378594,9.28371275 37.7144805,4.70261792 28.9265065,4.70261792 C17.154283,4.70261792 8.28670392,13.7203929 8.28670392,26.8643021 C8.28670392,40.9821961 18.4208749,54.2781208 34.6591518,54.2781208 C39.4322278,54.2781208 41.885627,53.3031406 44.1223781,52.3996438 L44.1223781,40.3089847 L32.874633,40.9094458 L38.8323624,37.6759501 L54.6280995,37.6759501 L52.6928067,39.5533411 C52.1673411,40.0061301 52.095185,40.1581456 51.9465648,40.7531775 C51.8690239,41.4307322 51.7990216,43.6110684 51.7990216,44.3613734 L51.7990216,53.5289921 L51.8010858,53.5289921 L51.8010858,53.5289016 Z" id="Shape"></path>
                    <path d="M186.170427,50.5792001 C183.729818,50.3553793 183.218953,49.9109659 183.218953,47.0045234 L183.218953,4.87240699 C183.233913,4.71207381 183.24353,4.54743638 183.258401,4.39239384 C183.556621,1.78832473 184.295001,1.34175916 186.589128,0 L176.014757,0 L170.468979,2.68046948 L176.120635,2.68046948 L176.120635,2.71382739 L176.11636,2.68692585 L176.11636,48.6444413 C176.11636,50.1304824 175.824641,50.3564554 174.122324,52.5871311 L187.208096,52.5871311 L189.94354,50.9536696 C188.687973,50.7997928 187.4292,50.7276966 186.170427,50.5792001 L186.170427,50.5792001 Z M216.250525,51.2635753 C215.445983,51.7079888 214.638145,52.2277265 213.833424,52.5946635 C211.406707,53.703007 208.91169,54 206.705008,54 C204.361638,54 200.687902,53.8471993 196.940434,51.1150788 C191.732323,47.415579 189.456273,41.0582966 189.456273,35.5154136 C189.456273,24.0585856 198.705708,18.4404679 206.266895,18.4404679 C208.910532,18.4404679 211.630126,19.1043979 213.832356,20.5119762 C217.49977,22.9470139 218.453823,26.1257896 218.964688,27.8269534 L201.717022,34.8526493 L196.063229,35.295897 C197.895823,44.6845346 204.209011,50.1509276 211.185602,50.1509276 C214.928796,50.1509276 217.646164,48.8230676 220.14127,47.5683797 L216.250525,51.2635753 L216.250525,51.2635753 Z M209.35194,29.2301377 C210.744284,28.7147042 211.478301,28.2692147 211.478301,27.2351195 C211.478301,24.2802543 208.176426,20.8777474 204.208833,20.8777474 C201.269114,20.8777474 195.767147,23.1708347 195.767147,31.1531495 C195.767147,32.4099894 195.914609,33.7400016 195.990477,35.0753044 L209.35194,29.2301377 L209.35194,29.2301377 Z M223.336199,18.9462168 L223.336199,23.8240041 L222.747507,23.8240041 L222.747507,18.9462168 L221.144655,18.9462168 L221.144655,18.4403782 L224.938071,18.4403782 L224.938071,18.9462168 L223.336199,18.9462168 L223.336199,18.9462168 Z M229.940038,23.8240041 L229.940038,18.9010223 L229.913324,18.9010223 L228.421603,23.8240041 L227.96105,23.8240041 L226.456506,18.9010223 L226.437183,18.9010223 L226.437183,23.8240041 L225.902899,23.8240041 L225.902899,18.4404679 L226.818662,18.4404679 L228.180017,22.7920611 L228.199252,22.7920611 L229.540304,18.4404679 L230.468979,18.4404679 L230.468979,23.8240041 L229.940038,23.8240041 L229.940038,23.8240041 Z" id="Shape"></path>
                </g>
                <path d="M194.153194,54.5787229 L190.210379,54.5787229 C190.210379,54.0637178 189.836511,52.605807 189.088775,50.2039016 L183.396942,50.2039016 C182.625218,52.56661 182.238735,54.0244301 182.238735,54.5787229 L178.531021,54.5787229 C178.531021,54.2748554 179.489774,51.7793127 181.407281,47.0931836 C183.324692,42.4069638 184.28354,39.8253147 184.28354,39.3506862 L188.940833,39.3506862 C188.940833,39.7949189 189.808987,42.3383691 191.54644,46.9821254 C193.283894,51.6258818 194.153194,54.1573551 194.153194,54.5787229 L194.153194,54.5787229 Z M188.461361,47.9696722 C187.056585,43.9464444 186.354723,41.7711013 186.354723,41.44328 L186.157467,41.44328 C186.157467,41.7471476 185.430374,43.9224906 183.977336,47.9696722 L188.461361,47.9696722 L188.461361,47.9696722 Z M210.039139,54.5787229 L206.996588,54.5787229 C206.996588,54.258614 205.867052,52.5709652 203.608841,49.5146875 C201.244069,46.2940002 199.896539,44.0924351 199.56864,42.9068164 L199.371384,42.9068164 C199.576668,44.613973 199.679978,46.1578995 199.679978,47.5385959 C199.679978,49.4646932 199.73732,51.8121583 199.852003,54.5799025 L196.820921,54.5799025 C196.943537,52.1627538 197.005561,49.5082454 197.005561,46.6152886 C197.005561,43.7692412 196.943632,41.3476466 196.820921,39.3518657 L200.479226,39.3518657 C200.479226,39.7656119 201.493027,41.4151525 203.521777,44.2993989 C205.681361,47.3632982 206.92214,49.4418283 207.242202,50.5339004 L207.426842,50.5339004 C207.229682,48.7950777 207.130959,47.2358172 207.130959,45.8553023 C207.130959,43.7431099 207.073522,41.5741182 206.958934,39.3518657 L210.03933,39.3518657 C209.923404,41.2855847 209.867209,43.7070886 209.867209,46.6152886 C209.865967,49.5451741 209.923309,52.1996824 210.039139,54.5787229 L210.039139,54.5787229 Z M227.894198,46.4378133 C227.894198,48.6523534 227.146558,50.5861631 225.652137,52.2389702 C224.156666,53.8928661 222.062451,54.7181808 219.368634,54.7181808 C218.15299,54.7181808 216.477465,54.6712714 214.34206,54.5776341 C214.44862,52.2226381 214.502617,49.5669502 214.502617,46.613111 C214.502617,43.7756833 214.448716,41.3541794 214.34206,39.3495974 L216.498204,39.3495974 C216.851333,39.3495974 217.376583,39.3376205 218.075101,39.3147556 C218.77228,39.2918907 219.22872,39.2799138 219.442031,39.2799138 C222.406693,39.2799138 224.55586,39.9821935 225.891826,41.3856641 C227.22674,42.7891346 227.894198,44.4724283 227.894198,46.4378133 L227.894198,46.4378133 Z M224.531585,46.9406601 C224.531585,45.4435522 224.071705,44.1827152 223.151944,43.1559714 C222.232183,42.1314052 220.827311,41.6186685 218.938475,41.6186685 C218.585346,41.6186685 218.101287,41.6535103 217.48429,41.7242826 C217.565715,43.2844505 217.607001,44.9133038 217.607001,46.6130203 C217.607001,48.4770557 217.648287,50.324759 217.729617,52.157219 C218.256676,52.2580321 218.792948,52.3090917 219.330597,52.3096518 C221.096721,52.3096518 222.404112,51.7882046 223.254012,50.7472156 C224.103911,49.7063173 224.531585,48.4377679 224.531585,46.9406601 L224.531585,46.9406601 Z M244.359294,54.5787229 L240.712362,54.5787229 C239.759343,51.8186004 239.028905,50.1146195 238.519711,49.4678689 C238.010516,48.8200295 237.189383,48.4966542 236.056311,48.4966542 C235.579228,48.4966542 235.12384,48.5010094 234.689285,48.5086311 C234.689285,50.5132131 234.725888,52.5361234 234.800528,54.5787229 L231.376082,54.5787229 C231.482642,52.2236362 231.536638,49.568039 231.536638,46.6141091 C231.536638,43.7767721 231.482737,41.3551775 231.376082,39.3506862 L233.506804,39.3506862 C233.753373,39.3506862 234.268397,39.3387093 235.052831,39.3158444 C235.837266,39.2929795 236.562065,39.2809119 237.227229,39.2809119 C240.996872,39.2809119 242.882267,40.5047295 242.882267,42.9535443 C242.882267,44.8948849 241.806537,46.2471816 239.655076,47.012612 L239.655076,47.1879097 C240.484237,47.4056709 241.21133,48.0208461 241.835208,49.0290802 C242.457843,50.0384031 243.299619,51.888284 244.359294,54.5787229 L244.359294,54.5787229 Z M239.739847,43.8179653 C239.739847,42.2664171 238.6882,41.4901894 236.586053,41.4901894 C235.814234,41.4901894 235.131772,41.5446297 234.541248,41.6535103 C234.631848,42.8620846 234.676574,44.4375865 234.676574,46.3789271 C235.128522,46.3952592 235.510418,46.401793 235.822261,46.401793 C238.433603,46.4028808 239.739847,45.5416355 239.739847,43.8179653 L239.739847,43.8179653 Z M262.018149,46.6837019 C262.018149,49.0769876 261.246329,51.0617897 259.70164,52.6372916 C258.156854,54.2117954 256.247375,55 253.973204,55 C251.804636,55 249.989102,54.277033 248.528036,52.8300102 C247.065822,51.3840762 246.335289,49.5451741 246.335289,47.3162981 C246.335289,44.9231031 247.107108,42.9382103 248.651894,41.3627084 C250.195532,39.7882953 252.105011,39 254.380234,39 C256.548897,39 258.363284,39.7207894 259.825498,41.163457 C261.287711,42.6062153 262.018149,44.4452081 262.018149,46.6837019 L262.018149,46.6837019 Z M258.619028,47.0224113 C258.619028,45.3924691 258.179695,44.070659 257.301316,43.0569808 C256.421694,42.0433027 255.337936,41.5370081 254.048895,41.5370081 C252.849306,41.5370081 251.830918,42.0476579 250.993729,43.0689577 C250.15654,44.0902575 249.735652,45.380583 249.735652,46.9407508 C249.735652,48.5619825 250.177183,49.8816151 251.06015,50.8997391 C251.943212,51.9177725 253.024772,52.4262448 254.306932,52.4262448 C255.505374,52.4262448 256.524909,51.9134173 257.362098,50.8876715 C258.199287,49.8631054 258.619028,48.5738687 258.619028,47.0224113 L258.619028,47.0224113 Z M268.984114,54.5787229 L265.497739,54.5787229 C265.604394,52.1615742 265.658295,49.5070659 265.658295,46.6141091 C265.658295,43.767971 265.60449,41.3464671 265.497739,39.3506862 L268.984114,39.3506862 C268.877459,41.3159805 268.823557,43.7363956 268.823557,46.6141091 C268.823557,49.5527957 268.877459,52.2083929 268.984114,54.5787229 Z M286.84032,46.4378133 C286.84032,48.6523534 286.092584,50.5861631 284.598259,52.2389702 C283.102883,53.8928661 281.008669,54.7181808 278.314756,54.7181808 C277.099112,54.7181808 275.423587,54.6712714 273.288087,54.5776341 C273.394838,52.2226381 273.448739,49.5669502 273.448739,46.613111 C273.448739,43.7756833 273.394933,41.3541794 273.288087,39.3495974 L275.44423,39.3495974 C275.797455,39.3495974 276.322705,39.3376205 277.021127,39.3147556 C277.718498,39.2918907 278.174842,39.2799138 278.388249,39.2799138 C281.352815,39.2799138 283.501982,39.9821935 284.837948,41.3856641 C286.172862,42.7891346 286.84032,44.4724283 286.84032,46.4378133 L286.84032,46.4378133 Z M283.477803,46.9406601 C283.477803,45.4435522 283.017922,44.1827152 282.098066,43.1559714 C281.178305,42.1314052 279.773529,41.6186685 277.884597,41.6186685 C277.531373,41.6186685 277.047409,41.6535103 276.430412,41.7242826 C276.511837,43.2844505 276.553028,44.9133038 276.553028,46.6130203 C276.553028,48.4770557 276.594409,50.324759 276.675739,52.157219 C277.202799,52.258028 277.73907,52.3090875 278.276719,52.3096518 C280.042748,52.3096518 281.350234,51.7882046 282.200038,50.7472156 C283.050033,49.7063173 283.477803,48.4377679 283.477803,46.9406601 Z M310.529323,54.5787229 L306.586508,54.5787229 C306.586508,54.0637178 306.21264,52.605807 305.463758,50.2039016 L299.77202,50.2039016 C299.000201,52.56661 298.613622,54.0244301 298.613622,54.5787229 L294.90715,54.5787229 C294.90715,54.2748554 295.865808,51.7793127 297.78341,47.0931836 C299.700917,42.4069638 300.65967,39.8253147 300.65967,39.3506862 L305.316963,39.3506862 C305.316963,39.7949189 306.186263,42.3383691 307.92257,46.9821254 C309.658876,51.6258818 310.529323,54.1573551 310.529323,54.5787229 Z M304.837586,47.9696722 C303.432715,43.9464444 302.72961,41.7711013 302.72961,41.44328 L302.532354,41.44328 C302.532354,41.7471476 301.806408,43.9224906 300.353465,47.9696722 L304.837586,47.9696722 L304.837586,47.9696722 Z M324.899154,43.3378927 C324.899154,45.2019281 324.169672,46.5781785 322.712046,47.466644 C321.25442,48.3551094 319.466505,48.8003403 317.347061,48.8003403 C316.960673,48.8003403 316.68658,48.7927186 316.521436,48.7774753 C316.521436,50.2440966 316.566067,52.1768175 316.656762,54.5787229 L313.194375,54.5787229 C313.300935,52.3259839 313.354931,49.670296 313.354931,46.6141091 C313.354931,43.807168 313.301126,41.3856641 313.194375,39.3506862 L315.337807,39.3506862 C315.641718,39.3506862 316.224215,39.3387093 317.086729,39.3158444 C317.949244,39.2929795 318.695833,39.2809119 319.32879,39.2809119 C320.888484,39.2809119 322.207343,39.616264 323.283074,40.2869684 C324.358899,40.9577634 324.899154,41.9736191 324.899154,43.3378927 L324.899154,43.3378927 Z M321.721277,43.9813769 C321.721277,42.3132358 320.554851,41.4782125 318.222286,41.4782125 C317.638548,41.4782125 317.022698,41.5369173 316.374736,41.6535103 C316.465336,43.1277532 316.510063,44.7958036 316.510063,46.6598389 C316.715251,46.676171 316.953888,46.6827047 317.22454,46.6827047 C320.222365,46.6837019 321.721277,45.7833503 321.721277,43.9813769 L321.721277,43.9813769 Z M339.674963,43.3378927 C339.674963,45.2019281 338.945577,46.5781785 337.489098,47.466644 C336.031472,48.3551094 334.242411,48.8003403 332.123157,48.8003403 C331.736578,48.8003403 331.46258,48.7927186 331.297341,48.7774753 C331.297341,50.2440966 331.342163,52.1768175 331.432667,54.5787229 L327.970375,54.5787229 C328.077031,52.3259839 328.131028,49.670296 328.131028,46.6141091 C328.131028,43.807168 328.077126,41.3856641 327.970375,39.3506862 L330.113808,39.3506862 C330.417815,39.3506862 331.000311,39.3387093 331.86273,39.3158444 C332.725149,39.2929795 333.471738,39.2809119 334.10479,39.2809119 C335.664389,39.2809119 336.983344,39.616264 338.059074,40.2869684 C339.134709,40.9577634 339.674963,41.9736191 339.674963,43.3378927 L339.674963,43.3378927 Z M336.497086,43.9813769 C336.497086,42.3132358 335.330756,41.4782125 332.998191,41.4782125 C332.414453,41.4782125 331.798507,41.5369173 331.150642,41.6535103 C331.241146,43.1277532 331.285968,44.7958036 331.285968,46.6598389 C331.491156,46.676171 331.729793,46.6827047 332.000446,46.6827047 C334.998174,46.6837019 336.497086,45.7833503 336.497086,43.9813769 L336.497086,43.9813769 Z M363.833022,46.6837019 C363.833022,49.0769876 363.061203,51.0617897 361.516417,52.6372916 C359.971727,54.2127935 358.062153,55 355.787981,55 C353.619414,55 351.80388,54.277033 350.342909,52.8300102 C348.881747,51.3840762 348.150162,49.5451741 348.150162,47.3162981 C348.150162,44.9231031 348.921982,42.9382103 350.466672,41.3627084 C352.011457,39.7872065 353.921031,39 356.195107,39 C358.363771,39 360.179209,39.7207894 361.640275,41.163457 C363.101342,42.6062153 363.833022,44.4452081 363.833022,46.6837019 L363.833022,46.6837019 Z M360.432659,47.0224113 C360.432659,45.3924691 359.993326,44.070659 359.114947,43.0569808 C358.236568,42.0433027 357.151567,41.5370081 355.862621,41.5370081 C354.662937,41.5370081 353.644549,42.0476579 352.80736,43.0689577 C351.970171,44.0902575 351.55043,45.380583 351.55043,46.9407508 C351.55043,48.5619825 351.992056,49.8816151 352.875023,50.8997391 C353.75799,51.9177725 354.83955,52.4262448 356.120563,52.4262448 C357.320152,52.4262448 358.33854,51.9134173 359.175729,50.8877623 C360.014065,49.8631054 360.432659,48.5738687 360.432659,47.0224113 L360.432659,47.0224113 Z M380.531021,54.5787229 L377.488375,54.5787229 C377.488375,54.258614 376.359795,52.5709652 374.100627,49.5146875 C371.735855,46.2940002 370.38823,44.0924351 370.060331,42.9068164 L369.863075,42.9068164 C370.068359,44.613973 370.171669,46.1578995 370.171669,47.5385959 C370.171669,49.4646932 370.229011,51.8121583 370.34379,54.5799025 L367.312612,54.5799025 C367.435323,52.1627538 367.497252,49.5082454 367.497252,46.6152886 C367.497252,43.7692412 367.435514,41.3476466 367.312612,39.3518657 L370.971013,39.3518657 C370.971013,39.7656119 371.985961,41.4151525 374.013563,44.2993989 C376.174199,47.3632982 377.413926,49.4418283 377.733988,50.5339004 L377.918629,50.5339004 C377.721373,48.7950777 377.622745,47.2358172 377.622745,45.8553023 C377.622745,43.7431099 377.565404,41.5741182 377.450625,39.3518657 L380.531021,39.3518657 C380.415191,41.2855847 380.358996,43.7070886 380.358996,46.6152886 C380.3589,49.5451741 380.416242,52.1996824 380.531021,54.5787229 L380.531021,54.5787229 Z" id="Shape" fill="#FFFFFF" fill-rule="nonzero"></path>
            </g>
        </g>
    </g>
</svg>