<?xml version="1.0" encoding="UTF-8"?>
<svg width="78px" height="57px" viewBox="0 0 78 57" version="1.1" xmlns="http://www.w3.org/2000/svg" xmlns:xlink="http://www.w3.org/1999/xlink">
    <!-- Generator: sketchtool 62 (101010) - https://sketch.com -->
    <title>AA9E92C9-9BC4-4FDF-AA33-3E0F59A0BF5B</title>
    <desc>Created with sketchtool.</desc>
    <g id="Page-1" stroke="none" stroke-width="1" fill="none" fill-rule="evenodd">
        <g id="HOME" transform="translate(-164.000000, -3708.000000)">
            <g id="Group-23" transform="translate(136.000000, 3700.000000)">
                <g id="Group-6" transform="translate(28.000000, 8.000000)">
                    <path d="M38.2962284,26.9833985 L51.9892535,36.631445 L28.8368915,36.680272 L38.2962284,26.9833985 Z M71.2258555,38.7604073 L10.0193785,5.45244758 L0,0 L37.1322715,26.1632749 L36.3172863,26.7978026 L19.4888092,39.9 L21.1058148,39.9 L25.696056,39.9 L56.6281687,39.9 L67.8951245,39.9 L73.32,39.9 L71.2258555,38.7604073 Z" id="Fill-44" fill="#FEFEFE"></path>
                    <path d="M15.5229801,47.4289091 L15.5229801,47.0326678 C15.5229801,45.9013648 16.4886932,44.9843098 17.6800221,44.9843098 C18.8713068,44.9843098 19.8370199,45.9013648 19.8370199,47.0326678 L19.8370199,47.4289091 L15.5229801,47.4289091 Z M21.7760873,46.7948895 C21.7835519,46.7203138 21.7886313,46.6452767 21.7886313,46.5693168 C21.7886313,44.8892236 19.9376371,43.5272727 17.6543157,43.5272727 C15.3710385,43.5272727 13.52,44.8892236 13.52,46.5693168 C13.52,46.6452767 13.5251236,46.7203138 13.532544,46.7948895 L13.52,46.7948895 L13.52,51.8181818 L15.5229801,51.8181818 L15.5229801,49.1761959 L15.5229801,49.0278414 L19.8370199,49.0278414 L19.8370199,49.1526236 L19.8370199,51.8181818 L21.84,51.8181818 L21.84,46.7948895 L21.7760873,46.7948895 Z" id="Fill-45" fill="#353284"></path>
                    <polygon id="Fill-46" fill="#353284" points="63.44 52.3363636 66.04 52.3363636 66.04 46.1181818 63.44 46.1181818"></polygon>
                    <polygon id="Fill-47" fill="#353284" points="35.387594 46.1181818 35.387594 48.6118919 30.652406 48.6118919 30.652406 46.1181818 28.08 46.1181818 28.08 52.3363636 30.652406 52.3363636 30.652406 49.6815431 35.387594 49.6815431 35.387594 52.3363636 37.96 52.3363636 37.96 46.1181818"></polygon>
                    <path d="M53.1699664,47.2850824 C53.1699664,47.2850824 50.8818679,47.2780695 50.498364,47.889644 C50.1148153,48.5012185 50.1148153,48.6910024 50.1148153,49.450235 L50.1148153,49.7454545 L47.3327012,49.7454545 C47.3327012,49.7454545 47.1246922,48.1989377 48.3922454,47.2850824 C49.6598433,46.3712271 50.6543595,46.1181818 51.8439597,46.1181818 L53.56,46.5821466 L53.1699664,47.2850824 Z" id="Fill-48" fill="#353284"></path>
                    <path d="M53.4872061,47.1845183 L53.494098,47.1845183 L57.2,47.1845183 L57.2,46.1181818 L52.0945249,46.1181818 C50.8389262,46.1181818 49.7892346,46.3494195 48.4513108,47.1845183 C47.4238054,47.8259466 47.3153761,48.8060108 47.3201438,49.2272948 C47.3153761,49.6485346 47.4238054,50.6286431 48.4513108,51.2700272 C49.7892346,52.1051259 50.8389262,52.3363636 52.0945249,52.3363636 L52.1082143,52.3331815 L57.2,52.3331815 L57.2,51.2668008 L53.263975,51.2668008 C52.6510215,51.2521717 51.0023962,51.1705844 50.6742761,50.7175671 C50.3793881,50.3104261 50.2996594,50.1071207 50.277898,49.7588499 L57.2,49.7588499 L57.2,48.6925134 L50.278134,48.6925134 C50.3000842,48.3461872 50.3803322,48.1429261 50.6742761,47.7369784 C51.066453,47.1955675 53.3451671,47.184695 53.4872061,47.1845183" id="Fill-49" fill="#353284"></path>
                    <path d="M73.8218258,47.1845183 L78,47.1845183 L78,46.1181818 L72.9450243,46.1181818 C72.9450243,46.1181818 69.7052053,46.2723403 68.8289179,47.4093916 C68.0110528,48.470557 68.1162129,49.1423486 68.1338798,49.2272948 C68.1162129,49.3122411 68.0110528,49.9840326 68.8289179,51.0452422 C69.7052053,52.1822052 72.9450243,52.3363636 72.9450243,52.3363636 L72.9476883,52.3331815 L78,52.3331815 L78,51.2668008 L73.7557385,51.2668008 C70.4481497,51.1403096 70.9890932,49.2288859 70.9890932,49.2288859 L70.5818666,49.2272948 L70.9890932,49.2257037 C70.9890932,49.2257037 70.4388489,47.28732 73.8218258,47.1845183" id="Fill-50" fill="#353284"></path>
                    <path d="M72.8,46.9740554 L71.9781481,46.1181818 C71.9781481,46.1181818 68.9413701,46.241914 68.12,47.1545455" id="Fill-51" fill="#353284"></path>
                    <path d="M43.5438745,51.248627 L43.5438745,51.24218 C43.5438745,51.24218 42.3748594,51.1997562 42.1003703,50.9835343 C41.8259278,50.7672674 41.672434,50.7967973 41.5763838,50.1480866 L41.5763838,46.1181818 L39,46.1181818 L39,50.1480866 C39,50.1480866 39.0101645,51.632245 40.8500856,52.035249 C42.1345008,52.3165719 42.9369397,52.3438926 43.3052876,52.3348308 L43.3052876,52.3363636 L47.32,52.3363636 L47.32,51.248627 L43.5438745,51.248627 Z" id="Fill-52" fill="#353284"></path>
                    <polygon id="Fill-53" fill="#353284" points="78 43.5272727 20.8 43.5272727 20.8 45.0545653 22.9856628 45.0545653 22.9856628 51.8181818 25.4745032 51.8181818 25.4745032 45.0545653 59.5755271 45.0545653 59.5755271 51.8181818 62.0643675 51.8181818 62.0643675 45.0545653 78 45.0545653"></polygon>
                    <path d="M68.2636611,54.5778806 C67.5402118,54.4155244 67.1176564,54.4090909 66.8231495,54.4090909 C66.5286425,54.4090909 66.1061312,54.4155244 65.3826819,54.5778806 C64.6592325,54.7402369 64.48,55.1298204 64.48,55.2921767 L64.48,57 L65.3826819,57 L65.3826819,55.2921767 C65.4146609,54.7986744 66.355797,54.6947557 66.355797,54.6947557 L66.8231495,54.6947557 L67.2905019,54.6947557 C67.2905019,54.6947557 68.231638,54.7986744 68.2636611,55.2921767 L68.25723,55.2921767 L68.25723,55.4740121 L65.6387787,55.4740121 L65.6387787,55.8165507 L68.25723,55.8165507 L68.25723,57 L69.16,57 L69.16,55.2940978 C69.16,55.1840136 68.9871104,54.7402369 68.2636611,54.5778806" id="Fill-54" fill="#353284"></path>
                    <polygon id="Fill-55" fill="#353284" points="70.72 57 71.76 57 71.76 54.4090909 70.72 54.4090909"></polygon>
                    <path d="M75.4251174,55.6688038 C76.2446261,55.5324496 76.5929442,55.1558224 76.1422403,54.7921963 C75.6914894,54.4285254 74.3665835,54.4090909 74.3665835,54.4090909 L73.4650817,54.4090909 C72.0311178,54.4090909 71.76,55.2467401 71.76,55.2467401 L71.76,57 L72.6888485,57 L72.6888485,55.2467401 C72.6888485,54.857112 73.3285361,54.707578 74.3665835,54.707578 C75.4046309,54.707578 75.3636578,55.0649047 75.3636578,55.2467401 C75.3636578,55.4285309 74.5851222,55.5454059 74.5851222,55.5454059 L73.0842012,55.5454059 L73.0842012,55.8807069 L74.5851222,55.8807069 C75.5275971,55.8807069 75.4990287,56.3166205 75.4990287,56.3166205 L75.4990287,57 L76.44,57 L76.44,56.3166205 C76.3825813,55.6981566 75.4251174,55.6688038 75.4251174,55.6688038" id="Fill-56" fill="#353284"></path>
                </g>
            </g>
        </g>
    </g>
</svg>