<?xml version="1.0" encoding="UTF-8"?>
<svg width="35px" height="24px" viewBox="0 0 35 24" version="1.1" xmlns="http://www.w3.org/2000/svg" xmlns:xlink="http://www.w3.org/1999/xlink">
    <!-- Generator: Sketch 62 (91390) - https://sketch.com -->
    <title>mdpi/Group 51</title>
    <desc>Created with Sketch.</desc>
    <g id="Page-1" stroke="none" stroke-width="1" fill="none" fill-rule="evenodd">
        <g id="Group-51" transform="translate(-9.000000, -10.000000)">
            <rect id="Rectangle-Copy-12" x="0" y="0" width="53" height="44"></rect>
            <g id="creditcard" transform="translate(9.000000, 10.000000)" fill="#FF596A">
                <g id="pay">
                    <path d="M31.3541895,0.0227636719 L3.64581055,0.0227636719 C1.63625,0.0227636719 0,1.65901367 0,3.66864258 L0,19.710332 C0,21.7198926 1.63625,23.3561426 3.64581055,23.3561426 L31.3541211,23.3561426 C33.3636816,23.3561426 34.9999316,21.7198926 34.9999316,19.710332 L34.9999316,3.66864258 C34.9999316,1.65901367 33.36375,0.0227636719 31.3541895,0.0227636719 Z M33.5416895,19.7102637 C33.5416895,20.9163281 32.5602539,21.8977637 31.3541895,21.8977637 L3.64581055,21.8977637 C2.43974609,21.8977637 1.45831055,20.9163281 1.45831055,19.7102637 L1.45831055,3.66864258 C1.45831055,2.46257812 2.43974609,1.48114258 3.64581055,1.48114258 L31.3541211,1.48114258 C32.5601855,1.48114258 33.5416895,2.46257812 33.5416895,3.66864258 L33.5416895,19.7102637 L33.5416895,19.7102637 Z" id="Shape" fill-rule="nonzero"></path>
                    <path d="M34.2708105,4.39776367 L0.729189453,4.39776367 C0.326689453,4.39776367 0,4.72445312 0,5.12695312 L0,9.50195312 C0,9.90445312 0.326689453,10.2311426 0.729189453,10.2311426 L34.2708789,10.2311426 C34.6733789,10.2311426 35.0000684,9.90445312 35.0000684,9.50195312 L35.0000684,5.12695312 C35.0000684,4.72445312 34.6733105,4.39776367 34.2708105,4.39776367 Z M33.5416895,8.77276367 L1.45831055,8.77276367 L1.45831055,5.85607422 L33.5416895,5.85607422 L33.5416895,8.77276367 L33.5416895,8.77276367 Z" id="Shape" fill-rule="nonzero"></path>
                    <path d="M13.8541895,14.6061426 L5.10418945,14.6061426 C4.70168945,14.6061426 4.375,14.932832 4.375,15.335332 C4.375,15.737832 4.70168945,16.0644531 5.10418945,16.0644531 L13.8541895,16.0644531 C14.2566895,16.0644531 14.5833789,15.7377637 14.5833789,15.3352637 C14.5833789,14.9327637 14.2566895,14.6061426 13.8541895,14.6061426 Z" id="Path" fill-rule="nonzero"></path>
                    <path d="M13.8541895,17.5227637 L5.10418945,17.5227637 C4.70168945,17.5227637 4.375,17.8494531 4.375,18.2519531 C4.375,18.6544531 4.70168945,18.9811426 5.10418945,18.9811426 L13.8541895,18.9811426 C14.2566895,18.9811426 14.5833789,18.6544531 14.5833789,18.2519531 C14.5833789,17.8494531 14.2566895,17.5227637 13.8541895,17.5227637 Z" id="Path" fill-rule="nonzero"></path>
                </g>
            </g>
        </g>
    </g>
</svg>