<?xml version="1.0" encoding="UTF-8"?>
<svg width="35px" height="23px" viewBox="0 0 35 23" version="1.1" xmlns="http://www.w3.org/2000/svg" xmlns:xlink="http://www.w3.org/1999/xlink">
    <!-- Generator: Sketch 62 (91390) - https://sketch.com -->
    <title>mdpi/Group 50</title>
    <desc>Created with Sketch.</desc>
    <g id="Page-1" stroke="none" stroke-width="1" fill="none" fill-rule="evenodd">
        <g id="Group-50" transform="translate(-9.000000, -11.000000)">
            <rect id="Rectangle-Copy-11" x="0" y="0" width="53" height="44"></rect>
            <g id="fast" transform="translate(9.000000, 11.000000)" fill="#FF596A">
                <g id="Group-49">
                    <path d="M5.22665203,18.5679171 L4.40225412,18.5803314 L4.23607672,18.5316352 C2.75687303,18.0923821 1.71388073,17.4883616 1.1210441,16.6764332 C0.466325409,15.7797532 0.409099134,14.6996073 0.909387693,13.5410443 C1.01706958,13.2916757 1.15412469,12.9986998 1.3206179,12.6619786 L0.657423971,12.6616897 C0.294338738,12.6616897 4.44651169e-17,12.3673509 0,12.0042657 C-4.44651169e-17,11.6411805 0.294338738,11.3468417 0.657423971,11.3468417 L2.00056942,11.3477161 C2.44135558,10.5238876 2.98745929,9.54338942 3.63931784,8.40529293 L0.657423971,8.40408682 C0.294338738,8.40408682 4.44651169e-17,8.10974808 0,7.74666285 C-4.44651169e-17,7.38357761 0.294338738,7.08923888 0.657423971,7.08923888 L4.39874807,7.09027513 C4.89113137,6.24397668 5.43177409,5.32571468 6.02081073,4.33520351 L0.657423971,4.33431938 C0.294338738,4.33431938 4.44651169e-17,4.03998064 0,3.67689541 C-4.44651169e-17,3.31381017 0.294338738,3.01947143 0.657423971,3.01947143 L6.8056781,3.0204239 C6.93246724,2.80879081 7.06121516,2.59423193 7.19192294,2.37674493 L7.45426981,1.94065951 L7.79436026,1.37659185 C8.31782364,0.509421378 9.26237073,-0.0145849562 10.2751771,0.000309254761 L25.3610193,0.222159876 C25.9620001,0.230997829 26.5427703,0.429592039 27.0216382,0.786535078 L27.1962774,0.927749976 L33.9970051,6.88497657 C34.5630773,7.38083827 34.9078391,8.07845591 34.9613684,8.82362473 L34.9686941,9.02791568 L34.9686941,11.6469963 C34.9686941,12.0457358 34.8849976,12.4392756 34.7238726,12.8024091 L34.6368868,12.9813254 L32.6942454,16.6458534 C32.3226257,17.3468632 31.6820487,17.850965 30.9373024,18.0571692 L30.9240078,18.148064 C30.5164027,20.6470401 28.3476663,22.5543552 25.7334526,22.5543552 C23.191856,22.5543552 21.0713316,20.7515304 20.580913,18.3549143 L20.5732948,18.3169712 L20.5732948,18.3169712 L15.4740212,18.4001574 L15.5042409,18.247825 C15.0559156,20.6976237 12.9102633,22.5543552 10.3309481,22.5543552 C7.86196853,22.5543552 5.79034369,20.8530773 5.22440828,18.5588561 L5.22665203,18.5679171 Z M25.7334526,13.538255 C23.6586798,13.538255 21.9767442,15.2201906 21.9767442,17.2949634 C21.9767442,19.3697361 23.6586798,21.0516718 25.7334526,21.0516718 C27.8082254,21.0516718 29.490161,19.3697361 29.490161,17.2949634 C29.490161,15.2201906 27.8082254,13.538255 25.7334526,13.538255 Z M10.3309481,13.538255 C8.25617536,13.538255 6.57423971,15.2201906 6.57423971,17.2949634 C6.57423971,19.3697361 8.25617536,21.0516718 10.3309481,21.0516718 C12.4057209,21.0516718 14.0876565,19.3697361 14.0876565,17.2949634 C14.0876565,15.2201906 12.4057209,13.538255 10.3309481,13.538255 Z M10.2521605,1.56529586 C9.79584118,1.55872462 9.370276,1.79481538 9.13442986,2.18551856 C8.96388872,2.46803736 8.79642134,2.74596681 8.63202992,3.01930223 L11.8023256,3.01947143 C12.1654108,3.01947143 12.4597496,3.31381017 12.4597496,3.67689541 C12.4597496,4.03998064 12.1654108,4.33431938 11.8023256,4.33431938 L7.8430627,4.33537667 C7.25440785,5.32068686 6.71061486,6.23896148 6.21180593,7.08994102 L8.79695886,7.08923888 C9.16004409,7.08923888 9.45438283,7.38357761 9.45438283,7.74666285 C9.45438283,8.10974808 9.16004409,8.40408682 8.79695886,8.40408682 L5.44605345,8.40452365 C4.79764496,9.52533427 4.24260884,10.5063766 3.78130971,11.3468764 L5.5411449,11.3468417 C5.90423014,11.3468417 6.19856887,11.6411805 6.19856887,12.0042657 C6.19856887,12.3673509 5.90423014,12.6616897 5.5411449,12.6616897 L3.07607992,12.6620565 C2.75502941,13.2787614 2.51172003,13.7787981 2.34642626,14.1615837 C2.05363193,14.8396337 2.07988807,15.3352183 2.38521708,15.7533862 C2.70478754,16.1910588 3.35154475,16.5909145 4.33557128,16.92176 L4.58861018,17.0030156 L4.61593023,17.0113319 L5.07951978,17.003063 C5.22657286,14.2383882 7.5215128,12.0355716 10.3309481,12.0355716 C13.1865462,12.0355716 15.5106024,14.3113734 15.5883315,17.148192 L15.5903399,17.2949634 C15.5903399,17.1391108 15.5835608,16.9848415 15.5702815,16.8324343 L20.501725,16.7522179 L20.4966445,16.8043188 C20.744082,14.1296836 22.9942143,12.0355716 25.7334526,12.0355716 C28.3252146,12.0355716 30.4791183,13.9102661 30.913117,16.3776086 L30.9105635,16.3632094 L30.9105635,16.3632094 C31.0342297,16.278415 31.1430014,16.170754 31.2307492,16.0447105 L31.3112619,15.9127056 L33.2539033,12.2481775 C33.32753,12.1092908 33.3748079,11.9584663 33.3938452,11.803312 L33.4033989,11.6469963 L33.4033989,9.02791568 C33.4033989,8.70427083 33.2812322,8.39439181 33.0642987,8.15870549 L32.965605,8.06241565 L26.1648773,2.10518905 C25.973908,1.93790588 25.7385427,1.83177274 25.4891088,1.79844938 L25.3380028,1.78728582 L10.2521605,1.56529586 Z M23.7299016,3.45222614 C23.8751603,2.84698134 24.4835637,2.47408897 25.0888085,2.61934772 C25.2682956,2.66242463 25.434455,2.74892752 25.5726844,2.87125445 L25.5726844,2.87125445 L31.4370916,8.06099534 C31.9032122,8.47349141 31.9466834,9.18575092 31.5341874,9.65187148 C31.320274,9.8935936 31.0129839,10.0319938 30.6902014,10.0319938 L30.6902014,10.0319938 L23.5802564,10.0319938 C22.9578246,10.0319938 22.4532439,9.5274131 22.4532439,8.90498127 C22.4532439,8.81639147 22.4636893,8.72811063 22.4843637,8.64196703 L22.4843637,8.64196703 Z M25.045161,4.41095623 L24.056771,8.52931043 L29.6989088,8.52931043 L25.045161,4.41095623 Z" id="Combined-Shape" fill-rule="nonzero"></path>
                </g>
            </g>
        </g>
    </g>
</svg>