<?xml version="1.0" encoding="UTF-8"?>
<svg width="32px" height="32px" viewBox="0 0 32 32" version="1.1" xmlns="http://www.w3.org/2000/svg" xmlns:xlink="http://www.w3.org/1999/xlink">
    <!-- Generator: Sketch 62 (91390) - https://sketch.com -->
    <title>iconos_content/Icon/sale Copy 2</title>
    <desc>Created with Sketch.</desc>
    <g id="Icon/sale-Copy-2" stroke="none" stroke-width="1" fill="none" fill-rule="evenodd">
        <g id="004-coupon" fill="#FFFFFF" fill-rule="nonzero">
            <path d="M31.3956451,4.86337101 L31.8169545,4.44206427 C32.0610152,4.19800511 32.0610152,3.80226052 31.8169545,3.55813885 C31.5728938,3.31414219 31.1771467,3.31414219 30.9330234,3.55813885 L30.511714,3.97944559 L30.0906546,3.55838885 C29.973468,3.44120295 29.8144691,3.37532885 29.6487203,3.37532885 L28.9612879,3.37532885 L25.7689988,0.183059997 C25.6517496,0.0658740994 25.4928133,0 25.3270645,0 L2.25085851,0 C1.0097426,0 0,1.0096737 0,2.25084423 L0,13.9632466 C0,15.2043546 1.0097426,16.2140908 2.25085851,16.2140908 L7.69581863,16.2140908 L4.03428295,19.8756658 C3.60916107,20.300785 3.37503778,20.8660272 3.37503778,21.467269 C3.37503778,22.0684483 3.60916107,22.6336906 4.03428295,23.0588722 L12.3162223,31.340759 C12.7413442,31.7658782 13.30659,32 13.9078356,32 C14.5090812,32 15.0743271,31.7658782 15.499449,31.340759 L21.702341,25.1379688 C21.9464643,24.8939097 21.9464643,24.4981651 21.702341,24.2540434 C21.4582803,24.0101092 21.0625332,24.0100467 20.8184725,24.2540434 L14.615518,30.4568336 C14.4265193,30.6458935 14.1751462,30.7499546 13.9078356,30.7499546 C13.6405251,30.7499546 13.3891519,30.6458935 13.2001533,30.4568336 L4.91815148,22.1749468 C4.72915286,21.9859494 4.62502863,21.7345778 4.62502863,21.467269 C4.62502863,21.1998977 4.72915286,20.9485886 4.91815148,20.7595912 L21.0524083,4.62543676 L29.3899097,4.62543676 L29.627908,4.86343351 L28.1826686,6.30866375 C27.9378579,6.19129035 27.6639224,6.12547875 27.3747995,6.12547875 C26.3409321,6.12547875 25.4998132,6.96659225 25.4998132,8.00045312 C25.4998132,9.03431398 26.3409321,9.87542748 27.3747995,9.87542748 C28.4086669,9.87542748 29.2497858,9.03431398 29.2497858,8.00045312 C29.2497858,7.71133207 29.1839113,7.43733582 29.0665371,7.19258916 L30.5117765,5.74735892 L30.7497748,5.98535567 L30.7497748,14.3227417 L24.7958184,20.2767228 C24.5517577,20.5207819 24.5517577,20.9165265 24.7958184,21.1606482 C25.0398791,21.4046449 25.4356262,21.4046449 25.6797494,21.1606482 L31.816767,15.0236696 C31.9339536,14.9064212 32,14.7474859 32,14.5817381 L32,5.72635921 C32,5.56061148 31.9339536,5.40167615 31.816767,5.28442775 L31.3956451,4.86337101 Z M11.2236053,11.2145342 C10.8788578,11.2145342 10.5984224,10.9341005 10.5984224,10.5893552 C10.5984224,10.2445474 10.8788578,9.96411377 11.2236053,9.96411377 C11.5683528,9.96411377 11.8487882,10.2445474 11.8487882,10.5893552 C11.8487882,10.934038 11.5683528,11.2145342 11.2236053,11.2145342 Z M20.7935352,3.37539135 C20.6277864,3.37539135 20.4687876,3.44126545 20.3516009,3.55845135 L13.0832792,10.8266645 C13.0931541,10.748853 13.0988416,10.6697291 13.0988416,10.5892927 C13.0988416,9.55530686 12.2576602,8.71406836 11.2236678,8.71406836 C10.1897379,8.71406836 9.34849403,9.55530686 9.34849403,10.5892927 C9.34849403,11.6232786 10.1896754,12.4644546 11.2236678,12.4644546 C11.3041047,12.4644546 11.3832291,12.4587672 11.4610411,12.4488923 L8.94587198,14.9640454 L2.25085851,14.9640454 C1.69898756,14.9640454 1.24999084,14.5150516 1.24999084,13.9631841 L1.24999084,2.25084423 C1.24999084,1.69897677 1.69898756,1.24998291 2.25085851,1.24998291 L25.0681289,1.24998291 L27.1935508,3.37539135 L20.7935352,3.37539135 Z M27.3747995,8.62531958 C27.030177,8.62531958 26.7498041,8.34494841 26.7498041,8.00032812 C26.7498041,7.65570783 27.030177,7.37533667 27.3747995,7.37533667 C27.5174235,7.37533667 27.6486725,7.4238985 27.7539842,7.5046474 C27.7705466,7.5262721 27.7881715,7.54739681 27.8079213,7.56714654 C27.8276712,7.58689627 27.848796,7.60452103 27.8704209,7.62108331 C27.9511703,7.72639437 27.9997324,7.85764257 27.9997324,8.00026562 C27.9997949,8.34494841 27.719422,8.62531958 27.3747995,8.62531958 Z" id="XMLID_1468_"></path>
            <path d="M20.6725351,18.5806452 C20.8381201,18.5806452 20.9969618,18.5095972 21.1140327,18.3832073 L22.5268127,16.8579007 C22.7706323,16.5946728 22.7706323,16.1678457 22.5268127,15.9045504 C22.2829931,15.6413898 21.887637,15.6413898 21.6438174,15.9045504 L20.6725351,16.9532155 L17.581989,13.6167253 C17.3382319,13.3535647 16.9428133,13.3535647 16.6989937,13.6167253 C16.4551741,13.8799532 16.4551741,14.3067802 16.6989937,14.5700756 L20.2310374,18.3832073 C20.3481707,18.5095972 20.5070125,18.5806452 20.6725351,18.5806452 L20.6725351,18.5806452 Z" id="XMLID_1527_"></path>
            <path d="M25.6182308,13.1142507 C25.367259,12.8633354 24.9603055,12.8633354 24.7092695,13.1142507 L23.8912492,13.9322964 L22.9823522,13.0234353 L23.8003724,12.2053896 C24.0513442,11.95441 24.0513442,11.5474439 23.8003724,11.2964 C23.5494006,11.0454847 23.1424471,11.0454847 22.891411,11.2964 L22.0733908,12.1144457 L21.1644937,11.2055203 L21.982514,10.3874746 C22.2334858,10.136495 22.23355,9.72952886 21.982514,9.47848498 C21.7315422,9.22763392 21.3245887,9.22756965 21.0736169,9.47848498 L19.8011481,10.7509934 C19.6806431,10.8715021 19.6129032,11.0350084 19.6129032,11.205456 C19.6129032,11.3759036 19.6806431,11.5393457 19.8011481,11.6599187 L23.4368007,15.2956202 C23.5622545,15.4210779 23.726784,15.483871 23.8912492,15.483871 C24.0557145,15.483871 24.220244,15.4210779 24.3456978,15.2956202 L25.6181665,14.0231118 C25.8692026,13.7721965 25.8692026,13.3652303 25.6182308,13.1142507 L25.6182308,13.1142507 Z" id="XMLID_1528_"></path>
            <path d="M18.6644108,19.2078974 C18.9852551,19.3714842 19.3781083,19.2437717 19.5416938,18.9227945 C19.7052142,18.6018173 19.5775679,18.2090915 19.2565279,18.0455699 L14.367681,15.5549799 C14.1159106,15.4266804 13.8101987,15.4751433 13.6104129,15.6749306 C13.4106272,15.8747178 13.3621647,16.1804974 13.4904632,16.4322045 L15.9810338,21.3210896 C16.096222,21.5472934 16.3251635,21.6774845 16.5627148,21.6774193 C16.6623141,21.6774193 16.7634789,21.654525 16.8582515,21.6061925 C17.1792262,21.4426709 17.3068725,21.0499451 17.1434174,20.7289679 L16.943436,20.3363073 L18.2718838,19.0078492 L18.6644108,19.2078974 Z M16.3207282,19.1141676 L15.5638515,17.6283843 L17.0496884,18.3853322 L16.3207282,19.1141676 Z" id="XMLID_1531_"></path>
            <path d="M12.8833105,24.7980338 C12.6092736,25.0286964 12.6092035,25.4027183 12.8833105,25.6334399 C13.020364,25.7487417 13.1999441,25.8064516 13.3795242,25.8064516 C13.5591043,25.8064516 13.7387545,25.7487417 13.8757379,25.6334399 L14.8682355,24.7980929 C15.6890828,24.1071684 15.6890828,22.9829764 14.8682355,22.2919928 C14.0880199,21.635269 12.8431699,21.6032539 12.0168488,22.1948842 C11.9911644,22.2112462 11.9661818,22.2286123 11.9428132,22.2483412 L11.8908831,22.2919928 C11.7583208,22.4035733 11.5821092,22.4650045 11.3946694,22.4650045 C11.2072296,22.4650045 11.0310179,22.4035733 10.8984557,22.2919928 C10.6248399,22.0616847 10.6248399,21.686954 10.8984557,21.4565868 L11.8908831,20.6212398 C12.1649199,20.3905772 12.1649901,20.0165553 11.8908831,19.7858337 C11.6168462,19.5552893 11.1724925,19.5552302 10.8984557,19.7858337 L9.9059581,20.6211807 C9.08511074,21.3121052 9.08511074,22.4363563 9.9059581,23.1273398 C10.3036449,23.4620221 10.8322798,23.6463159 11.3945992,23.6463159 C11.9561466,23.6463159 12.48415,23.4624946 12.8817666,23.1285212 C12.8822578,23.1281077 12.8828192,23.1277533 12.8833105,23.1273398 C13.1568561,22.8969726 13.6021221,22.8969726 13.8757379,23.1273398 C14.0083001,23.2389203 14.081283,23.3871823 14.081283,23.5449543 C14.081283,23.7027854 14.0083001,23.8511064 13.8757379,23.9626278 L12.8833105,24.7980338 Z" id="XMLID_1532_"></path>
            <path d="M11.0442143,4.20858011 C10.7504907,4.04164399 10.3779156,4.14596368 10.2120891,4.4418232 L6.27256549,11.4695017 C6.10673902,11.7653612 6.2103882,12.1405062 6.50417283,12.3075038 C6.59908787,12.3614474 6.70212626,12.3870968 6.80388202,12.3870968 C7.01704384,12.3870968 7.2240368,12.2745348 7.33629795,12.0742607 L11.2758216,5.0465822 C11.4416481,4.75072269 11.3379989,4.37551623 11.0442143,4.20858011 Z" id="XMLID_1533_"></path>
            <path d="M8.25806452,6.19351398 C8.25806452,5.05513497 7.33196181,4.12903226 6.19358279,4.12903226 C5.05520377,4.12903226 4.12903226,5.05513497 4.12903226,6.19351398 C4.12903226,7.331893 5.05513497,8.25806452 6.19351398,8.25806452 C7.331893,8.25806452 8.25806452,7.331893 8.25806452,6.19351398 Z M5.50521579,6.19351398 C5.50521579,5.81396256 5.81396256,5.50521579 6.19351398,5.50521579 C6.5730654,5.50521579 6.88181218,5.81396256 6.88181218,6.19351398 C6.88181218,6.57313421 6.5730654,6.88188098 6.19351398,6.88188098 C5.81396256,6.88188098 5.50521579,6.57313421 5.50521579,6.19351398 Z" id="XMLID_1536_"></path>
            <path d="M23.2258065,21.6774194 C23.0895484,21.6774194 22.9569032,21.7326452 22.8609032,21.8286968 C22.7649032,21.9246452 22.7096774,22.0578065 22.7096774,22.1935484 C22.7096774,22.3293419 22.7649032,22.4625032 22.8609032,22.5584516 C22.9569032,22.6544516 23.0895484,22.7096774 23.2258065,22.7096774 C23.3615484,22.7096774 23.4947097,22.6545032 23.5907097,22.5584516 C23.6867097,22.4625032 23.7419355,22.3293419 23.7419355,22.1935484 C23.7419355,22.0578065 23.6867097,21.9246452 23.5907097,21.8286968 C23.4947097,21.7326968 23.3615484,21.6774194 23.2258065,21.6774194 Z" id="XMLID_1537_"></path>
        </g>
    </g>
</svg>