<?xml version="1.0" encoding="UTF-8"?>
<svg width="155px" height="49px" viewBox="0 0 155 49" version="1.1" xmlns="http://www.w3.org/2000/svg" xmlns:xlink="http://www.w3.org/1999/xlink">
    <!-- Generator: Sketch 62 (91390) - https://sketch.com -->
    <title>iconos_footer/appstore</title>
    <desc>Created with Sketch.</desc>
    <g id="Symbols" stroke="none" stroke-width="1" fill="none" fill-rule="evenodd">
        <g id="FOOTER" transform="translate(-955.000000, -302.000000)">
            <g id="Group-10-Copy">
                <g id="Group-9" transform="translate(158.000000, 173.000000)">
                    <g id="Group-8" transform="translate(0.000000, 25.000000)">
                        <g id="Group-5" transform="translate(799.000000, 0.000000)">
                            <g id="appstore" transform="translate(0.000000, 106.000000)">
                                <g id="APPSTORE-LARGE">
                                    <path d="M5.29237491,45 C2.37322468,44.9993847 0.00555434446,42.6226724 0,39.687414 L0,5.3182125 C0.0043184121,2.38152751 2.37180906,0.00247867285 5.29237491,0 L145.70762,0 C148.627677,0.00371530465 150.994447,2.38204106 151,5.3182125 L151,39.687414 C151.002233,42.6177199 148.624078,45 145.708739,45 L5.29237491,45 Z" id="Path" stroke="#E9364B" stroke-width="3"></path>
                                    <path d="M33.2102699,22.4221426 C33.1781348,18.7584317 36.1345675,16.9760244 36.2697567,16.8930424 C34.5954052,14.3888057 32.0002158,14.0466471 31.0882427,14.0193654 C28.9085939,13.7840603 26.7943234,15.3573076 25.683999,15.3573076 C24.5515124,15.3573076 22.8417014,14.0421002 20.9989174,14.0807494 C18.6275659,14.1182617 16.4091332,15.5266818 15.1924304,17.7137683 C12.6814572,22.1731967 14.5541601,28.726499 16.959863,32.3310995 C18.1632685,34.0975924 19.5694579,36.0675617 21.4100256,35.9982205 C23.2107014,35.9231958 23.8833231,34.8216953 26.0563233,34.8216953 C28.2093776,34.8216953 28.8409992,35.9982205 30.7181346,35.9538877 C32.6506753,35.9231958 33.8673781,34.1805743 35.0286755,32.3993037 C36.4193513,30.3770445 36.9778379,28.3832037 37,28.2808972 C36.9556757,28.2649828 33.2479456,26.8122299 33.2102699,22.4221426 Z M29.6643237,11.6481272 C30.6328102,10.4056711 31.295459,8.71533966 31.1115129,7 C29.7097561,7.0636574 27.9567289,7.99464692 26.9472423,9.20982124 C26.0541071,10.2806297 25.2562692,12.0357553 25.4623773,13.6863008 C27.0369991,13.8067952 28.6537289,12.8712587 29.6643237,11.6481272 L29.6643237,11.6481272 Z" id="Shape" fill="#E9364B" fill-rule="nonzero"></path>
                                    <g id="Group" transform="translate(48.000000, 20.000000)" fill="#E9364B" fill-rule="nonzero">
                                        <path d="M12.6087059,15.0135245 L10.0718407,15.0135245 L8.68220599,10.6848629 L3.85199669,10.6848629 L2.52826912,15.0135245 L0.0584280565,15.0135245 L4.84507164,0.276807065 L7.80083801,0.276807065 L12.6087059,15.0135245 L12.6087059,15.0135245 Z M8.26330487,8.86879617 L7.00660148,5.02072783 C6.87367018,4.62761582 6.62344657,3.7018647 6.25704772,2.24458185 L6.21236494,2.24458185 C6.06491173,2.87134637 5.82921004,3.79709747 5.50637689,5.02072783 L4.27089783,8.86879617 L8.26330487,8.86879617 Z M24.8942383,9.56975365 C24.8942383,11.3769616 24.3993764,12.805453 23.4085356,13.8541209 C22.5215823,14.7876235 21.4190345,15.2538211 20.1042435,15.2538211 C18.6844479,15.2538211 17.6634462,14.7521881 17.0434726,13.7467072 L17.0434726,19.3222537 L14.66188,19.3222537 L14.66188,7.87992563 C14.66188,6.7448839 14.6317191,5.58105087 14.5736315,4.38731917 L16.6681371,4.38731917 L16.8010684,6.07161037 L16.8457512,6.07161037 C17.6399877,4.80257835 18.8453059,4.16806233 20.4628228,4.16806233 C21.7273458,4.16806233 22.7829766,4.66305126 23.6274813,5.65413648 C24.4708689,6.64743642 24.8942383,7.9519039 24.8942383,9.56975365 Z M22.4679629,9.65612757 C22.4679629,8.62185536 22.2333783,7.76918986 21.7619749,7.09702368 C21.2470058,6.39828091 20.5555397,6.04835585 19.6886936,6.04835585 C19.1011149,6.04835585 18.5671556,6.24325083 18.0901669,6.62750397 C17.612061,7.0150792 17.2992815,7.52114171 17.1529454,8.14790622 C17.087618,8.38230245 17.0504966,8.62353771 17.0423555,8.86658139 L17.0423555,10.6394612 C17.0423555,11.4112897 17.2814084,12.0635234 17.7595143,12.5972698 C18.23762,13.1288016 18.8587108,13.3956748 19.6227865,13.3956748 C20.5197934,13.3956748 21.217962,13.0512865 21.7172921,12.3680468 C22.2177394,11.6825923 22.4679629,10.7789883 22.4679629,9.65612757 L22.4679629,9.65612757 Z M37.2233364,9.56975365 C37.2233364,11.3769616 36.7284745,12.805453 35.7376337,13.8541209 C34.8495633,14.7876235 33.7481326,15.2538211 32.4322245,15.2538211 C31.012429,15.2538211 29.9914272,14.7521881 29.3714536,13.7467072 L29.3714536,19.3222537 L26.989861,19.3222537 L26.989861,7.87992563 C26.989861,6.7448839 26.9597001,5.58105087 26.9016125,4.38731917 L28.9961181,4.38731917 L29.1290494,6.07161037 L29.1737322,6.07161037 C29.9668517,4.80257835 31.1721699,4.16806233 32.7908038,4.16806233 C34.0542097,4.16806233 35.1098405,4.66305126 35.9565793,5.65413648 C36.7988499,6.64743642 37.2233364,7.9519039 37.2233364,9.56975365 L37.2233364,9.56975365 Z M34.7959439,9.65612757 C34.7959439,8.62185536 34.5602422,7.76918986 34.0888388,7.09702368 C33.5738697,6.39828091 32.8846377,6.04835585 32.0177916,6.04835585 C31.430213,6.04835585 30.8962537,6.24325083 30.4170308,6.62750397 C29.9389249,7.0150792 29.6272625,7.52114171 29.4809264,8.14790622 C29.4083169,8.44024868 29.3692195,8.6783306 29.3692195,8.86658139 L29.3692195,10.6394612 C29.3692195,11.4112897 29.6093894,12.0635234 30.0852611,12.5972698 C30.5633669,13.1276942 31.1844576,13.3956748 31.9507675,13.3956748 C32.8488915,13.3956748 33.5470601,13.0512865 34.0452731,12.3680468 C34.5457204,11.6825923 34.7959439,10.7789883 34.7959439,9.65612757 L34.7959439,9.65612757 Z M51.0079762,10.8797579 C51.0079762,12.1343943 50.5656167,13.1542708 49.6864828,13.9416022 C48.7191004,14.8009118 47.3685632,15.231674 45.6371052,15.231674 C44.0374614,15.231674 42.7550654,14.9260432 41.7876831,14.3136743 L42.3383984,12.3458996 C43.3828586,12.9593758 44.5300892,13.2650065 45.778973,13.2650065 C46.6770971,13.2650065 47.3752656,13.0634675 47.8734787,12.6637113 C48.3728089,12.2628477 48.6252666,11.7268866 48.6252666,11.0580425 C48.6252666,10.4589619 48.4163746,9.95732887 48.00641,9.54871383 C47.5942113,9.14120617 46.9127988,8.76138243 45.9554701,8.41256473 C43.3526977,7.45027082 42.0501944,6.04281907 42.0501944,4.19131684 C42.0501944,2.98208214 42.5104271,1.99210428 43.4286584,1.21806118 C44.3468897,0.44512545 45.5644957,0.0586575814 47.0792421,0.0586575814 C48.4320135,0.0586575814 49.5591369,0.292310075 50.4539096,0.758507703 L49.8562774,2.68309554 C49.0140069,2.23129356 48.0633806,2.00539257 46.9999302,2.00539257 C46.1598938,2.00539257 45.5008227,2.21025377 45.0294193,2.61776143 C44.6328596,2.98208214 44.431787,3.42613262 44.431787,3.95323492 C44.431787,4.53459776 44.6607863,5.01740576 45.1165507,5.39612212 C45.5119934,5.74493982 46.2336204,6.12476354 47.2769635,6.53227121 C48.5571253,7.0438705 49.497698,7.63962899 50.0997986,8.3239761 C50.7063674,9.00832322 51.0079762,9.86209609 51.0079762,10.8797579 Z M58.9023077,6.15909163 L56.2771939,6.15909163 L56.2771939,11.3182716 C56.2771939,12.6304905 56.7396608,13.284939 57.6668286,13.284939 C58.0924322,13.284939 58.4454262,13.2495036 58.7246936,13.1753106 L58.7906007,14.9681229 C58.3214314,15.141978 57.7036919,15.2294593 56.9384992,15.2294593 C55.9979265,15.2294593 55.2628946,14.9448683 54.7322866,14.3756864 C54.2039126,13.8065045 53.93805,12.8530695 53.93805,11.5109518 L53.93805,6.1546622 L52.3741525,6.1546622 L52.3741525,4.38288974 L53.93805,4.38288974 L53.93805,2.43726211 L56.2771939,1.73741199 L56.2771939,4.38288974 L58.9023077,4.38288974 L58.9023077,6.15909163 L58.9023077,6.15909163 Z M70.723139,9.61294061 C70.723139,11.2462933 70.2517356,12.5873036 69.311163,13.6359714 C68.3270246,14.7156452 67.0178189,15.2538211 65.3857801,15.2538211 C63.8107119,15.2538211 62.5584768,14.736685 61.6246065,13.7035203 C60.6907362,12.6681407 60.2238011,11.3636732 60.2238011,9.79011783 C60.2238011,8.14347679 60.7063752,6.794715 61.6681722,5.74604718 C62.6322034,4.696272 63.9302383,4.17138441 65.5622771,4.17138441 C67.1351112,4.17138441 68.398517,4.68962785 69.3547286,5.72390003 C70.2684917,6.72716618 70.723139,8.02277479 70.723139,9.61294061 Z M68.254415,9.66720113 C68.254415,8.69383361 68.0421718,7.85888583 67.6165683,7.16014307 C67.1172381,6.31633644 66.4023135,5.89443312 65.4762627,5.89443312 C64.5222852,5.89443312 63.7906046,6.31633644 63.2923916,7.16014307 C62.8656709,7.85888583 62.6534276,8.70822922 62.6534276,9.71149539 C62.6534276,10.6859703 62.8656709,11.5231328 63.2923916,12.2196608 C63.8073606,13.0634675 64.5256364,13.4853708 65.4561555,13.4853708 C66.3665673,13.4853708 67.0803748,13.0546086 67.596461,12.198621 C68.0343523,11.4832679 68.254415,10.6427833 68.254415,9.66720113 Z M78.4677831,6.46361503 C78.2200802,6.41928423 77.9688182,6.39741582 77.7171124,6.39828091 C76.87931,6.39828091 76.2314096,6.71055581 75.7756452,7.33953503 C75.3802025,7.89321393 75.1813641,8.59306405 75.1813641,9.437978 L75.1813641,15.0135245 L72.7997716,15.0135245 L72.7997716,7.73375441 C72.8018955,6.61827227 72.7788036,5.50288301 72.7305132,4.38842653 L74.8049117,4.38842653 L74.8920431,6.42153543 L74.9579502,6.42153543 C75.2104079,5.72279266 75.6058506,5.15914755 76.1487465,4.73724423 C76.6456787,4.36858015 77.249467,4.16893773 77.8701508,4.16806233 C78.0902136,4.16806233 78.289052,4.18356534 78.465549,4.21124929 L78.4677831,6.46361503 L78.4677831,6.46361503 Z M89.1190429,9.19768139 C89.1250818,9.55657565 89.0959006,9.91520165 89.0319115,10.2684963 L81.8871334,10.2684963 C81.9139431,11.3182716 82.2602347,12.1222133 82.9237741,12.6758922 C83.5258746,13.1697738 84.3044722,13.4178219 85.2606839,13.4178219 C86.3185489,13.4178219 87.283697,13.2517183 88.1516602,12.9161889 L88.5247615,14.553971 C87.5104622,14.9924847 86.3129635,15.2106342 84.9311483,15.2106342 C83.2689486,15.2106342 81.9642112,14.7256115 81.014702,13.7577808 C80.0674269,12.7888427 79.5926723,11.4865899 79.5926723,9.85545191 C79.5926723,8.25421257 80.0339149,6.91984643 80.9175169,5.8556756 C81.8424506,4.71952651 83.0924516,4.15145197 84.6652857,4.15145197 C86.2101931,4.15145197 87.3797651,4.71952651 88.1740016,5.8556756 C88.8029118,6.75595748 89.1190429,7.87217413 89.1190429,9.19768139 L89.1190429,9.19768139 Z M86.8480399,8.58531255 C86.8647959,7.88435507 86.7084062,7.28084507 86.385573,6.77035313 C85.9733743,6.11258261 85.3388787,5.7848047 84.4887888,5.7848047 C83.7101912,5.7848047 83.0756956,6.1048311 82.5931215,6.74709862 C82.1965617,7.25759056 81.96086,7.87106677 81.8882505,8.58309783 L86.8480399,8.58531255 Z" id="Shape"></path>
                                    </g>
                                    <g id="Group" transform="translate(49.000000, 7.000000)" fill="#E9364B" fill-rule="nonzero">
                                        <path d="M1.73950669,7.86862485 C1.07976082,7.86862485 0.509019456,7.83579785 0.0339579296,7.78033153 L0.0339579296,0.497263968 C0.698386094,0.392834613 1.36981566,0.341362326 2.04212199,0.343212243 C4.76232207,0.343212243 6.01506043,1.70507141 6.01506043,3.92485622 C6.01506043,6.48536273 4.53536059,7.86862485 1.73950669,7.86862485 Z M2.13780183,1.27718836 C1.77065826,1.27718836 1.45802995,1.29982768 1.19880435,1.35416204 L1.19880435,6.89060646 C1.33898644,6.91324578 1.60822505,6.92343347 1.98649418,6.92343347 C3.76880932,6.92343347 4.78346064,5.89108071 4.78346064,3.95768323 C4.78346064,2.23369941 3.86560172,1.27718836 2.13780183,1.27718836 L2.13780183,1.27718836 Z M9.91902036,7.92409118 C8.38591784,7.92409118 7.39240509,6.75929844 7.39240509,5.17794229 C7.39240509,3.52980018 8.4070564,2.35481974 10.0057998,2.35481974 C11.5166512,2.35481974 12.532415,3.46414617 12.532415,5.09078093 C12.532415,6.75929844 11.4854996,7.92409118 9.91902036,7.92409118 Z M9.96352262,3.2219055 C9.12131754,3.2219055 8.58172774,4.02333724 8.58172774,5.14398332 C8.58172774,6.24312205 9.13244308,7.0445538 9.95239708,7.0445538 C10.7723511,7.0445538 11.3230663,6.18765573 11.3230663,5.12134401 C11.3230663,4.0346569 10.7834766,3.2219055 9.96352262,3.2219055 Z M21.2748822,2.46462042 L19.6338617,7.80297084 L18.5646951,7.80297084 L17.8849232,5.48470501 C17.7159024,4.91764162 17.5751698,4.34224579 17.4632645,3.76072119 L17.4410133,3.76072119 C17.3553465,4.34255158 17.1929133,4.92551394 17.0204671,5.48470501 L16.2973055,7.80297084 L15.2170133,7.80297084 L13.6727852,2.46462042 L14.8710083,2.46462042 L15.4651134,5.00248761 C15.6052955,5.60695732 15.7232264,6.17746804 15.8211314,6.71628373 L15.8433825,6.71628373 C15.9290493,6.26689333 16.0692314,5.70543833 16.2750543,5.01380726 L17.0204671,2.46575239 L17.9705901,2.46575239 L18.6837387,4.95947291 C18.8561849,5.56394261 18.996367,6.15709266 19.1053975,6.7174157 L19.1365491,6.7174157 C19.2122029,6.16841232 19.3312464,5.58544996 19.4925671,4.95947291 L20.1300618,2.46575239 L21.2748822,2.46462042 L21.2748822,2.46462042 Z M27.3160627,7.80297084 L26.1501037,7.80297084 L26.1501037,4.73760763 C26.1501037,3.7935482 25.7940858,3.32038652 25.0920627,3.32038652 C24.4011653,3.32038652 23.9261038,3.92485622 23.9261038,4.62780695 L23.9261038,7.80297084 L22.7601449,7.80297084 L22.7601449,3.99051024 C22.7601449,3.51848052 22.7490192,3.01249184 22.7167552,2.46348845 L23.742532,2.46348845 L23.7970473,3.28755951 L23.8293114,3.28755951 C24.1430522,2.71704878 24.7794345,2.35481974 25.492583,2.35481974 C26.5940138,2.35481974 27.3171753,3.21171781 27.3171753,4.6062996 L27.3160627,7.80297084 L27.3160627,7.80297084 Z M30.5313504,7.80297084 L29.3642788,7.80297084 L29.3642788,0.0150465636 L30.5313504,0.0150465636 L30.5313504,7.80297084 Z M34.7824278,7.92409118 C33.2504379,7.92409118 32.2558126,6.75929844 32.2558126,5.17794229 C32.2558126,3.52980018 33.2704639,2.35481974 34.8680947,2.35481974 C36.3800587,2.35481974 37.3947117,3.46414617 37.3947117,5.09078093 C37.3958225,6.75929844 36.3477945,7.92409118 34.7824278,7.92409118 Z M34.8258176,3.2219055 C33.9836125,3.2219055 33.4440227,4.02333724 33.4440227,5.14398332 C33.4440227,6.24312205 33.9958506,7.0445538 34.8135795,7.0445538 C35.634646,7.0445538 36.1842522,6.18765573 36.1842522,5.12134401 C36.1853613,4.0346569 35.6468841,3.2219055 34.8258176,3.2219055 L34.8258176,3.2219055 Z M41.9917925,7.80297084 L41.9072382,7.18831345 L41.8760866,7.18831345 C41.5200686,7.68298248 41.0005049,7.92409118 40.3418715,7.92409118 C39.4017615,7.92409118 38.7342277,7.25396746 38.7342277,6.35292273 C38.7342277,5.03531461 39.8567971,4.35387124 41.8004329,4.35387124 L41.8004329,4.25539022 C41.8004329,3.55243949 41.4344018,3.20039815 40.7112402,3.20039815 C40.1939016,3.20039815 39.7399786,3.33283814 39.3405709,3.59658616 L39.1035964,2.81666177 C39.588671,2.50876708 40.1939016,2.35481974 40.904825,2.35481974 C42.2754943,2.35481974 42.9675044,3.09059748 42.9675044,4.5632849 L42.9675044,6.52950939 C42.9675044,7.06832508 42.990868,7.48602044 43.0431582,7.80410281 L41.9917925,7.80297084 L41.9917925,7.80297084 Z M41.8315844,5.14398332 C40.5365689,5.14398332 39.886836,5.46319766 39.886836,6.22048274 C39.886836,6.78080579 40.2217155,7.05474149 40.686764,7.05474149 C41.2797565,7.05474149 41.8315844,6.59403143 41.8315844,5.96805438 L41.8315844,5.14398332 L41.8315844,5.14398332 Z M48.6293032,7.80297084 L48.5747879,6.94607278 L48.5425238,6.94607278 C48.2076443,7.59355718 47.6446909,7.92409118 46.8581136,7.92409118 C45.5931371,7.92409118 44.6563647,6.79212544 44.6563647,5.19944964 C44.6563647,3.52980018 45.6276264,2.35368778 46.9537935,2.35368778 C47.6558164,2.35368778 48.1531291,2.59479648 48.4334933,3.07927781 L48.456857,3.07927781 L48.456857,0.0150465636 L49.6239285,0.0150465636 L49.6239285,6.36424239 C49.6239285,6.88041876 49.6361666,7.36376813 49.6673182,7.80297084 L48.6293032,7.80297084 Z M48.456857,4.66176592 C48.456857,3.91466853 47.9706699,3.27737182 47.2285949,3.27737182 C46.3641386,3.27737182 45.8356744,4.05729621 45.8356744,5.15530298 C45.8356744,6.2318024 46.3841646,6.9687121 47.2052311,6.9687121 C47.9384057,6.9687121 48.456857,6.32009572 48.456857,5.55149099 L48.456857,4.66176592 Z M57.0235402,7.92409118 C55.4915503,7.92409118 54.4980375,6.75929844 54.4980375,5.17794229 C54.4980375,3.52980018 55.5126888,2.35481974 57.1103196,2.35481974 C58.6222836,2.35481974 59.6369366,3.46414617 59.6369366,5.09078093 C59.6380474,6.75929844 58.591132,7.92409118 57.0235402,7.92409118 Z M57.0669299,3.2219055 C56.2258374,3.2219055 55.6862476,4.02333724 55.6862476,5.14398332 C55.6862476,6.24312205 56.2369629,7.0445538 57.0558044,7.0445538 C57.8768709,7.0445538 58.4264873,6.18765573 58.4264873,5.12134401 C58.4286988,4.0346569 57.889109,3.2219055 57.0669299,3.2219055 Z M65.907302,7.80297084 L64.7402305,7.80297084 L64.7402305,4.73760763 C64.7402305,3.7935482 64.3842125,3.32038652 63.6821895,3.32038652 C62.991292,3.32038652 62.5173431,3.92485622 62.5173431,4.62780695 L62.5173431,7.80297084 L61.3502716,7.80297084 L61.3502716,3.99051024 C61.3502716,3.51848052 61.339146,3.01249184 61.3068819,2.46348845 L62.3326588,2.46348845 L62.387174,3.28755951 L62.4194381,3.28755951 C62.7320665,2.71704878 63.3695612,2.35368778 64.0815972,2.35368778 C65.1830279,2.35368778 65.907302,3.21058584 65.907302,4.60516764 L65.907302,7.80297084 Z M73.7519363,3.35434549 L72.4691589,3.35434549 L72.4691589,5.94654703 C72.4691589,6.60648306 72.6938953,6.93588508 73.1478183,6.93588508 C73.3536412,6.93588508 73.5260874,6.91324578 73.6651569,6.88041876 L73.6974211,7.78146349 C73.4715721,7.86975683 73.1689568,7.91390348 72.7929127,7.91390348 C71.8739413,7.91390348 71.3243385,7.39772711 71.3243385,6.04616002 L71.3243385,3.35434549 L70.5588998,3.35434549 L70.5588998,2.46462042 L71.3243385,2.46462042 L71.3243385,1.48660203 L72.4691589,1.13456068 L72.4691589,2.46348845 L73.7519363,2.46348845 L73.7519363,3.35434549 L73.7519363,3.35434549 Z M79.9243984,7.80297084 L78.759552,7.80297084 L78.759552,4.76024694 C78.759552,3.80486786 78.4046466,3.32151849 77.701511,3.32151849 C77.097393,3.32151849 76.5344395,3.73921384 76.5344395,4.58479225 L76.5344395,7.80297084 L75.3695931,7.80297084 L75.3695931,0.0150465636 L76.5344395,0.0150465636 L76.5344395,3.2219055 L76.5578032,3.2219055 C76.9249468,2.64007511 77.4567486,2.35368778 78.135408,2.35368778 C79.2457391,2.35368778 79.9243984,3.23209319 79.9243984,4.62780695 L79.9243984,7.80297084 L79.9243984,7.80297084 Z M86.2481683,5.419051 L82.7491789,5.419051 C82.7714299,6.4298964 83.4289507,7.00040714 84.4024375,7.00040714 C84.9197761,7.00040714 85.3959502,6.9121138 85.8164965,6.74797877 L85.9978431,7.57204983 C85.501643,7.79165119 84.917551,7.90145187 84.2377791,7.90145187 C82.5967586,7.90145187 81.625497,6.8464598 81.625497,5.21076931 C81.625497,3.57394684 82.6201223,2.34350009 84.1064975,2.34350009 C85.4471278,2.34350009 86.2882203,3.35434549 86.2882203,4.88136727 C86.2957598,5.06157512 86.2823156,5.24205768 86.2481683,5.419051 L86.2481683,5.419051 Z M85.1790017,4.5734726 C85.1790017,3.74940154 84.7706935,3.16757115 84.0252809,3.16757115 C83.355522,3.16757115 82.8259452,3.76072119 82.7502914,4.5734726 L85.1790017,4.5734726 L85.1790017,4.5734726 Z" id="Shape"></path>
                                    </g>
                                </g>
                            </g>
                        </g>
                    </g>
                </g>
            </g>
        </g>
    </g>
</svg>