<?xml version="1.0" encoding="UTF-8"?>
<svg width="20px" height="20px" viewBox="0 0 20 20" version="1.1" xmlns="http://www.w3.org/2000/svg" xmlns:xlink="http://www.w3.org/1999/xlink">
    <!-- Generator: Sketch 62 (91390) - https://sketch.com -->
    <title>iconos001-social-media</title>
    <desc>Created with Sketch.</desc>
    <g id="Page-1" stroke="none" stroke-width="1" fill="none" fill-rule="evenodd">
        <g id="PRODUCTOS-REJILLA" transform="translate(-1134.000000, -295.000000)" fill-rule="nonzero">
            <g id="001-social-media" transform="translate(1134.000000, 295.000000)">
                <path d="M4.33822785,11.46763 L3.65685042,13.954338 L1.1664316,14.0058423 C0.42216191,12.6563027 0,11.1122578 0,9.47144616 C0,7.88479249 0.394711063,6.38855167 1.09436357,5.07108082 L1.09489882,5.07108082 L3.31207084,5.46846372 L4.28332615,7.62297277 C4.0800446,8.20234001 3.96924718,8.82427864 3.96924718,9.47144616 C3.96932364,10.1738182 4.09946665,10.8467752 4.33822785,11.46763 Z" id="Path" fill="#FBBB00"></path>
                <path d="M18.8720741,7.72736125 C18.9824479,8.30160406 19.04,8.89464716 19.04,9.50074291 C19.04,10.1803711 18.9676564,10.8433127 18.8298393,11.4827817 C18.3619895,13.6588305 17.1395057,15.5589564 15.4460185,16.9036027 L15.4454929,16.9030836 L12.7032669,16.7648811 L12.3151566,14.3718319 C13.4388671,13.7209048 14.3170521,12.7022412 14.779646,11.4827817 L9.64050633,11.4827817 L9.64050633,7.72736125 L14.8546176,7.72736125 L18.8720741,7.72736125 L18.8720741,7.72736125 Z" id="Path" fill="#518EF8"></path>
                <path d="M15.4242941,16.9937899 L15.4248101,16.9943072 C13.8076447,18.2973001 11.7533347,19.0769231 9.51707479,19.0769231 C5.92337787,19.0769231 2.79893207,17.063442 1.20506329,14.1003646 L4.26315779,11.5910419 C5.06007375,13.7230239 7.11176649,15.2407004 9.51707479,15.2407004 C10.5509386,15.2407004 11.5195201,14.9605401 12.3506439,14.4714605 L15.4242941,16.9937899 Z" id="Path" fill="#28B446"></path>
                <path d="M15.4248101,2.20495276 L12.355886,4.74512298 C11.4923776,4.19942187 10.4716355,3.88418276 9.37806786,3.88418276 C6.9087705,3.88418276 4.8105949,5.49131856 4.05066308,7.72736125 L0.964568701,5.17297421 L0.964050633,5.17297421 C2.54067973,2.09971093 5.71680693,0 9.37806786,0 C11.6766248,0 13.7841626,0.827792601 15.4248101,2.20495276 Z" id="Path" fill="#F14336"></path>
            </g>
        </g>
    </g>
</svg>