<?xml version="1.0" encoding="UTF-8"?>
<svg width="41px" height="40px" viewBox="0 0 41 40" version="1.1" xmlns="http://www.w3.org/2000/svg" xmlns:xlink="http://www.w3.org/1999/xlink">
    <!-- Generator: Sketch 62 (91390) - https://sketch.com -->
    <title>iconos_footer/Icon/insta</title>
    <desc>Created with Sketch.</desc>
    <g id="Symbols" stroke="none" stroke-width="1" fill="none" fill-rule="evenodd" opacity="0.649135045">
        <g id="FOOTER" transform="translate(-1099.000000, -237.000000)">
            <g id="Group-10-Copy">
                <g id="Group-9" transform="translate(158.000000, 173.000000)">
                    <g id="Group-8" transform="translate(0.000000, 25.000000)">
                        <g id="Group-5" transform="translate(799.000000, 0.000000)">
                            <g id="Icon/insta" transform="translate(143.500000, 40.000000)">
                                <g id="Group-2">
                                    <path d="M19.031,38.061 L19.031,38.061 C8.52,38.061 -1.56319402e-13,29.54 -1.56319402e-13,19.03 C-1.56319402e-13,8.52 8.52,-1.56319402e-13 19.031,-1.56319402e-13 C29.541,-1.56319402e-13 38.061,8.52 38.061,19.03 C38.061,29.54 29.541,38.061 19.031,38.061 Z" id="Stroke-11" stroke="#222221" stroke-width="1.5"></path>
                                    <path d="M19.031,8.5957 C16.197,8.5957 15.842,8.6077 14.728,8.6587 C13.618,8.7097 12.859,8.8867 12.196,9.1437 C11.51,9.4107 10.927,9.7667 10.347,10.3467 C9.767,10.9277 9.411,11.5097 9.144,12.1957 C8.886,12.8597 8.71,13.6177 8.659,14.7287 C8.608,15.8417 8.596,16.1967 8.596,19.0307 C8.596,21.8647 8.608,22.2197 8.659,23.3327 C8.71,24.4437 8.886,25.2017 9.144,25.8657 C9.411,26.5517 9.767,27.1337 10.347,27.7137 C10.927,28.2937 11.51,28.6507 12.196,28.9167 C12.859,29.1747 13.618,29.3517 14.728,29.4027 C15.842,29.4527 16.197,29.4647 19.031,29.4647 C21.864,29.4647 22.219,29.4527 23.333,29.4027 C24.443,29.3517 25.202,29.1747 25.866,28.9167 C26.552,28.6507 27.134,28.2937 27.714,27.7137 C28.294,27.1337 28.65,26.5517 28.918,25.8657 C29.176,25.2017 29.351,24.4437 29.402,23.3327 C29.453,22.2197 29.465,21.8647 29.465,19.0307 C29.465,16.1967 29.453,15.8417 29.402,14.7287 C29.351,13.6177 29.176,12.8597 28.918,12.1957 C28.65,11.5097 28.294,10.9277 27.714,10.3467 C27.134,9.7667 26.552,9.4107 25.866,9.1437 C25.202,8.8867 24.443,8.7097 23.333,8.6587 C22.219,8.6077 21.864,8.5957 19.031,8.5957 M19.031,10.4757 C21.817,10.4757 22.146,10.4867 23.247,10.5367 C24.264,10.5827 24.817,10.7537 25.184,10.8967 C25.672,11.0857 26.019,11.3117 26.385,11.6767 C26.75,12.0417 26.975,12.3897 27.165,12.8767 C27.307,13.2437 27.477,13.7967 27.524,14.8137 C27.574,15.9147 27.585,16.2437 27.585,19.0307 C27.585,21.8167 27.574,22.1467 27.524,23.2467 C27.477,24.2637 27.307,24.8167 27.165,25.1847 C26.975,25.6717 26.75,26.0187 26.385,26.3847 C26.019,26.7487 25.672,26.9747 25.184,27.1647 C24.817,27.3077 24.264,27.4777 23.247,27.5237 C22.146,27.5747 21.817,27.5847 19.031,27.5847 C16.244,27.5847 15.915,27.5747 14.814,27.5237 C13.797,27.4777 13.245,27.3077 12.877,27.1647 C12.389,26.9747 12.042,26.7487 11.677,26.3847 C11.312,26.0187 11.086,25.6717 10.896,25.1847 C10.754,24.8167 10.584,24.2637 10.537,23.2467 C10.487,22.1467 10.476,21.8167 10.476,19.0307 C10.476,16.2437 10.487,15.9147 10.537,14.8137 C10.584,13.7967 10.754,13.2437 10.896,12.8767 C11.086,12.3897 11.312,12.0417 11.677,11.6767 C12.042,11.3117 12.389,11.0857 12.877,10.8967 C13.245,10.7537 13.797,10.5827 14.814,10.5367 C15.915,10.4867 16.245,10.4757 19.031,10.4757" id="Fill-13" fill="#222221"></path>
                                    <path d="M19.031,22.5088 C17.109,22.5088 15.552,20.9508 15.552,19.0308 C15.552,17.1098 17.109,15.5518 19.031,15.5518 C20.952,15.5518 22.509,17.1098 22.509,19.0308 C22.509,20.9508 20.952,22.5088 19.031,22.5088 M19.031,13.6728 C16.071,13.6728 13.673,16.0718 13.673,19.0308 C13.673,21.9898 16.071,24.3888 19.031,24.3888 C21.99,24.3888 24.388,21.9898 24.388,19.0308 C24.388,16.0718 21.99,13.6728 19.031,13.6728" id="Fill-15" fill="#222221"></path>
                                    <path d="M25.8523,13.4604 C25.8523,14.1514 25.2913,14.7124 24.6003,14.7124 C23.9093,14.7124 23.3483,14.1514 23.3483,13.4604 C23.3483,12.7694 23.9093,12.2084 24.6003,12.2084 C25.2913,12.2084 25.8523,12.7694 25.8523,13.4604" id="Fill-17" fill="#222221"></path>
                                </g>
                            </g>
                        </g>
                    </g>
                </g>
            </g>
        </g>
    </g>
</svg>