<?xml version="1.0" encoding="UTF-8"?>
<svg width="40px" height="40px" viewBox="0 0 40 40" version="1.1" xmlns="http://www.w3.org/2000/svg" xmlns:xlink="http://www.w3.org/1999/xlink">
    <!-- Generator: Sketch 62 (91390) - https://sketch.com -->
    <title>iconos_internapencil_big</title>
    <desc>Created with Sketch.</desc>
    <g id="Page-1" stroke="none" stroke-width="1" fill="none" fill-rule="evenodd">
        <g id="MI-CUENTA/RESEÑAS/NO-TIENE-RESEÑAS" transform="translate(-851.000000, -188.000000)" fill="#FF596A" fill-rule="nonzero">
            <g id="pencil_big" transform="translate(851.000000, 188.000000)">
                <path d="M38.8983865,11.0961446 L35.2966573,14.6978504 C34.9294528,15.0650526 34.3356754,15.0650526 33.9684709,14.6978504 L25.2961945,6.02563038 C24.92899,5.65842827 24.92899,5.06465465 25.2961945,4.69745253 L28.8979237,1.09574672 C30.3589288,-0.365248908 32.7340387,-0.365248908 34.2028567,1.09574672 L38.8983865,5.79124606 C40.3672045,7.25224169 40.3672045,9.62733619 38.8983865,11.0961446 Z M22.2023013,7.79132564 L1.68572683,28.307767 L0.0294001736,37.8003322 C-0.197172812,39.0816332 0.920066393,40.1910523 2.20137569,39.9722936 L11.6940025,38.3081649 L32.210577,17.7917236 C32.5777815,17.4245214 32.5777815,16.8307478 32.210577,16.4635457 L23.5383007,7.79132564 C23.1632833,7.42412353 22.5695058,7.42412353 22.2023013,7.79132564 Z M9.69390994,26.5498845 C9.26420256,26.1201799 9.26420256,25.4326526 9.69390994,25.002948 L21.7257168,12.9712192 C22.1554242,12.5415146 22.842956,12.5415146 23.2726634,12.9712192 C23.7023708,13.4009238 23.7023708,14.0884512 23.2726634,14.5181558 L11.2408565,26.5498845 C10.8111491,26.9795891 10.1236173,26.9795891 9.69390994,26.5498845 L9.69390994,26.5498845 Z M6.87346691,33.1204585 L10.6236405,33.1204585 L10.6236405,35.9565088 L5.58434475,36.8393564 L3.1545448,34.4095723 L4.03739816,29.3703093 L6.87346691,29.3703093 L6.87346691,33.1204585 Z" id="Shape"></path>
            </g>
        </g>
    </g>
</svg>