<?xml version="1.0" encoding="UTF-8"?>
<svg width="31px" height="20px" viewBox="0 0 31 20" version="1.1" xmlns="http://www.w3.org/2000/svg" xmlns:xlink="http://www.w3.org/1999/xlink">
    <!-- Generator: Sketch 62 (91390) - https://sketch.com -->
    <title>load-carriage</title>
    <desc>Created with Sketch.</desc>
    <g id="Symbols" stroke="none" stroke-width="1" fill="none" fill-rule="evenodd">
        <g id="Icon/pedidos/inactive" fill="#FFFFFF" fill-rule="nonzero">
            <g id="load-carriage">
                <path d="M28.8299352,8.47869381 L28.0271426,5.20364464 C28.2466255,5.15609514 28.4113133,4.95749877 28.4113133,4.719566 L28.4113133,4.19151952 C28.4113133,3.04502073 27.496751,2.11230945 26.372696,2.11230945 L22.716142,2.11230945 L22.716142,1.02311709 C22.716142,0.458945327 22.2661568,0 21.7129994,0 L3.07409194,0 C2.52093461,0 2.07094936,0.458945327 2.07094936,1.02311709 L2.07094936,10.0000926 C2.07094936,10.2734714 2.28825252,10.4951632 2.5563546,10.4951632 C2.82439614,10.4951632 3.04175985,10.2735331 3.04175985,10.0000926 L3.04175985,1.02311709 C3.04175985,1.00490007 3.05623058,0.990141197 3.07409194,0.990141197 L21.7129389,0.990141197 C21.7308003,0.990141197 21.745271,1.00490007 21.745271,1.02311709 L21.745271,10.0002161 C21.745271,10.2735949 21.9625741,10.4952867 22.2306762,10.4952867 C22.4987178,10.4952867 22.7160815,10.2736566 22.7160815,10.0002161 L22.7160815,9.4390085 L28.4419501,9.4390085 C28.4424345,9.4390085 28.4427977,9.43913201 28.4432216,9.43913201 C28.4437059,9.43913201 28.4441298,9.43907025 28.4445536,9.43907025 C29.149139,9.43956427 29.7474038,9.91123064 29.9529003,10.5611768 L28.4435849,10.5611768 C28.1755433,10.5611768 27.9581796,10.7828068 27.9581796,11.0562474 L27.9581796,12.1123403 C27.9581796,12.9676756 28.6404231,13.6635039 29.4790595,13.6635039 L30.0291895,13.6635039 L30.0291895,15.8417034 L28.7600034,15.8417034 C28.3430768,14.6138764 27.1986781,13.7294557 25.8548376,13.7294557 C24.5109971,13.7294557 23.3665378,14.6138764 22.9496718,15.8417034 L22.7159604,15.8417034 L22.7159604,12.1122786 C22.7159604,11.8388998 22.4986572,11.617208 22.2305551,11.617208 C21.9625136,11.617208 21.7451499,11.8388381 21.7451499,12.1122786 L21.7451499,15.8415799 L11.6744896,15.8415799 C11.257563,14.6137529 10.1131643,13.7293322 8.76932377,13.7293322 C7.42548325,13.7293322 6.28102399,14.6137529 5.86415794,15.8415799 L3.07409194,15.8415799 C3.05623058,15.8415799 3.04175985,15.826821 3.04175985,15.808604 L3.04175985,14.7194734 L5.14510185,14.7194734 C5.41314339,14.7194734 5.63050709,14.4978433 5.63050709,14.2244028 C5.63050709,13.9509623 5.41320393,13.7293322 5.14510185,13.7293322 L0.485405245,13.7293322 C0.217363706,13.7293322 0,13.9509623 0,14.2244028 C0,14.4978433 0.217303159,14.7194734 0.485405245,14.7194734 L2.0710099,14.7194734 L2.0710099,15.808604 C2.0710099,16.3727757 2.52099516,16.8317211 3.07415249,16.8317211 L5.69607948,16.8317211 C5.69595839,16.842713 5.69523183,16.8536432 5.69523183,16.864697 C5.69523183,18.5935228 7.07431069,20 8.76932377,20 C10.4643368,20 11.8434157,18.5935228 11.8434157,16.864697 C11.8434157,16.8535815 11.8426891,16.842713 11.8425681,16.8317211 L22.7815933,16.8317211 C22.7814722,16.842713 22.7807457,16.8536432 22.7807457,16.864697 C22.7807457,18.5935228 24.1598245,20 25.8548376,20 C27.5498507,20 28.9289295,18.5935228 28.9289295,16.864697 C28.9289295,16.8535815 28.928203,16.842713 28.9280819,16.8317211 L30.5145948,16.8317211 C30.7826363,16.8317211 31,16.610091 31,16.3366505 L31,11.0561239 C31,9.75240295 30.05692,8.66920058 28.8299352,8.47869381 Z M22.716142,3.1023889 L26.372696,3.1023889 C26.9615155,3.1023889 27.4405634,3.59097547 27.4405634,4.19151952 L27.4405634,4.2244954 L22.716142,4.2244954 L22.716142,3.1023889 Z M22.716142,8.44892906 L22.716142,5.21457485 L27.0292071,5.21457485 L27.8220094,8.44892906 L22.716142,8.44892906 Z M8.76932377,19.0100441 C7.60954611,19.0100441 6.66598177,18.0477533 6.66598177,16.8648205 C6.66598177,15.6818877 7.60954611,14.7195969 8.76932377,14.7195969 C9.92910142,14.7195969 10.8726658,15.6818877 10.8726658,16.8648205 C10.8726658,18.0477533 9.92910142,19.0100441 8.76932377,19.0100441 Z M25.8549587,19.0100441 C24.695181,19.0100441 23.7516167,18.0477533 23.7516167,16.8648205 C23.7516167,15.6818877 24.695181,14.7195969 25.8549587,14.7195969 C27.0147364,14.7195969 27.9583007,15.6818877 27.9583007,16.8648205 C27.9583007,18.0477533 27.0147364,19.0100441 25.8549587,19.0100441 Z M30.0293106,12.6733627 L29.4791806,12.6733627 C29.1758402,12.6733627 28.9290506,12.4216591 28.9290506,12.1122786 L28.9290506,11.5511944 L30.0292501,11.5511944 L30.0292501,12.6733627 L30.0293106,12.6733627 Z" id="Shape"></path>
                <path d="M9,16 C8.44857557,16 8,16.4485756 8,17 C8,17.5514244 8.44857557,18 9,18 C9.55142443,18 10,17.5514244 10,17 C10,16.4485756 9.55142443,16 9,16 Z" id="Path"></path>
                <path d="M26,16 C25.4485756,16 25,16.4485756 25,17 C25,17.5514244 25.4485756,18 26,18 C26.5514244,18 27,17.5514244 27,17 C27,16.4485756 26.5514244,16 26,16 Z" id="Path"></path>
                <path d="M20.4684862,14 L12.5315138,14 C12.238011,14 12,14.2238368 12,14.5 C12,14.7761632 12.2379448,15 12.5315138,15 L20.4684862,15 C20.761989,15 21,14.7761632 21,14.5 C21,14.2238368 20.7620552,14 20.4684862,14 Z" id="Path"></path>
                <path d="M7.52701268,11 L1.47298732,11 C1.21180298,11 1,11.2238368 1,11.5 C1,11.7761632 1.21174398,12 1.47298732,12 L7.52701268,12 C7.78819702,12 8,11.7761632 8,11.5 C8,11.2238368 7.78819702,11 7.52701268,11 Z" id="Path"></path>
                <path d="M17.8443714,5.15145434 C17.6368554,4.94950447 17.3002553,4.94950447 17.0927394,5.15151886 L12.3661501,9.75126588 L9.90731858,7.35838575 C9.69973637,7.15637136 9.36320257,7.15637136 9.15568666,7.35838575 C8.94810445,7.56040014 8.94810445,7.88784282 9.15568666,8.08985721 L11.9903673,10.8485053 C12.0941253,10.9495448 12.2301708,11 12.3661501,11 C12.5021294,11 12.6382413,10.9495448 12.7419329,10.8485053 L17.8443051,5.88299032 C18.0518873,5.68091141 18.0518873,5.35346873 17.8443714,5.15145434 Z" id="Path"></path>
            </g>
        </g>
    </g>
</svg>