<?xml version="1.0" encoding="UTF-8"?>
<svg width="40px" height="40px" viewBox="0 0 40 40" version="1.1" xmlns="http://www.w3.org/2000/svg" xmlns:xlink="http://www.w3.org/1999/xlink">
    <!-- Generator: Sketch 62 (91390) - https://sketch.com -->
    <title>iconos_footer/Icon/youtube</title>
    <desc>Created with Sketch.</desc>
    <g id="Symbols" stroke="none" stroke-width="1" fill="none" fill-rule="evenodd" opacity="0.649135045">
        <g id="FOOTER" transform="translate(-1165.000000, -237.000000)">
            <g id="Group-10-Copy">
                <g id="Group-9" transform="translate(158.000000, 173.000000)">
                    <g id="Group-8" transform="translate(0.000000, 25.000000)">
                        <g id="Group-5" transform="translate(799.000000, 0.000000)">
                            <g id="Icon/youtube" transform="translate(209.000000, 40.000000)">
                                <g id="Group-4">
                                    <path d="M19.03,38.061 L19.03,38.061 C8.52,38.061 -1.52766688e-13,29.541 -1.52766688e-13,19.031 C-1.52766688e-13,8.521 8.52,-1.52766688e-13 19.03,-1.52766688e-13 C29.541,-1.52766688e-13 38.061,8.521 38.061,19.031 C38.061,29.541 29.541,38.061 19.03,38.061 Z" id="Stroke-1" stroke="#222221" stroke-width="1.5"></path>
                                    <path d="M30.2978288,13.4160351 C30.0212876,12.3712096 29.208209,11.5481818 28.1761034,11.2685583 C26.3049196,10.7608 18.7989121,10.7608 18.7989121,10.7608 C18.7989121,10.7608 11.2944804,10.7608 9.42329661,11.2685583 C8.39040317,11.5481818 7.57732458,12.3712096 7.30157118,13.4160351 C6.7997,15.3100288 6.7997,19.2611961 6.7997,19.2611961 C6.7997,19.2611961 6.7997,23.2123633 7.30157118,25.1071492 C7.57732458,26.1519747 8.39040317,26.9742104 9.42329661,27.2538339 C11.2944804,27.7608 18.7989121,27.7608 18.7989121,27.7608 C18.7989121,27.7608 26.3049196,27.7608 28.1761034,27.2538339 C29.208209,26.9742104 30.0212876,26.1519747 30.2978288,25.1071492 C30.7997,23.2123633 30.7997,19.2611961 30.7997,19.2611961 C30.7997,19.2611961 30.7997,15.3100288 30.2978288,13.4160351" id="Fill-3" fill="#222221"></path>
                                    <polygon id="Fill-5" fill="#FFFFFF" points="15.9148 23.56 15.9148 14.501 23.8768 19.031"></polygon>
                                </g>
                            </g>
                        </g>
                    </g>
                </g>
            </g>
        </g>
    </g>
</svg>