<?xml version="1.0" encoding="UTF-8"?>
<svg width="35px" height="23px" viewBox="0 0 35 23" version="1.1" xmlns="http://www.w3.org/2000/svg" xmlns:xlink="http://www.w3.org/1999/xlink">
    <!-- Generator: Sketch 62 (91390) - https://sketch.com -->
    <title>mdpi/fast</title>
    <desc>Created with Sketch.</desc>
    <g id="Page-1" stroke="none" stroke-width="1" fill="none" fill-rule="evenodd">
        <g id="fast" fill="#FF596A">
            <g id="Group-49">
                <path d="M10.2751771,0.000309254761 L25.3610193,0.222159876 C26.0371228,0.232102573 26.687647,0.482205533 27.1962774,0.927749976 L27.1962774,0.927749976 L33.9970051,6.88497657 C34.6145384,7.4259166 34.9686941,8.20696288 34.9686941,9.02791568 L34.9686941,9.02791568 L34.9686941,11.6469963 C34.9686941,12.1121924 34.8547738,12.5703111 34.6368868,12.9813254 L34.6368868,12.9813254 L32.6942454,16.6458534 C32.3226257,17.3468632 31.6820487,17.850965 30.9373024,18.0571692 C30.9741727,17.8079124 30.9928444,17.5536184 30.9928444,17.2949634 C30.9928444,16.9769994 30.9646283,16.6656257 30.9105635,16.3632094 C31.0754517,16.2501502 31.2138609,16.0964393 31.3112619,15.9127056 L31.3112619,15.9127056 L33.2539033,12.2481775 C33.3520722,12.0629953 33.4033989,11.8565901 33.4033989,11.6469963 L33.4033989,11.6469963 L33.4033989,9.02791568 C33.4033989,8.65803585 33.2438343,8.30613588 32.965605,8.06241565 L32.965605,8.06241565 L26.1648773,2.10518905 C25.9357141,1.90444924 25.6426208,1.79176549 25.3380028,1.78728582 L25.3380028,1.78728582 L10.2521605,1.56529586 C9.79584118,1.55872462 9.370276,1.79481538 9.13442986,2.18551856 C5.35076732,8.45354155 3.08009861,12.462553 2.34642626,14.1615837 C2.05363193,14.8396337 2.07988807,15.3352183 2.38521708,15.7533862 C2.73141841,16.2275316 3.46160975,16.6572945 4.58861018,17.0030156 L4.58861018,17.0030156 L4.61593023,17.0113319 L5.07951978,17.003063 C5.07423389,17.0996916 5.07155635,17.1970148 5.07155635,17.2949634 C5.07155635,17.7339172 5.12533103,18.1603112 5.22665203,18.5679171 L4.40225412,18.5803314 L4.23607672,18.5316352 C2.75687303,18.0923821 1.71388073,17.4883616 1.1210441,16.6764332 C0.466325409,15.7797532 0.409099134,14.6996073 0.909387693,13.5410443 C1.65926487,11.8044866 3.83359009,7.95319777 7.45426981,1.94065951 L7.45426981,1.94065951 L7.79436026,1.37659185 C8.31782364,0.509421378 9.26237073,-0.0145849562 10.2751771,0.000309254761 L10.2751771,0.000309254761 Z M20.4740608,17.2949634 C20.4740608,17.6446532 20.5081885,17.9863722 20.5732948,18.3169712 L15.4740212,18.4001574 C15.5502296,18.0438025 15.5903399,17.6740671 15.5903399,17.2949634 C15.5903399,17.1391108 15.5835608,16.9848415 15.5702815,16.8324343 L20.501725,16.7522179 C20.4834333,16.9306419 20.4740608,17.1117081 20.4740608,17.2949634 Z" id="Combined-Shape" fill-rule="nonzero"></path>
                <rect id="Rectangle" x="0" y="3.01947143" width="12.4597496" height="1.31484794" rx="0.657423971"></rect>
                <rect id="Rectangle-Copy-11" x="0" y="7.08923888" width="9.45438283" height="1.31484794" rx="0.657423971"></rect>
                <rect id="Rectangle-Copy-12" x="0" y="11.3468417" width="6.19856887" height="1.31484794" rx="0.657423971"></rect>
                <path d="M23.7299016,3.45222614 L22.4843637,8.64196703 C22.4636893,8.72811063 22.4532439,8.81639147 22.4532439,8.90498127 C22.4532439,9.5274131 22.9578246,10.0319938 23.5802564,10.0319938 L30.6902014,10.0319938 C31.0129839,10.0319938 31.320274,9.8935936 31.5341874,9.65187148 C31.9466834,9.18575092 31.9032122,8.47349141 31.4370916,8.06099534 L25.5726844,2.87125445 C25.434455,2.74892752 25.2682956,2.66242463 25.0888085,2.61934772 C24.4835637,2.47408897 23.8751603,2.84698134 23.7299016,3.45222614 Z M25.045161,4.41095623 L29.6989088,8.52931043 L24.056771,8.52931043 L25.045161,4.41095623 Z" id="Path-5" fill-rule="nonzero"></path>
                <path d="" id="Oval-2" stroke="#FF596A" stroke-width="29"></path>
                <path d="" id="Oval-2-Copy" stroke="#FF596A" stroke-width="29"></path>
            </g>
        </g>
    </g>
</svg>