<?xml version="1.0" encoding="UTF-8"?>
<svg width="28px" height="28px" viewBox="0 0 28 28" version="1.1" xmlns="http://www.w3.org/2000/svg" xmlns:xlink="http://www.w3.org/1999/xlink">
    <title>0E53FD6B-A619-47B8-B9AD-4AFC79AB0073SVG</title>
    <defs>
        <radialGradient cx="50%" cy="50%" fx="50%" fy="50%" r="50%" id="radialGradient-1">
            <stop stop-color="#1F5293" offset="0%"></stop>
            <stop stop-color="#1E508F" offset="26%"></stop>
            <stop stop-color="#1C4A83" offset="52%"></stop>
            <stop stop-color="#194170" offset="77%"></stop>
            <stop stop-color="#143557" offset="100%"></stop>
        </radialGradient>
    </defs>
    <g id="Page-1" stroke="none" stroke-width="1" fill="none" fill-rule="evenodd">
        <g id="Bolsa/pago/tarjeta-crédito" transform="translate(-1030.000000, -515.000000)" fill-rule="nonzero">
            <g id="logo_pseSVG" transform="translate(1030.000000, 515.000000)">
                <g id="Group">
                    <circle id="Oval" fill="url(#radialGradient-1)" cx="13.9830508" cy="13.9830508" r="13.9830508"></circle>
                    <path d="M8.7179661,9.00610169 C8.6695459,8.950268 8.59932834,8.91812616 8.52542373,8.9179661 L7.94644068,8.9179661 L7.94644068,9.08067797 L8.52542373,9.08067797 C8.55157414,9.08096529 8.57631161,9.0925919 8.59322034,9.11254237 C8.61078259,9.13260024 8.61848769,9.1594438 8.61423729,9.18576271 L8.57966102,9.41355932 L8.01762712,9.41355932 C7.86440678,9.41355932 7.69288136,9.57355932 7.69288136,9.80338983 C7.69752312,9.94394544 7.77443589,10.0721334 7.89627119,10.1423729 C7.90802609,10.1491216 7.92136108,10.1526308 7.93491525,10.152544 L8.56067797,10.152544 C8.60039801,10.1527181 8.63433644,10.1239567 8.64067797,10.0847458 L8.77627119,9.21152542 C8.78764864,9.13782926 8.7663624,9.06283237 8.7179661,9.00610169 L8.7179661,9.00610169 Z M8.49423729,9.98983051 L7.96271186,9.98983051 C7.90005527,9.94790561 7.86104927,9.87870141 7.85762712,9.80338983 C7.85762712,9.66779661 7.95525424,9.57559322 8.01966102,9.57559322 L8.55661017,9.57559322 L8.49423729,9.98983051 Z" id="Shape" fill="#FFFFFF"></path>
                    <path d="M8.98983051,9.97762712 C8.96542373,9.93152542 8.92677966,9.81830508 8.94576271,9.57423729 C8.96610169,9.30711864 9.08135593,9.18169492 9.14915254,9.13016949 C9.16419169,9.11888522 9.18255641,9.11292265 9.20135593,9.11322034 L9.77152542,9.11322034 L9.77152542,8.94915212 L9.20135593,8.94915212 C9.14727189,8.94905295 9.09464446,8.9666748 9.05152542,8.99932203 C8.96135593,9.06711864 8.80610169,9.22983051 8.78033898,9.56 C8.75932203,9.83118644 8.80338983,9.97830508 8.84338983,10.0528814 C8.87616647,10.1136645 8.93975686,10.1514539 9.00881356,10.1511879 L9.59186441,10.1511879 L9.59186441,9.98847458 L9.00881356,9.98847458 C9.00116009,9.98795163 8.99416665,9.98395538 8.98983051,9.97762712 Z" id="Path" fill="#FFFFFF"></path>
                    <path d="M10.7423729,9.02508475 C10.6752793,8.94595768 10.5747187,8.90321944 10.4711864,8.90983051 L10.2135593,8.90983051 C10.1577797,8.90825726 10.1023723,8.91938511 10.0515254,8.94237288 L10.1288136,8.48474576 L9.96881356,8.48474576 L9.83322034,9.23932203 L9.83322034,9.23932203 L9.69491525,10.1525424 L9.83050847,10.1525424 L9.9979661,9.26576271 L9.9979661,9.26576271 C10.0030981,9.15420545 10.0972178,9.06765166 10.2088136,9.07186441 L10.4725424,9.07186441 C10.5265633,9.0669763 10.5798266,9.08723135 10.6169492,9.12677966 C10.647007,9.16697024 10.6599262,9.21742834 10.6528814,9.26711864 C10.6372881,9.34711864 10.5098305,10.1484746 10.5084746,10.1518644 L10.6494915,10.1518644 C10.6555932,10.1233898 10.7959322,9.37966102 10.8122034,9.29898305 C10.8288365,9.20191143 10.8034517,9.10234368 10.7423729,9.02508475 Z" id="Path" fill="#FFFFFF"></path>
                    <g id="_Group_" transform="translate(1.016949, 9.288136)">
                        <g id="_Group_2" transform="translate(11.254237, 1.355932)" fill="#FFFFFF">
                            <path d="M3.87661017,6.30103826 L0.263728814,6.30103826 C0.150463636,6.30103826 0.0586440678,6.20919738 0.0586440678,6.0959322 C0.0586440678,5.98266703 0.150463636,5.89084746 0.263728814,5.89084746 L3.85694915,5.89084746 C3.99254237,5.86169492 4.94169492,5.61966102 4.98576271,4.50847458 C5.02983051,3.39728814 4.39457627,3.29288136 4.29152542,3.28271186 L1.97288136,3.28271186 C1.04271186,3.12745763 0.848135593,2.29152542 0.875254237,1.84677966 C0.869830508,0.690847458 1.84542373,0.173559322 2.36271186,0.0610169492 C2.37722622,0.0580980397 2.39197663,0.056509534 2.40677966,0.0562711864 L5.66101695,0.0562711864 C5.77446934,0.0562711864 5.86644068,0.148242523 5.86644068,0.261694915 C5.86644068,0.375147308 5.77446934,0.467118644 5.66101695,0.467118644 L2.43050847,0.467118644 C2.27322034,0.507118644 1.2779661,0.806101695 1.28542373,1.85084746 C1.28576171,1.85581347 1.28576171,1.8607967 1.28542373,1.86576271 C1.28542373,1.90237288 1.24135593,2.72949153 2.02305085,2.87254237 L4.31186441,2.87254237 C4.32338983,2.87254237 5.45627119,2.95864407 5.39661017,4.5240678 C5.38552725,5.3929152 4.76515423,6.1342468 3.91186441,6.29830508 C3.90022058,6.30028463 3.88841977,6.30119238 3.87661017,6.30103826 L3.87661017,6.30103826 Z" id="_Path_"></path>
                        </g>
                        <g id="_Group_3" transform="translate(17.288136, 1.491525)" fill="#FFFFFF">
                            <path d="M4.65220339,6.18711864 L1.3179661,6.18711864 L1.29627119,6.18711864 C0.856271186,6.14033898 0.0203389831,5.83457627 0.0013559322,5.01288136 C-0.0183050847,4.14033898 0.566101695,1.48745763 0.591186441,1.37627119 C0.593177962,1.36703099 0.595898335,1.35796308 0.599322034,1.34915254 C0.619661017,1.29423729 1.10983051,0.00610169491 2.19525424,0.00610169491 L4.59389831,0.00610169491 C4.61317093,0.00610169491 4.63234574,0.00884095259 4.65084746,0.0142372881 C4.69288136,0.026440678 5.67661017,0.320677966 5.67661017,1.16677966 C5.67661017,1.87864407 5.46779661,3.0820339 5.45898305,3.13288136 C5.44227099,3.23181085 5.35591457,3.30377453 5.25559322,3.30237288 L0.61559322,3.34169492 C0.498305085,4.00135593 0.401355932,4.66237288 0.408813559,5.00338983 C0.423728814,5.63932203 1.22237288,5.7640678 1.32745763,5.77830508 L4.64949153,5.77830508 C4.76182063,5.77830508 4.85288136,5.86936581 4.85288136,5.98169492 C4.85288136,6.09402402 4.76182063,6.18508475 4.64949153,6.18508475 L4.65220339,6.18711864 Z M0.991186441,1.47864407 C0.968135593,1.58372881 0.831186441,2.21355932 0.696271186,2.92881356 L5.08542373,2.89220339 C5.14305085,2.53491525 5.26847458,1.69016949 5.26847458,1.16542373 C5.26847458,0.685423729 4.69220339,0.459661017 4.5640678,0.41559322 L2.1979661,0.41559322 C1.4379661,0.41559322 1.03525424,1.36135593 0.988474576,1.47864407 L0.991186441,1.47864407 Z" id="_Compound_Path_"></path>
                        </g>
                        <g id="_Group_4" transform="translate(5.016949, 1.423729)" fill="#FFFFFF">
                            <path d="M0.244067797,8.94915254 C0.231791915,8.94903202 0.219546936,8.94789822 0.207457627,8.94576271 C0.153626058,8.93653841 0.105766266,8.9060516 0.0746516808,8.86116498 C0.0435370956,8.81627837 0.0317824993,8.76076409 0.0420338983,8.70711864 C0.0420338983,8.70711864 0.368813559,6.90033898 0.697627119,5.09288136 C0.862372881,4.18915254 1.02779661,3.28474576 1.15254237,2.60745763 C1.21559322,2.26847458 1.26779661,1.98508475 1.30576271,1.78711864 C1.32419463,1.6728611 1.34886427,1.55969761 1.37966102,1.44813559 L1.37966102,1.44813559 C1.61152542,0.814237288 2.33355932,0.13559322 2.86576271,0.0508474576 C2.88421853,0.0484856639 2.90290011,0.0484856639 2.92135593,0.0508474576 C3.05694915,0.0555932203 4.3579661,0.0508474576 5.21694915,0.0508474576 L5.21694915,0.0508474576 C5.41559322,0.046779661 6.47932203,0.448813559 6.35525424,1.29084746 L6.35525424,1.31322034 L5.78237288,4.80745763 C5.78144359,4.81503891 5.77985566,4.82252483 5.77762712,4.82983051 C5.76542373,4.87389831 5.46440678,5.90576271 4.46440678,6.20610169 C4.44721481,6.21113033 4.42943388,6.21386586 4.41152542,6.21423729 L2.30305085,6.27457627 C2.29470332,6.27526189 2.28631363,6.27526189 2.2779661,6.27457627 C2.2440678,6.27457627 1.57830508,6.20067797 1.04271186,5.52474576 C0.81559322,6.77220339 0.588474576,8.02372881 0.450169492,8.78779661 C0.42980221,8.88451635 0.3428489,8.95259164 0.244067797,8.94915254 Z M1.14440678,4.93016949 C1.5620339,5.72542373 2.20677966,5.8440678 2.30169492,5.85762712 L4.36677966,5.79864407 C5.0840678,5.56745763 5.34576271,4.81355932 5.37491525,4.72067797 L5.94305085,1.25288136 C6.00271186,0.866440678 5.41016949,0.452881356 5.16677966,0.454915254 L4.05491525,0.454915254 L3.25423729,0.454915254 C3.10576271,0.454915254 2.9979661,0.454915254 2.91932203,0.449491525 C2.57152542,0.509152542 1.95254237,1.05966102 1.76135593,1.57559322 C1.72813559,1.73898305 1.44881356,3.26033898 1.14440678,4.92881356 L1.14440678,4.93016949 Z" id="_Compound_Path_2"></path>
                        </g>
                        <path d="M2.48881396,0.601355932 C2.48908775,0.833187974 2.34961029,1.04233213 2.13547776,1.13117712 C1.92134524,1.22002211 1.67477444,1.17105191 1.51084431,1.00712179 C1.34691419,0.843191666 1.29794399,0.596620863 1.38678898,0.382488338 C1.47563397,0.168355812 1.68477813,0.0288783469 1.91661017,0.0291521388 C2.23262938,0.0291521388 2.48881396,0.285336726 2.48881396,0.601355932 L2.48881396,0.601355932 Z" id="_Path_2" fill="#FBB633"></path>
                        <circle id="_Path_3" fill="#FBB633" cx="1.85016949" cy="8.3979661" r="1"></circle>
                        <circle id="_Path_4" fill="#FBB633" cx="0.617627119" cy="6.57016949" r="1"></circle>
                        <polygon id="_Path_5" fill="#FBB633" points="2.27254237 4.69559322 0.806779661 2.43050847 1.21627119 2.43050847 2.6820339 4.69559322"></polygon>
                        <rect id="_Rectangle_" fill="#FBB633" x="1.06372881" y="6.39457627" width="1.35932203" height="1"></rect>
                        <polygon id="_Path_6" fill="#FBB633" points="2.09966102 6.74576271 3.31525424 4.69491525 3.66644068 4.69491525 2.45084746 6.74576271"></polygon>
                    </g>
                </g>
                <path d="M1.43696962,8 C1.74482794,7.99709416 1.99424558,7.77951398 1.9999021,7.50892426 C2.00555862,7.23833453 1.76540306,7.01284623 1.45787403,7 C1.2942352,7.26753606 1.14161052,7.54119739 1,7.82098399 C1.10840949,7.93448192 1.26837692,8.00001676 1.43696962,8 L1.43696962,8 Z" id="Path" fill="#FBB633"></path>
                <path d="M1.43696962,8 C1.74482794,7.99709416 1.99424558,7.77951398 1.9999021,7.50892426 C2.00555862,7.23833453 1.76540306,7.01284623 1.45787403,7 C1.2942352,7.26753606 1.14161052,7.54119739 1,7.82098399 C1.10840949,7.93448192 1.26837692,8.00001676 1.43696962,8 L1.43696962,8 Z" id="Path" fill="#FBB633"></path>
                <path d="M1.2245924,10.4213483 C1.22531614,10.2632341 1.16585751,10.1114323 1.05955618,10 C0.953968487,10.3277154 0.859250118,10.6610487 0.77540107,11 C1.03612955,10.9437701 1.22367552,10.7021719 1.2245924,10.4213483 L1.2245924,10.4213483 Z" id="Path" fill="#FBB633"></path>
                <path d="M1.2245924,10.4213483 C1.22531614,10.2632341 1.16585751,10.1114323 1.05955618,10 C0.953968487,10.3277154 0.859250118,10.6610487 0.77540107,11 C1.03612955,10.9437701 1.22367552,10.7021719 1.2245924,10.4213483 L1.2245924,10.4213483 Z" id="Path" fill="#FBB633"></path>
                <path d="M1.22459893,17.5384615 C1.22461519,17.2434642 1.02432388,17.0033714 0.77540107,17 C0.842477821,17.3364103 0.918642391,17.6697436 1.00389478,18 C1.1407478,17.90275 1.22452295,17.7275587 1.22459893,17.5384615 Z" id="Path" fill="#FBB633"></path>
                <path d="M1.22459893,17.5384615 C1.22461519,17.2434642 1.02432388,17.0033714 0.77540107,17 C0.842477821,17.3364103 0.918642391,17.6697436 1.00389478,18 C1.1407478,17.90275 1.22452295,17.7275587 1.22459893,17.5384615 Z" id="Path" fill="#FBB633"></path>
                <path d="M2,11.8502674 L0.0524899058,11.8502674 C0.0336473755,11.9497037 0.0161507402,12.0497182 0,12.1497326 L2,12.1497326 L2,11.8502674 Z" id="Path" fill="#FBB633"></path>
                <path d="M2,11.8502674 L0.0524899058,11.8502674 C0.0336473755,11.9497037 0.0161507402,12.0497182 0,12.1497326 L2,12.1497326 L2,11.8502674 Z" id="Path" fill="#FBB633"></path>
                <path d="M2,19.4984408 C1.99959796,19.2629018 1.82689664,19.0596762 1.58566401,19.0108794 C1.34443139,18.9620827 1.10031456,19.0809939 1,19.296161 C1.10361136,19.5280138 1.21424023,19.7559236 1.33188659,19.9798903 C1.37912843,19.9932284 1.42813433,20 1.47739657,20 C1.61642826,20 1.74972972,19.9470834 1.84780728,19.8529542 C1.94588484,19.758825 2.00065304,19.6312445 2,19.4984408 Z" id="Path" fill="#FBB633"></path>
                <path d="M2,19.4984408 C1.99959796,19.2629018 1.82689664,19.0596762 1.58566401,19.0108794 C1.34443139,18.9620827 1.10031456,19.0809939 1,19.296161 C1.10361136,19.5280138 1.21424023,19.7559236 1.33188659,19.9798903 C1.37912843,19.9932284 1.42813433,20 1.47739657,20 C1.61642826,20 1.74972972,19.9470834 1.84780728,19.8529542 C1.94588484,19.758825 2.00065304,19.6312445 2,19.4984408 Z" id="Path" fill="#FBB633"></path>
                <path d="M7,13.8502674 L0.00435188063,13.8502674 C0,13.9445007 0,14.0381558 0,14.1323891 L0,14.1497326 L7,14.1497326 L7,13.8502674 Z" id="Path" fill="#FBB633"></path>
                <path d="M7,13.8502674 L0.00435188063,13.8502674 C0,13.9445007 0,14.0381558 0,14.1323891 L0,14.1497326 L7,14.1497326 L7,13.8502674 Z" id="Path" fill="#FBB633"></path>
            </g>
        </g>
    </g>
</svg>