<?xml version="1.0" encoding="UTF-8"?>
<svg width="19px" height="13px" viewBox="0 0 19 13" version="1.1" xmlns="http://www.w3.org/2000/svg" xmlns:xlink="http://www.w3.org/1999/xlink">
    <title>credito copySVG</title>
    <g id="Page-1" stroke="none" stroke-width="1" fill="none" fill-rule="evenodd">
        <g id="Bolsa/pago/tarjeta-crédito" transform="translate(-49.000000, -608.000000)" fill="#000000" fill-rule="nonzero">
            <g id="Group-2" transform="translate(49.000000, 608.000000)">
                <path d="M17.0208457,6.17006446e-14 L1.9791543,6.17006446e-14 C0.88825,6.17006446e-14 -1.61722487e-13,0.864355556 -1.61722487e-13,1.92595 L-1.61722487e-13,10.4000361 C-1.61722487e-13,11.4615944 0.88825,12.32595 1.9791543,12.32595 L17.0208086,12.32595 C18.1117129,12.32595 18.9999629,11.4615944 18.9999629,10.4000361 L18.9999629,1.92595 C18.9999629,0.864355556 18.11175,6.17006446e-14 17.0208457,6.17006446e-14 Z M18.2083457,10.4 C18.2083457,11.0371083 17.6755664,11.5555556 17.0208457,11.5555556 L1.9791543,11.5555556 C1.32443359,11.5555556 0.791654297,11.0371083 0.791654297,10.4 L0.791654297,1.92595 C0.791654297,1.28884167 1.32443359,0.770394444 1.9791543,0.770394444 L17.0208086,0.770394444 C17.6755293,0.770394444 18.2083457,1.28884167 18.2083457,1.92595 L18.2083457,10.4 L18.2083457,10.4 Z" id="Shape"></path>
                <path d="M18.6041543,2.31111111 L0.395845703,2.31111111 C0.177345703,2.31111111 1.5750364e-13,2.48368611 1.5750364e-13,2.69630833 L1.5750364e-13,5.00741944 C1.5750364e-13,5.22004167 0.177345703,5.39261667 0.395845703,5.39261667 L18.6041914,5.39261667 C18.8226914,5.39261667 19.0000371,5.22004167 19.0000371,5.00741944 L19.0000371,2.69630833 C19.0000371,2.48368611 18.8226543,2.31111111 18.6041543,2.31111111 Z M18.2083457,4.62222222 L0.791654297,4.62222222 L0.791654297,3.08146944 L18.2083457,3.08146944 L18.2083457,4.62222222 L18.2083457,4.62222222 Z" id="Shape"></path>
                <path d="M7.5208457,7.70372778 L2.7708457,7.70372778 C2.5523457,7.70372778 2.375,7.87630278 2.375,8.088925 C2.375,8.30154722 2.5523457,8.47408611 2.7708457,8.47408611 L7.5208457,8.47408611 C7.7393457,8.47408611 7.91669141,8.30151111 7.91669141,8.08888889 C7.91669141,7.87626667 7.7393457,7.70372778 7.5208457,7.70372778 Z" id="Path"></path>
                <path d="M7.5208457,9.24444444 L2.7708457,9.24444444 C2.5523457,9.24444444 2.375,9.41701944 2.375,9.62964167 C2.375,9.84226389 2.5523457,10.0148389 2.7708457,10.0148389 L7.5208457,10.0148389 C7.7393457,10.0148389 7.91669141,9.84226389 7.91669141,9.62964167 C7.91669141,9.41701944 7.7393457,9.24444444 7.5208457,9.24444444 Z" id="Path"></path>
                <path d="M15.4375,6.93333333 L14.6458457,6.93333333 C13.991125,6.93333333 13.4583457,7.45178056 13.4583457,8.08888889 L13.4583457,8.85924722 C13.4583457,9.49635556 13.991125,10.0148028 14.6458457,10.0148028 L15.4375,10.0148028 C16.0922207,10.0148028 16.625,9.49635556 16.625,8.85924722 L16.625,8.08888889 C16.625,7.45181667 16.0922207,6.93333333 15.4375,6.93333333 Z M15.8333457,8.85928333 C15.8333457,9.07190556 15.656,9.24448056 15.4375,9.24448056 L14.6458457,9.24448056 C14.4273457,9.24448056 14.25,9.07190556 14.25,8.85928333 L14.25,8.088925 C14.25,7.87630278 14.4273457,7.70372778 14.6458457,7.70372778 L15.4375,7.70372778 C15.656,7.70372778 15.8333457,7.87630278 15.8333457,8.088925 L15.8333457,8.85928333 Z" id="Shape"></path>
            </g>
        </g>
    </g>
</svg>