<?xml version="1.0" encoding="UTF-8"?>
<svg width="19px" height="19px" viewBox="0 0 19 19" version="1.1" xmlns="http://www.w3.org/2000/svg" xmlns:xlink="http://www.w3.org/1999/xlink">
    <title>efectivo copySVG</title>
    <g id="Page-1" stroke="none" stroke-width="1" fill="none" fill-rule="evenodd">
        <g id="Bolsa/pago/tarjeta-crédito" transform="translate(-49.000000, -642.000000)" fill="#000000" fill-rule="nonzero">
            <g id="efectivo-copy" transform="translate(49.000000, 642.000000)">
                <path d="M18.8913039,0.108693147 C18.8216849,0.0391132049 18.7272763,0 18.6288226,0 L9.49990722,0.000482420933 C9.29498405,0.000482420933 9.12884116,0.166657878 9.12884116,0.371575446 L9.12884116,1.43279017 L5.6111913,2.37532935 C5.41320776,2.42839565 5.29571649,2.63186595 5.34878425,2.82980697 L7.1719028,9.63350072 L5.59475143,11.210609 C5.39402172,10.9175197 5.05698582,10.724774 4.67575153,10.724774 L1.11327241,10.724774 C0.499393539,10.724774 0,11.224191 0,11.8380159 L0,17.8866838 C0,18.5005459 0.499393539,19 1.11327241,19 L4.67578864,19 C5.19729993,19 5.6360181,18.6394089 5.75625553,18.154613 L6.1974972,18.5393993 C6.5381328,18.8364222 6.97455014,19 7.42651669,19 L18.6288968,19 C18.83382,19 19,18.8338245 19,18.628907 L19,0.371093025 C19,0.272679155 18.9608857,0.178273089 18.8913039,0.108693147 Z M5.04685471,17.8867209 C5.04685471,18.0913045 4.88034071,18.2578139 4.67571442,18.2578139 L1.1132353,18.2578139 C0.908609008,18.2578139 0.742132124,18.0913416 0.742132124,17.8867209 L0.742132124,11.8380531 C0.742132124,11.6334324 0.908609008,11.46696 1.1132353,11.46696 L2.52339024,11.46696 L2.52339024,15.7417661 C2.52339024,15.9466837 2.68957024,16.1128592 2.89449341,16.1128592 C3.09941659,16.1128592 3.26559659,15.9466837 3.26559659,15.7417661 L3.26559659,11.46696 L4.67575153,11.46696 C4.88037782,11.46696 5.04685471,11.6334324 5.04685471,11.8380531 L5.04685471,17.8867209 L5.04685471,17.8867209 Z M6.16172286,2.99616798 L9.12884116,2.20113828 L9.12884116,3.57622348 L8.88012782,3.64287179 C8.78501407,3.66836588 8.70400225,3.73052396 8.65479397,3.81576403 C8.60558569,3.9010041 8.59222597,4.00227539 8.61772076,4.09734942 C8.76033571,4.62953393 8.44337649,5.17849184 7.91117743,5.32110289 C7.81598947,5.34663409 7.7348292,5.4089035 7.68565803,5.49432911 C7.63648686,5.57971762 7.62323848,5.68117445 7.64895593,5.7763227 L9.09547899,11.1326052 L8.35067492,11.1326052 L7.96684291,9.63101439 C7.95463361,9.58321761 7.93325807,9.53916887 7.90464602,9.50087207 L6.16172286,2.99616798 Z M9.12884116,5.27801899 L9.12884116,8.40933904 L8.45198609,5.9031623 C8.73472959,5.7571743 8.96611242,5.53874895 9.12884116,5.27801899 Z M14.4602578,18.2577768 L7.42644247,18.2577768 L7.42644247,18.2577768 C7.15386719,18.2577768 6.89064371,18.1591403 6.68520099,17.9800137 L5.78902394,17.1984547 L5.78902394,12.0659784 L7.40918617,10.4458605 L7.70302566,11.5955066 C7.74503454,11.7597895 7.89299338,11.8746799 8.06255042,11.8746799 L15.3585872,11.8751252 C15.6450789,11.8751252 15.8781317,12.1081717 15.8781317,12.3946555 C15.8781317,12.6811393 15.6450789,12.9141857 15.3585872,12.9141857 L11.6200939,12.9141857 C11.4151707,12.9141857 11.2489907,13.0803612 11.2489907,13.2852787 C11.2489907,13.4901963 11.4151707,13.6563718 11.6200939,13.6563718 L16.5201402,13.6563718 C16.8066318,13.6563718 17.0396846,13.8894182 17.0396846,14.175902 C17.0396846,14.4623858 16.8066318,14.6954322 16.5201402,14.6954322 L11.6200939,14.6954322 C11.4151707,14.6954322 11.2489907,14.8616077 11.2489907,15.0665253 C11.2489907,15.2714428 11.4151707,15.4376183 11.6200939,15.4376183 L15.7260907,15.4376183 C16.0125824,15.4376183 16.2456351,15.6706647 16.2456351,15.9571485 C16.2456351,16.2436323 16.0125824,16.4766788 15.7260907,16.4766788 L11.6200939,16.4766788 C11.4151707,16.4766788 11.2489907,16.6428542 11.2489907,16.8477718 C11.2489907,17.0526894 11.4151707,17.2188648 11.6200939,17.2188648 L14.4602578,17.2188648 C14.7467494,17.2188648 14.9798022,17.4519112 14.9798022,17.738395 C14.9797651,18.0247304 14.7467123,18.2577768 14.4602578,18.2577768 Z M18.2577937,18.2577768 L18.2577937,18.2577768 L15.6096014,18.2577768 C15.6815583,18.0992088 15.7219715,17.923422 15.7219715,17.7382466 C15.7219715,17.5530712 15.6815583,17.3772844 15.6096014,17.2187164 L15.7260907,17.2187164 C16.4217978,17.2187164 16.9878044,16.6527253 16.9878044,15.9570372 C16.9878044,15.7541235 16.9393754,15.5623798 16.8538732,15.3923449 C17.3881134,15.2456148 17.7818167,14.7559575 17.7818167,14.1758278 C17.7818167,13.8943908 17.6891152,13.6342175 17.5327694,13.4241789 L17.5327694,8.72094586 C17.5327694,8.51602829 17.3665894,8.34985283 17.1616662,8.34985283 C16.956743,8.34985283 16.790563,8.51602829 16.790563,8.72094586 L16.790563,12.9436876 C16.7033538,12.9245763 16.612916,12.9141857 16.5200659,12.9141857 L16.5078938,12.9141857 C16.5798507,12.7556177 16.6202638,12.5798309 16.6202638,12.3946555 C16.6202638,11.6989303 16.0542572,11.1329763 15.3585501,11.1329763 L14.7620018,11.1329763 C15.3954378,10.8613362 15.8403163,10.2317398 15.8403163,9.49998145 C15.8403163,8.52070406 15.043632,7.72400445 14.0643278,7.72400445 C13.0850608,7.72400445 12.2883394,8.52070406 12.2883394,9.49998145 C12.2883394,10.2317398 12.7332549,10.8613362 13.3666538,11.1329763 L11.3380926,11.1329763 L11.3380926,4.0769393 C12.0010313,3.93247279 12.5241383,3.40941717 12.6685717,2.74645948 L15.4600468,2.74645948 C15.6044802,3.40941717 16.1275872,3.93247279 16.7905259,4.0769393 L16.7905259,5.23066752 C16.7905259,5.43558509 16.9567059,5.60176054 17.1616291,5.60176054 C17.3665523,5.60176054 17.5327323,5.43558509 17.5327323,5.23066752 L17.5327323,3.74562745 C17.5327323,3.54070988 17.3665523,3.37453442 17.1616291,3.37453442 C16.6106522,3.37453442 16.1624709,2.92629116 16.1624709,2.37536645 C16.1624709,2.17044889 15.9962909,2.00427343 15.7913677,2.00427343 L12.3372879,2.00427343 C12.1323647,2.00427343 11.9661847,2.17044889 11.9661847,2.37536645 C11.9661847,2.92632827 11.5179663,3.37453442 10.9670265,3.37453442 C10.7621033,3.37453442 10.5959233,3.54070988 10.5959233,3.74562745 L10.5959233,11.1329392 L9.87108462,11.1329392 L9.87108462,0.742594253 L18.2577937,0.74218605 L18.2577937,18.2577768 Z M14.064402,10.5337724 C13.4943504,10.5337724 13.0306199,10.0700174 13.0306199,9.50001855 C13.0306199,8.93001967 13.4943876,8.46622761 14.064402,8.46622761 C14.6344165,8.46622761 15.0981841,8.92998256 15.0981841,9.49998145 C15.0981841,10.0699803 14.6344536,10.5337724 14.064402,10.5337724 Z" id="Shape"></path>
            </g>
        </g>
    </g>
</svg>