<?xml version="1.0" encoding="UTF-8"?>
<svg width="15px" height="13px" viewBox="0 0 15 13" version="1.1" xmlns="http://www.w3.org/2000/svg" xmlns:xlink="http://www.w3.org/1999/xlink">
    <!-- Generator: Sketch 62 (91390) - https://sketch.com -->
    <title>003-boy</title>
    <desc>Created with Sketch.</desc>
    <g id="Symbols" stroke="none" stroke-width="1" fill="none" fill-rule="evenodd">
        <g id="kid" fill="#FF596A" fill-rule="nonzero">
            <g id="003-boy">
                <path d="M2.37303412,5.89261782 C3.01588971,5.89261782 3.59973295,5.56202841 3.94847471,5.02471285 C4.1180464,5.19277788 4.34402345,5.29989622 4.59334477,5.31208556 C5.06058526,6.3430074 6.04945713,7 7.15682776,7 L7.85111182,7 C8.95836392,7 9.94770979,6.34263802 10.4148318,5.3113468 C10.6602426,5.29571 10.8818353,5.18711413 11.0474965,5.01917225 C11.3954087,5.56018153 11.979963,5.89261782 12.626966,5.89261782 C12.8326798,5.89261782 13.0000001,5.71876595 13.0000001,5.50502174 L13.0000001,2.84380771 C13.0000001,1.93908852 12.2917331,1.2031731 11.4210045,1.2031731 L10.8743698,1.2031731 C10.7817038,0.976993307 10.5656806,0.818039506 10.3145819,0.818039506 L10.2047335,0.818039506 C10.0945297,0.818039506 9.98776235,0.849928772 9.89521485,0.906935447 C9.3789159,0.348319342 8.65346668,0 7.85111182,0 L7.15682776,0 C6.3529324,0 5.6262982,0.349550604 5.10988073,0.909890436 C5.01638524,0.851036886 4.90784041,0.818039506 4.79514811,0.818039506 L4.6854183,0.818039506 C4.43431949,0.818039506 4.2182963,0.976993307 4.12563031,1.2031731 L3.57899566,1.2031731 C2.70838553,1.2031731 2.00000006,1.93921167 2.00000006,2.84380771 L2.00000006,5.50502174 C1.99988163,5.71876595 2.16732033,5.89261782 2.37303412,5.89261782 Z M10.3535679,4.8353473 C10.3384001,4.8353473 10.3212178,4.83374669 10.299414,4.83054544 C10.1945426,4.81453926 10.0929892,4.87560904 10.0534107,4.97755617 C9.68879005,5.91588835 8.82434186,6.52215363 7.85099329,6.52215363 L7.15670924,6.52215363 C6.18241272,6.52215363 5.31760899,5.91502647 4.9535809,4.97533991 C4.91803131,4.88361213 4.83283072,4.82562046 4.74040171,4.82562046 C4.72689284,4.82562046 4.71314699,4.82685172 4.69951963,4.82931421 C4.67818989,4.83337731 4.65899308,4.8353473 4.64098127,4.8353473 C4.34070551,4.8353473 4.0965981,4.58158762 4.0965981,4.26971314 L4.0965981,4.00265597 C4.0965981,3.81513727 4.24341803,3.66258598 4.4238916,3.66258598 L4.55210724,3.66258598 C4.67913788,3.66258598 4.78211326,3.55571387 4.78211326,3.42360124 L4.78211326,3.39626757 C5.23074943,2.80477724 5.92290052,2.45387225 6.64846821,2.45387225 L8.35923436,2.45387225 C9.08492054,2.45387225 9.7769531,2.80477724 10.2257078,3.39626757 L10.2257078,3.42360124 C10.2257078,3.55559075 10.3286832,3.66258598 10.4557138,3.66258598 L10.5128302,3.66258598 C10.719729,3.66258598 10.8879972,3.83742284 10.8879972,4.0525214 L10.8879972,4.27993245 C10.8881157,4.58614322 10.6482743,4.8353473 10.3535679,4.8353473 Z M12.5401064,2.84380771 L12.5401064,5.41206269 C12.0056772,5.3794347 11.5383182,5.0468753 11.3157776,4.54058715 C11.3366334,4.45723181 11.3480092,4.36993651 11.3480092,4.27993245 L11.3480092,4.05239829 C11.3480092,3.86032399 11.2869824,3.68290152 11.1848365,3.53896893 C11.1848365,3.53896893 11.1822295,3.09399679 11.1768971,3.03920638 C11.1643362,2.90795559 11.0514069,2.81191848 10.9252058,2.82533904 C10.7988861,2.83839023 10.7066941,2.95548168 10.719255,3.08685559 C10.7230469,3.12576294 10.7249429,3.16553218 10.7249429,3.20480889 L10.7249429,3.21392012 C10.7119081,3.21034949 10.6989917,3.20628638 10.6857199,3.20345451 L10.6857199,2.94513922 C10.6857199,2.7916029 10.6742255,2.64077534 10.6524217,2.49351837 C10.8165425,2.37852006 10.9228358,2.18373701 10.9228358,1.96913091 L10.9228358,1.68089635 L11.4210045,1.68089635 C12.0380273,1.68089635 12.5401064,2.20257506 12.5401064,2.84380771 L12.5401064,2.84380771 Z M10.2047335,1.29588587 L10.3145819,1.29588587 C10.396346,1.29588587 10.4628238,1.36495877 10.4628238,1.44979158 L10.4628238,1.80057341 C10.390421,1.62290468 10.3016655,1.45410091 10.1986901,1.29625526 C10.2007046,1.29613214 10.2027191,1.29588587 10.2047335,1.29588587 L10.2047335,1.29588587 Z M7.15682776,0.477846368 L7.85111182,0.477846368 C9.07935112,0.477846368 10.0927522,1.45176157 10.2136209,2.69544264 C9.70289141,2.23766558 9.04368301,1.97602589 8.35935285,1.97602589 L6.6485867,1.97602589 C5.96413805,1.97602589 5.30492965,2.23766558 4.79420012,2.69544264 C4.91506882,1.45176157 5.92846994,0.477846368 7.15682776,0.477846368 Z M4.68529978,1.29588587 L4.79514811,1.29588587 C4.79976957,1.29588587 4.80427253,1.29637837 4.80877547,1.29674775 C4.70200812,1.46038027 4.61088261,1.63583278 4.53717639,1.82051957 L4.53717639,1.44979158 C4.53717639,1.36495877 4.60365417,1.29588587 4.68529978,1.29588587 Z M2.45989371,2.84380771 C2.45989371,2.20257506 2.96185429,1.68089635 3.57899566,1.68089635 L4.07728283,1.68089635 L4.07728283,1.96913091 C4.07728283,2.18841576 4.18630166,2.38516877 4.35468835,2.49881274 C4.33335858,2.64446909 4.32221968,2.79344978 4.32221968,2.94513922 L4.32221968,3.19151144 C4.30634087,3.19360455 4.29069903,3.19643642 4.27517569,3.19951453 C4.27529421,3.16196155 4.27707167,3.12440857 4.28062665,3.0874712 C4.29330602,2.95622042 4.201114,2.83912899 4.07479434,2.82595466 C3.94847471,2.81278032 3.83566392,2.90857124 3.82298455,3.03982199 C3.81777061,3.09424306 3.81504513,3.48479413 3.81504513,3.48479413 C3.70365635,3.62589485 3.63670455,3.8062723 3.63670455,4.00265597 L3.63670455,4.26971314 C3.63670455,4.36993651 3.65056892,4.46683554 3.67616465,4.55868643 C3.45018757,5.05426274 2.98650202,5.37968093 2.45989371,5.41206269 L2.45989371,2.84380771 Z" id="Shape"></path>
                <path d="M7,3.5 C7,3.7762383 6.77623831,4 6.5,4 C6.22393491,4 6,3.7762383 6,3.5 C6,3.22393487 6.22393491,3 6.5,3 C6.77623831,3 7,3.22393487 7,3.5 Z" id="Path"></path>
                <path d="M9,3.5 C9,3.7762383 8.77606509,4 8.5,4 C8.22376169,4 8,3.7762383 8,3.5 C8,3.22393487 8.22376169,3 8.5,3 C8.77606509,3 9,3.22393487 9,3.5 L9,3.5 Z" id="Path"></path>
                <path d="M8.62521857,4 L6.37482472,4 C6.26853638,4 6.16689735,4.0515911 6.09586628,4.14183875 C6.02470604,4.23193946 5.99061112,4.35275961 6.00223441,4.47313883 C6.0857928,5.34372016 6.72972184,6 7.49995707,6 C8.27032145,6 8.91425052,5.34372016 8.99780887,4.47313883 C9.00930302,4.35275961 8.9752081,4.23193946 8.904177,4.14169178 C8.83314593,4.0515911 8.73137776,4 8.62521857,4 L8.62521857,4 Z M7.49995707,5.42955833 C7.03412231,5.42955833 6.63751059,5.07003748 6.52579805,4.57044171 L8.47424524,4.57044171 C8.36253272,5.07003748 7.96592098,5.42955833 7.49995707,5.42955833 Z" id="Shape"></path>
                <path d="M14.3986938,9.20357766 L14.3986938,8.94526234 C14.3986938,7.32124955 13.2444871,6 11.8256627,6 L11.1954207,6 C9.77659623,6 8.622282,7.32124955 8.622282,8.94526234 L8.622282,9.19151144 C8.27171726,9.24359313 8,9.58747999 8,10.0027791 L8,10.2697131 C8,10.8285754 8.38573954,11.2861063 8.86850558,11.3120856 C9.29253938,12.3430074 10.1901959,13 11.1954207,13 L11.8256627,13 C12.8307799,13 13.7288667,12.342638 14.1529005,11.3113468 C14.6249097,11.2783494 15,10.8284523 15,10.2800556 L15,10.0525214 C15,9.6356217 14.7417288,9.28644047 14.3986938,9.20357766 L14.3986938,9.20357766 Z M11.1954207,6.47784637 L11.8256627,6.47784637 C12.940607,6.47784637 13.8605302,7.45188469 13.9702497,8.69556575 C13.5066308,8.23766555 12.908229,7.97602589 12.2870227,7.97602589 L10.7340607,7.97602589 C10.1128544,7.97602589 9.51445256,8.23766555 9.05083367,8.69556575 C9.16044564,7.45188469 10.0803688,6.47784637 11.1954207,6.47784637 Z M14.5825279,10.2800556 C14.5825279,10.5862663 14.3649174,10.8353473 14.0972877,10.8353473 C14.083519,10.8353473 14.0679216,10.8338698 14.0481291,10.8306686 C13.9529312,10.8146624 13.8608528,10.875609 13.8248175,10.9776793 C13.4938302,11.9160115 12.7091203,12.5221536 11.8256627,12.5221536 L11.1954207,12.5221536 C10.3108874,12.5221536 9.5258548,11.9150265 9.19540532,10.975463 C9.16313484,10.8837352 9.08579333,10.8256205 9.00189014,10.8256205 C8.98962735,10.8256205 8.97714944,10.8268517 8.96477912,10.8294373 C8.94541682,10.8335004 8.92809835,10.8353473 8.91164042,10.8353473 C8.6391702,10.8353473 8.41747217,10.5817107 8.41747217,10.2697131 L8.41747217,10.0027791 C8.41747217,9.81526042 8.55074914,9.6627091 8.7145755,9.6627091 L8.83096426,9.6627091 C8.94627736,9.6627091 9.03975414,9.55571384 9.03975414,9.42372432 L9.03975414,9.39626757 C9.44711486,8.80490035 10.0753131,8.4539954 10.7340607,8.4539954 L12.2869151,8.4539954 C12.9456627,8.4539954 13.5738609,8.80490035 13.9812217,9.39626757 L13.9812217,9.42372432 C13.9812217,9.55571384 14.0746984,9.6627091 14.1900115,9.6627091 L14.2418594,9.6627091 C14.4296734,9.6627091 14.5825279,9.83754596 14.5825279,10.0525214 L14.5825279,10.2800556 Z" id="Shape"></path>
                <path d="M11,9.5 C11,9.7762383 10.7761039,10 10.5000866,10 C10.2238961,10 10,9.7762383 10,9.5 C10,9.22393487 10.2238961,9 10.5000866,9 C10.7761039,9 11,9.22393487 11,9.5 L11,9.5 Z" id="Path"></path>
                <path d="M13,9.5 C13,9.7762383 12.7762383,10 12.5,10 C12.2237617,10 12,9.7762383 12,9.5 C12,9.22393487 12.2237617,9 12.5,9 C12.7762383,9 13,9.22393487 13,9.5 L13,9.5 Z" id="Path"></path>
                <path d="M12.6251797,10 L10.3748144,10 C10.2685274,10 10.1668897,10.0517343 10.0958595,10.1418283 C10.0248293,10.2320694 9.99060567,10.3528806 10.0022288,10.473251 C10.0857861,11.3436214 10.7295779,12 11.4999325,12 C12.2702871,12 12.914208,11.3436214 12.9977654,10.473398 C13.0093885,10.3528806 12.975294,10.2320694 12.9042638,10.1419753 C12.8331045,10.0517343 12.7314667,10 12.6251797,10 L12.6251797,10 Z M11.4999325,11.4296002 C11.0339745,11.4296002 10.6373678,11.0699588 10.5257858,10.5705467 L12.4742083,10.5705467 C12.3624972,11.0699588 11.9658905,11.4296002 11.4999325,11.4296002 Z" id="Shape"></path>
                <path d="M6.39880139,9.20339817 L6.39880139,8.94521054 C6.39880139,7.32122631 5.24448713,6 3.82566269,6 L3.19542065,6 C1.77659623,6 0.622281975,7.32122631 0.622281975,8.94521054 L0.622281975,9.19157842 C0.271717263,9.24353608 0,9.58754001 0,10.0027087 L0,10.269638 C0,10.8284905 0.385739517,11.2861364 0.868505556,11.3119921 C1.29253938,12.343019 2.19019592,13 3.19542065,13 L3.82566269,13 C4.83088745,13 5.72886667,12.3425265 6.15290049,11.3112534 C6.62480215,11.2782566 7,10.8282443 7,10.2799803 L7,10.0524501 C7,9.63555775 6.74172875,9.28638267 6.39880139,9.20339817 Z M6.58252783,10.2799803 C6.58252783,10.5861857 6.36480981,10.8352623 6.09728775,10.8352623 C6.08351902,10.8352623 6.06792161,10.8337848 6.04812906,10.8305836 C5.95314637,10.8145777 5.86074529,10.8755233 5.82481753,10.9775917 C5.49383018,11.9159074 4.70912023,12.5220389 3.82555512,12.5220389 L3.19531309,12.5220389 C2.31088744,12.5220389 1.52585477,11.9149224 1.19540529,10.9753755 C1.16313484,10.8836494 1.08579333,10.8255356 1.00189011,10.8255356 C0.989627352,10.8255356 0.977257003,10.8267668 0.964779093,10.8293524 C0.945416819,10.8334154 0.927990786,10.8352623 0.911640421,10.8352623 C0.639170201,10.8352623 0.41747214,10.5816302 0.41747214,10.269638 L0.41747214,10.0027087 C0.41747214,9.81519332 0.550749135,9.66264468 0.714575496,9.66264468 L0.830964264,9.66264468 C0.946277364,9.66264468 1.03975412,9.5556513 1.03975412,9.42366411 L1.03975412,9.39620784 C1.44711486,8.80485102 2.07531309,8.45395224 2.73406069,8.45395224 L4.28702268,8.45395224 C4.4289051,8.45395224 4.57067999,8.46971191 4.70847483,8.50098498 C4.82152901,8.52671755 4.93135612,8.44250184 4.95383787,8.31310023 C4.97621205,8.1836986 4.90274297,8.05786751 4.78958126,8.03225805 C4.62521707,7.99495199 4.45601228,7.97599113 4.28702268,7.97599113 L2.73406069,7.97599113 C2.11285438,7.97599113 1.51445256,8.23762619 1.05072608,8.69551834 C1.16044564,7.45185915 2.0803688,6.47783796 3.19542065,6.47783796 L3.82566269,6.47783796 C4.94028429,6.47783796 5.8599923,7.45124355 5.97014213,8.69428714 C5.87397618,8.59899039 5.77178639,8.51145037 5.66346521,8.43265205 C5.56611601,8.36197981 5.43714174,8.39497661 5.37529005,8.50640236 C5.3135459,8.61782811 5.34237417,8.76545186 5.43972338,8.83612412 C5.64765271,8.98719526 5.82922782,9.1759419 5.98122166,9.39706967 L5.98122166,9.42366411 C5.98122166,9.5556513 6.07469841,9.66252156 6.19001151,9.66252156 L6.24185939,9.66252156 C6.42967344,9.66252156 6.58252783,9.83747846 6.58252783,10.0524501 L6.58252783,10.2799803 Z" id="Shape"></path>
                <path d="M3,9.5 C3,9.7762383 2.77610387,10 2.50008657,10 C2.22389609,10 2,9.7762383 2,9.5 C2,9.22393487 2.22389609,9 2.50008657,9 C2.77610387,9 3,9.22393487 3,9.5 L3,9.5 Z" id="Path"></path>
                <path d="M5,9.5 C5,9.7762383 4.77623827,10 4.5,10 C4.22393486,10 4,9.7762383 4,9.5 C4,9.22393487 4.22393486,9 4.5,9 C4.77623827,9 5,9.22393487 5,9.5 L5,9.5 Z" id="Path"></path>
                <path d="M4.62521858,10 L2.37482472,10 C2.26853638,10 2.16689735,10.0517343 2.09586628,10.1418283 C2.02470604,10.2320694 1.99061112,10.3528806 2.00223441,10.473251 C2.08579277,11.3436214 2.72972184,12 3.49995708,12 C4.27032145,12 4.91425049,11.3436214 4.99780889,10.473251 C5.009303,10.3528806 4.97520808,10.2320694 4.90417701,10.1418283 C4.83314595,10.0517343 4.73150691,10 4.62521858,10 L4.62521858,10 Z M3.49995708,11.4296002 C3.03412231,11.4296002 2.63751056,11.0699588 2.52579805,10.5705467 L4.47424525,10.5705467 C4.3625327,11.0701058 3.96592098,11.4296002 3.49995708,11.4296002 Z" id="Shape"></path>
            </g>
        </g>
    </g>
</svg>