<?xml version="1.0" encoding="UTF-8"?>
<svg width="12px" height="16px" viewBox="0 0 12 16" version="1.1" xmlns="http://www.w3.org/2000/svg" xmlns:xlink="http://www.w3.org/1999/xlink">
    <!-- Generator: Sketch 62 (91390) - https://sketch.com -->
    <title>002-people</title>
    <desc>Created with Sketch.</desc>
    <g id="Symbols" stroke="none" stroke-width="1" fill="none" fill-rule="evenodd">
        <g id="Icon/desplegable/masculino" fill="#FF596A" fill-rule="nonzero">
            <g id="002-people">
                <path d="M11.5340625,14.906 C11.532375,14.8939063 11.56325,15.0514063 10.8489375,11.4631875 C10.7394375,10.9145312 10.3996562,10.5169688 9.8895625,10.304 C9.819125,10.2750312 10.0196562,10.3364375 7.84353125,9.6945625 L7.22734375,9.277875 L7.22734375,8.89234375 C8.22365625,8.373625 8.8971875,7.33203125 8.8971875,6.13515625 L8.8971875,6.09184375 C9.4073125,5.99759375 9.79128125,5.6023125 9.79128125,5.13021875 C9.79128125,4.93475 9.7251875,4.7525625 9.61184375,4.59934375 C9.6131875,4.58075 9.6123125,4.475625 9.61271875,3.8225625 C9.61265625,1.71475 7.897875,0 5.79015625,0 C4.73528125,0 3.753125,0.420375 3.024625,1.183625 C2.93525,1.27728125 2.93871875,1.42565625 3.03234375,1.51503125 C3.126,1.604375 3.27434375,1.60096875 3.36375,1.5073125 C4.0029375,0.837625 4.8646875,0.46878125 5.7901875,0.46878125 C7.6394375,0.46878125 9.1439375,1.97328125 9.1439375,3.82253125 L9.1439375,4.24121875 C9.066125,4.209125 8.9835,4.18459375 8.8971875,4.16865625 C8.87721875,4.06803125 9.017875,3.4515 8.44725,3.15725 C6.03934375,1.915625 3.9315625,2.71484375 3.137125,3.11615625 C2.8570625,3.25759375 2.683125,3.54078125 2.683125,3.855125 L2.683125,4.16865625 C2.59684375,4.18459375 2.51421875,4.20915625 2.436375,4.24121875 C2.4570625,3.97921875 2.33653125,3.25675 2.7704375,2.3616875 C2.82690625,2.2451875 2.77821875,2.105 2.66175,2.0485 C2.54521875,1.9920625 2.4050625,2.04071875 2.34859375,2.1571875 C2.0958125,2.67871875 1.96759375,3.23903125 1.96759375,3.8225 C1.96790625,4.35925 1.96709375,4.58065625 1.96846875,4.59934375 C1.855125,4.7525625 1.78903125,4.93475 1.78903125,5.1301875 C1.78903125,5.60225 2.173,5.9975625 2.68309375,6.0918125 L2.68309375,6.09428125 C2.68309375,7.2286875 3.301125,8.31325 4.3351875,8.87371875 L4.3351875,9.2835 L3.733875,9.69015625 C1.5565,10.3324687 1.74134375,10.2751875 1.6699375,10.30525 C1.35059375,10.4373125 0.8554375,10.7526875 0.7135625,11.4633125 C0.00015625,15.0467813 0.0301875,14.893625 0.0284375,14.906 C-0.06128125,15.5395312 0.27340625,16 0.97865625,16 L6.76390625,16 C6.893375,16 6.99828125,15.8950937 6.99828125,15.765625 C6.99828125,15.6361563 6.893375,15.53125 6.76390625,15.53125 L2.63125,15.53125 L2.63125,13.3240625 C2.6326875,13.2312813 2.64425,11.7682188 1.976625,10.6973125 L3.2905625,10.30975 C4.50284375,13.4297188 7.1289375,13.46425 8.359875,10.3356563 C8.38309375,10.3425 8.37465625,10.34 8.3669375,10.3377188 C8.4051875,10.349 8.62428125,10.413625 9.585875,10.6972812 C8.91825,11.7681875 8.92978125,13.23125 8.93125,13.3240312 L8.93125,15.5312187 L7.8576875,15.5312187 C7.72821875,15.5312187 7.6233125,15.636125 7.6233125,15.7655937 C7.6233125,15.8950625 7.72821875,16 7.8576875,16 L10.5838125,16 C11.2868125,16 11.624125,15.5419063 11.5340625,14.906 Z M8.89715625,4.64946875 C9.46328125,4.81771875 9.4628125,5.44284375 8.89715625,5.61096875 L8.89715625,4.64946875 Z M2.68309375,5.61096875 C2.117125,5.44275 2.11734375,4.817625 2.68309375,4.64946875 L2.68309375,5.61096875 Z M2.16246875,13.3220625 L2.16246875,15.5311875 C1.14634375,15.5014687 0.756125,15.6100937 0.573375,15.399625 C0.46615625,15.2761562 0.479625,15.0679687 0.49175,14.9777812 L1.1733125,11.5549687 C1.23496875,11.2460312 1.3921875,11.0429687 1.55675,10.9106875 C1.98121875,11.568 2.16246875,12.5634687 2.16246875,13.3220625 Z M7.37978125,9.94684375 C7.17365625,10.16 6.780625,10.5665312 6.5740625,10.7801875 L6.1555,10.4697188 C6.38334375,10.2650312 6.85790625,9.8386875 7.01334375,9.69903125 L7.37978125,9.94684375 Z M5.7854375,10.172 L4.80396875,9.29025 L4.80396875,9.0834375 C5.40921875,9.28571875 6.10540625,9.30196875 6.75853125,9.08915625 L6.75853125,9.29775 L5.7854375,10.172 Z M3.986375,8.044625 C3.4560625,7.53840625 3.151875,6.8275625 3.151875,6.09428125 C3.151875,5.578125 3.151875,4.37346875 3.151875,3.85515625 C3.151875,3.7186875 3.2271875,3.5958125 3.3484375,3.5345625 C4.821125,2.79075 6.6026875,2.73353125 8.23234375,3.57390625 C8.35325,3.63625 8.42834375,3.7590625 8.42834375,3.89440625 C8.42834375,4.2070625 8.42834375,5.81784375 8.42834375,6.13515625 C8.42834375,8.42784375 5.66459375,9.6463125 3.986375,8.044625 Z M4.55753125,9.69903125 C4.588,9.72640625 4.7086875,9.83484375 5.41540625,10.46975 L4.99678125,10.7802188 L4.315375,10.0754375 L4.191125,9.94690625 L4.55753125,9.69903125 Z M5.08946875,11.986625 C4.56125,11.6805625 4.08784375,11.0522187 3.74196875,10.1764687 L3.7568125,10.1720937 L4.0743125,10.5005 C4.8041875,11.228125 4.79815625,11.3139062 4.954875,11.3246875 L5.12603125,11.7204688 L5.08946875,11.986625 Z M5.5381875,12.1647813 L5.57153125,11.921875 L5.995875,11.921875 L6.03153125,12.1816562 C5.85875,12.207875 5.70009375,12.2005 5.5381875,12.1647813 Z M6.04134375,11.4530625 L5.52115625,11.4530625 L5.364625,11.091125 L5.78125,10.7825312 L6.197875,11.091125 L6.04134375,11.4530625 Z M6.484375,12.0334063 L6.44021875,11.71175 L6.6075,11.3249375 C6.60753125,11.3249375 6.6075625,11.3249375 6.6075625,11.3249375 C6.62453125,11.324375 6.63759375,11.3225 6.6523125,11.319125 C6.66721875,11.3156875 6.6811875,11.311 6.69440625,11.3051875 C6.70765625,11.2993438 6.72159375,11.2915625 6.73346875,11.2833125 C6.741,11.2780625 6.7564375,11.2660625 6.76821875,11.253875 L7.8121875,10.1740313 L7.9083125,10.202375 C7.54440625,11.111375 7.04178125,11.7504062 6.484375,12.0334063 Z M10.989125,15.3996562 C10.8060312,15.6105312 10.4125625,15.5015937 9.40003125,15.5312187 C9.40003125,12.8395 9.4016875,13.3949687 9.4,13.317875 C9.39971875,13.3026562 9.382,11.8756875 10.0057812,10.9106875 C10.1703125,11.0429687 10.3275625,11.2460625 10.3891875,11.554875 L11.0707187,14.9778437 C11.0828437,15.068 11.0963437,15.2761875 10.989125,15.3996562 Z" id="Shape"></path>
            </g>
        </g>
    </g>
</svg>