<?xml version="1.0" encoding="UTF-8"?>
<svg width="12px" height="16px" viewBox="0 0 12 16" version="1.1" xmlns="http://www.w3.org/2000/svg" xmlns:xlink="http://www.w3.org/1999/xlink">
    <!-- Generator: Sketch 62 (91390) - https://sketch.com -->
    <title>001-woman copy</title>
    <desc>Created with Sketch.</desc>
    <g id="Symbols" stroke="none" stroke-width="1" fill="none" fill-rule="evenodd">
        <g id="Icon/desplegable/femenino" fill="#FF596A" fill-rule="nonzero">
            <g id="001-woman-copy">
                <path d="M10.8495625,11.4627188 C10.6386562,10.4063125 9.64765625,10.2265 9.64453125,10.2250625 L9.64453125,10.2250937 C9.633875,10.2219687 9.7354375,10.2474375 7.227625,9.6258125 L7.227625,9.54071875 L9.07371875,9.54071875 C9.45425,9.54071875 9.7638125,9.231125 9.7638125,8.850625 L9.7638125,5.3298125 C9.79484375,5.19890625 9.79490625,5.0628125 9.7638125,4.931625 L9.7638125,3.64665625 C9.7638125,3.51715625 9.65884375,3.41225 9.52940625,3.41225 C9.39990625,3.41225 9.295,3.51715625 9.295,3.64665625 L9.295,4.319375 C9.17125,4.2455 9.02990625,4.19253125 8.87759375,4.1663125 C8.82259375,3.92203125 8.61971875,3.72890625 8.3624375,3.695125 C8.09425,3.659875 7.891,3.50353125 7.75834375,3.23046875 C7.69625,3.102625 7.574625,3.01865625 7.4330625,3.00578125 C7.291375,2.99296875 7.15721875,3.0535 7.07325,3.1678125 C6.6703125,3.7161875 5.55015625,4.94615625 3.615875,4.94609375 C3.46871875,4.94609375 3.3689375,4.939125 3.3341875,4.9375625 C2.97875,4.91615625 2.67821875,5.20015625 2.67821875,5.5563125 L2.67821875,6.09490625 C2.67821875,6.95575 3.03534375,7.7903125 3.65796875,8.3845625 C3.86446875,8.58165625 4.09225,8.7460625 4.33515625,8.87715625 L4.33515625,9.07196875 L2.4975,9.07196875 C2.37546875,9.07196875 2.2761875,8.9726875 2.2761875,8.8506875 L2.2761875,3.5835 C2.2761875,1.87590625 3.66846875,0.46884375 5.35028125,0.46884375 C5.35571875,0.46884375 5.36115625,0.468875 5.3665625,0.46890625 C5.969125,0.472125 6.66484375,0.64328125 7.1389375,0.9048125 C7.43940625,1.07065625 7.625,0.93884375 7.92171875,0.93884375 C8.6459375,0.93884375 9.2263125,1.68353125 9.295875,2.3533125 C9.2963125,2.363125 9.29734375,2.40240625 9.29746875,2.55290625 C9.297625,2.7791875 9.5531875,2.7965625 9.5320625,2.787125 C9.6615625,2.78703125 9.766375,2.68196875 9.76628125,2.55253125 C9.76625,2.51090625 9.76659375,2.3476875 9.7626875,2.3098125 C9.6684375,1.37740625 8.87309375,0.47003125 7.92175,0.47003125 C7.5501875,0.47003125 7.49228125,0.56421875 7.3654375,0.49434375 C6.82784375,0.19775 6.04421875,0.00371875 5.36909375,2.08674181e-05 C3.42309375,-0.0125 1.80734375,1.60865625 1.80734375,3.58346875 L1.80734375,8.85065625 C1.80734375,9.2311875 2.1169375,9.54075 2.49746875,9.54075 L4.33515625,9.54075 L4.33515625,9.62584375 L1.92771875,10.2225 C1.92453125,10.2232812 1.92140625,10.2241875 1.91825,10.2250938 L1.742375,10.2769688 C1.73709375,10.2785313 1.73190625,10.28025 1.72675,10.2821562 C1.412875,10.3992813 0.86384375,10.708375 0.7131875,11.4628438 C-0.00025,15.0466563 0.02978125,14.893625 0.0280625,14.9059063 C-0.057875,15.51375 0.24640625,15.9999688 0.978375,15.9999688 L3.51321875,15.9999688 C3.64271875,15.9999688 3.747625,15.8950312 3.747625,15.7655625 C3.747625,15.6360625 3.6426875,15.5311563 3.51321875,15.5311563 L2.631125,15.5311563 L2.631125,13.3202188 C2.631125,13.1907188 2.5261875,13.0858125 2.39671875,13.0858125 C2.26725,13.0858125 2.1623125,13.19075 2.1623125,13.3202188 L2.1623125,15.5311563 L0.978375,15.5311563 C0.667,15.5311563 0.4861875,15.4309062 0.4831875,15.1038125 C0.481875,14.94425 0.47559375,15.0997812 1.17296875,11.5545 C1.2779375,11.0287813 1.6596875,10.8091875 1.88334375,10.7241563 L2.04590625,10.6762188 L3.42840625,10.3335625 C4.9663125,12.1453125 4.87525,12.0493125 4.964125,12.136 C5.4774375,12.6367188 6.209875,12.601375 6.6919375,12.03525 L8.13959375,10.3348438 L9.5168125,10.6761875 C9.55665625,10.6945 10.2422187,10.8150938 10.3898125,11.5544063 C11.0811875,15.069 11.0809375,14.9435 11.079625,15.103625 C11.07725,15.424 10.9039375,15.5311875 10.5844375,15.5311875 L9.40890625,15.5311875 L9.40890625,13.3202188 C9.40890625,13.1907188 9.304,13.0858125 9.1745,13.0858125 C9.045,13.0858125 8.94009375,13.19075 8.94009375,13.3202188 L8.94009375,15.5311563 L4.607125,15.5311563 C4.477625,15.5311563 4.37271875,15.6360938 4.37271875,15.7655625 C4.37271875,15.8950625 4.47765625,15.9999688 4.607125,15.9999688 L10.5844687,15.9999688 C11.1635937,15.9999688 11.543125,15.6813125 11.5485818,15.107375 C11.5504375,14.8393438 11.5344687,14.9674062 10.8495625,11.4627188 Z M8.8929375,4.64990625 C9.0886875,4.708125 9.23965625,4.837125 9.29503125,4.9964375 L9.29503125,5.265 C9.23965625,5.42434375 9.0886875,5.55334375 8.8929375,5.61153125 L8.8929375,4.64990625 Z M8.8929375,6.13571875 L8.8929375,6.0924375 C9.0394375,6.065375 9.17546875,6.0135 9.29503125,5.94209375 L9.29503125,8.85065625 C9.29503125,8.9726875 9.19575,9.07190625 9.07375,9.07190625 L7.227625,9.07190625 L7.227625,8.89075 C8.2215,8.37115625 8.8929375,7.3308125 8.8929375,6.13571875 Z M3.9816875,8.045375 C3.45128125,7.53909375 3.14709375,6.8281875 3.14709375,6.09484375 C3.16103125,5.58446875 3.1133125,5.522625 3.19475,5.4459375 C3.22359375,5.41875 3.262375,5.40296875 3.30603125,5.40546875 C4.98678125,5.50665625 6.43240625,4.76778125 7.38684375,3.53065625 C7.6441875,3.98253125 8.02159375,4.12321875 8.30140625,4.16 C8.37134375,4.1691875 8.424125,4.228875 8.424125,4.29890625 C8.424125,4.947375 8.424125,5.4919375 8.424125,6.13575 C8.424125,8.468125 5.631875,9.62034375 3.9816875,8.045375 Z M6.33490625,11.7313125 C6.0083125,12.1149687 5.551125,12.1139375 5.2253125,11.729375 L4.73621875,11.1520937 L6.82803125,11.1520937 L6.33490625,11.7313125 Z M7.22721875,10.68325 L4.3390625,10.68325 L3.93621875,10.20775 L4.62603125,10.03675 C4.73065625,10.0108438 4.80403125,9.91465625 4.80403125,9.80690625 L4.8040625,9.08171875 C5.4490625,9.29671875 6.13021875,9.294375 6.7588125,9.08840625 C6.76321875,9.837625 6.74875,9.82046875 6.771875,9.8865625 C6.7974375,9.959625 6.85834375,10.0172812 6.93678125,10.0367188 L7.631125,10.2088125 L7.22721875,10.68325 Z" id="Shape"></path>
            </g>
        </g>
    </g>
</svg>